<?xml version="1.0" encoding="utf-8" standalone="no"?>
<!DOCTYPE svg PUBLIC "-//W3C//DTD SVG 1.1//EN"
  "http://www.w3.org/Graphics/SVG/1.1/DTD/svg11.dtd">
<!-- Created with matplotlib (https://matplotlib.org/) -->
<svg height="377.117031pt" version="1.1" viewBox="0 0 402.129687 377.117031" width="402.129687pt" xmlns="http://www.w3.org/2000/svg" xmlns:xlink="http://www.w3.org/1999/xlink">
 <defs>
  <style type="text/css">
*{stroke-linecap:butt;stroke-linejoin:round;}
  </style>
 </defs>
 <g id="figure_1">
  <g id="patch_1">
   <path d="M 0 377.117031 
L 402.129687 377.117031 
L 402.129687 0 
L 0 0 
z
" style="fill:#ffffff;"/>
  </g>
  <g id="axes_1">
   <g id="patch_2">
    <path d="M 52.178125 337.159219 
L 386.978125 337.159219 
L 386.978125 10.999219 
L 52.178125 10.999219 
z
" style="fill:#ffffff;"/>
   </g>
   <g id="PathCollection_1">
    <path clip-path="url(#pc66cd09833)" d="M 327.895772 301.393254 
L 329.208713 301.537118 
L 330.521654 301.610223 
L 331.834596 301.614416 
L 333.147537 301.559047 
L 334.460478 301.521439 
L 335.745346 301.345572 
L 335.773419 301.341469 
L 337.08636 301.110955 
L 338.399301 300.772428 
L 339.712243 300.389511 
L 340.498617 300.066513 
L 341.025184 299.841859 
L 342.338125 299.335205 
L 343.385824 298.787454 
L 343.651066 298.645874 
L 344.964007 297.846469 
L 345.434675 297.508395 
L 346.276949 296.841662 
L 346.979246 296.229336 
L 347.58989 295.573395 
L 348.143242 294.950278 
L 348.902831 294.072187 
L 349.213629 293.671219 
L 350.025806 292.39216 
L 350.215772 292.059754 
L 350.69901 291.113101 
L 351.253739 289.834042 
L 351.528713 289.217707 
L 351.834292 288.554983 
L 352.196265 287.275925 
L 352.45227 285.996866 
L 352.765186 284.717807 
L 352.841654 283.747861 
L 352.865381 283.438748 
L 353.006462 282.159689 
L 353.028304 280.880631 
L 352.857512 279.601572 
L 352.841654 279.480535 
L 352.691881 278.322513 
L 352.486409 277.043454 
L 352.20599 275.764395 
L 351.869398 274.485336 
L 351.554875 273.206278 
L 351.528713 273.091883 
L 351.284693 271.927219 
L 350.915874 270.64816 
L 350.543734 269.369101 
L 350.215772 268.344241 
L 350.133287 268.090042 
L 349.771342 266.810983 
L 349.417482 265.531925 
L 349.006664 264.252866 
L 348.902831 263.915692 
L 348.633748 262.973807 
L 348.225828 261.694748 
L 347.935795 260.415689 
L 347.58989 259.32306 
L 347.53011 259.136631 
L 347.10888 257.857572 
L 346.657854 256.578513 
L 346.276949 255.441688 
L 346.234368 255.299454 
L 345.815208 254.020395 
L 345.33813 252.741336 
L 344.964007 251.809243 
L 344.828033 251.462278 
L 344.37228 250.183219 
L 343.785021 248.90416 
L 343.651066 248.549834 
L 343.321553 247.625101 
L 342.857344 246.346042 
L 342.338125 245.2405 
L 342.256131 245.066983 
L 341.634934 243.787925 
L 341.025184 242.733906 
L 340.897468 242.508866 
L 340.160809 241.229807 
L 339.712243 240.510482 
L 339.372296 239.950748 
L 338.510108 238.671689 
L 338.399301 238.504561 
L 337.664274 237.392631 
L 337.08636 236.565491 
L 336.772591 236.113572 
L 335.788382 234.834513 
L 335.773419 234.814354 
L 334.868197 233.555454 
L 334.460478 233.002132 
L 333.950224 232.276395 
L 333.147537 231.257524 
L 332.935961 230.997336 
L 331.934132 229.718278 
L 331.834596 229.593572 
L 330.913959 228.439219 
L 330.521654 227.933999 
L 329.989743 227.16016 
L 329.208713 226.149187 
L 329.023504 225.881101 
L 328.159408 224.602042 
L 327.895772 224.202801 
L 327.320736 223.322983 
L 326.582831 222.259136 
L 326.438689 222.043925 
L 325.615058 220.764866 
L 325.26989 220.233406 
L 324.82268 219.485807 
L 324.022489 218.206748 
L 323.956949 218.100716 
L 323.268861 216.927689 
L 322.644007 215.880451 
L 322.515577 215.648631 
L 321.761448 214.369572 
L 321.331066 213.637739 
L 321.014448 213.090513 
L 320.240346 211.811454 
L 320.018125 211.441688 
L 319.522609 210.532395 
L 318.773528 209.253336 
L 318.705184 209.138021 
L 317.993207 207.974278 
L 317.392243 207.047701 
L 317.179638 206.695219 
L 316.413126 205.41616 
L 316.079301 204.898003 
L 315.614362 204.137101 
L 314.779371 202.858042 
L 314.76636 202.838264 
L 313.925877 201.578983 
L 313.453419 200.873627 
L 313.079661 200.299925 
L 312.153187 199.020866 
L 312.140478 199.003672 
L 311.231429 197.741807 
L 310.827537 197.226653 
L 310.222475 196.462748 
L 309.514596 195.584583 
L 309.1998 195.183689 
L 308.201654 193.999817 
L 308.121546 193.904631 
L 307.082413 192.625572 
L 306.888713 192.389191 
L 306.072466 191.346513 
L 305.575772 190.755185 
L 305.021137 190.067454 
L 304.262831 189.123106 
L 304.001532 188.788395 
L 302.951927 187.509336 
L 302.94989 187.506848 
L 301.886415 186.230278 
L 301.636949 185.941911 
L 300.796432 184.951219 
L 300.324007 184.395045 
L 299.741125 183.67216 
L 299.011066 182.751023 
L 298.728687 182.393101 
L 297.698125 181.198538 
L 297.626943 181.114042 
L 296.613871 179.834983 
L 296.385184 179.555955 
L 295.591687 178.555925 
L 295.072243 177.909868 
L 294.565592 177.276866 
L 293.759301 176.326407 
L 293.479481 175.997807 
L 292.44636 174.803979 
L 292.375607 174.718748 
L 291.311841 173.439689 
L 291.133419 173.226324 
L 290.24514 172.160631 
L 289.820478 171.68208 
L 289.130356 170.881572 
L 288.507537 170.162288 
L 288.026091 169.602513 
L 287.194596 168.685146 
L 286.862604 168.323454 
L 285.881654 167.263171 
L 285.683384 167.044395 
L 284.568713 165.842 
L 284.499524 165.765336 
L 283.359666 164.486278 
L 283.255772 164.374416 
L 282.114927 163.207219 
L 281.942831 163.026243 
L 280.94728 161.92816 
L 280.62989 161.590146 
L 279.728265 160.649101 
L 279.316949 160.227538 
L 278.457259 159.370042 
L 278.004007 158.933812 
L 277.147139 158.090983 
L 276.691066 157.641762 
L 275.814414 156.811925 
L 275.378125 156.389488 
L 274.495112 155.532866 
L 274.065184 155.115451 
L 273.177295 154.253807 
L 272.752243 153.847367 
L 271.821711 152.974748 
L 271.439301 152.612547 
L 270.452664 151.695689 
L 270.12636 151.389999 
L 269.132432 150.416631 
L 268.813419 150.096583 
L 267.844509 149.137572 
L 267.500478 148.797903 
L 266.538802 147.858513 
L 266.187537 147.511833 
L 265.304213 146.579454 
L 264.874596 146.125805 
L 264.057163 145.300395 
L 263.561654 144.779056 
L 262.849552 144.021336 
L 262.248713 143.397377 
L 261.612262 142.742278 
L 260.935772 142.078292 
L 260.323837 141.463219 
L 259.622831 140.710319 
L 259.128113 140.18416 
L 258.30989 139.338357 
L 257.905708 138.905101 
L 256.996949 137.983998 
L 256.630898 137.626042 
L 255.684007 136.703095 
L 255.330463 136.346983 
L 254.371066 135.378105 
L 254.060143 135.067925 
L 253.058125 134.076754 
L 252.750152 133.788866 
L 251.745184 132.911746 
L 251.291696 132.509807 
L 250.432243 131.747673 
L 249.843957 131.230748 
L 249.119301 130.595987 
L 248.37288 129.951689 
L 247.80636 129.474295 
L 246.866427 128.672631 
L 246.493419 128.347834 
L 245.359079 127.393572 
L 245.180478 127.246683 
L 243.867537 126.157548 
L 243.815087 126.114513 
L 242.554596 125.063983 
L 242.273803 124.835454 
L 241.241654 124.005595 
L 240.66237 123.556395 
L 239.928713 122.978663 
L 238.99778 122.277336 
L 238.615772 121.983129 
L 237.372781 120.998278 
L 237.302831 120.941911 
L 235.98989 119.929623 
L 235.71238 119.719219 
L 234.676949 118.907982 
L 234.086336 118.44016 
L 233.364007 117.834395 
L 232.527795 117.161101 
L 232.051066 116.784398 
L 230.92377 115.882042 
L 230.738125 115.729974 
L 229.425184 114.686223 
L 229.325362 114.602983 
L 228.112243 113.541756 
L 227.854983 113.323925 
L 226.799301 112.430438 
L 226.343191 112.044866 
L 225.48636 111.313833 
L 224.832634 110.765807 
L 224.173419 110.189438 
L 223.410297 109.486748 
L 222.860478 108.965646 
L 222.050036 108.207689 
L 221.547537 107.725993 
L 220.695441 106.928631 
L 220.234596 106.487933 
L 219.381713 105.649572 
L 218.921654 105.185668 
L 218.127637 104.370513 
L 217.608713 103.84707 
L 216.850843 103.091454 
L 216.295772 102.52547 
L 215.597726 101.812395 
L 214.982831 101.216072 
L 214.2876 100.533336 
L 213.66989 99.904696 
L 213.024435 99.254278 
L 212.356949 98.577941 
L 211.750989 97.975219 
L 211.044007 97.302343 
L 210.376803 96.69616 
L 209.731066 96.089893 
L 209.006514 95.417101 
L 208.418125 94.894497 
L 207.530661 94.138042 
L 207.105184 93.772367 
L 206.001671 92.858983 
L 205.792243 92.681537 
L 204.479301 91.609444 
L 204.441446 91.579925 
L 203.16636 90.644992 
L 202.690259 90.300866 
L 201.853419 89.668485 
L 200.903269 89.021807 
L 200.540478 88.765087 
L 199.227537 87.827793 
L 199.103178 87.742748 
L 197.914596 86.901932 
L 197.270632 86.463689 
L 196.601654 86.000607 
L 195.382127 85.184631 
L 195.288713 85.120223 
L 193.975772 84.258761 
L 193.401765 83.905572 
L 192.662831 83.42564 
L 191.425005 82.626513 
L 191.34989 82.577011 
L 190.036949 81.73216 
L 189.406519 81.347454 
L 188.724007 80.902948 
L 187.411066 80.071131 
L 187.406764 80.068395 
L 186.098125 79.241253 
L 185.314006 78.789336 
L 184.785184 78.455335 
L 183.472243 77.643134 
L 183.242583 77.510278 
L 182.159301 76.871155 
L 180.991973 76.231219 
L 180.84636 76.146761 
L 179.533419 75.338207 
L 178.866394 74.95216 
L 178.220478 74.566675 
L 176.907537 73.793719 
L 176.691812 73.673101 
L 175.594596 73.06695 
L 174.357936 72.394042 
L 174.281654 72.349231 
L 172.968713 71.639512 
L 172.015603 71.114983 
L 171.655772 70.914307 
L 170.342831 70.216924 
L 169.577171 69.835925 
L 169.02989 69.545984 
L 167.716949 68.747123 
L 167.384619 68.556866 
L 166.404007 67.992875 
L 165.091066 67.279197 
L 165.088536 67.277807 
L 163.778125 66.505366 
L 162.92045 65.998748 
L 162.465184 65.724678 
L 161.152243 64.914835 
L 160.83307 64.719689 
L 159.839301 64.087066 
L 158.731774 63.440631 
L 158.52636 63.322629 
L 157.213419 62.485335 
L 156.692229 62.161572 
L 155.900478 61.629006 
L 154.735434 60.882513 
L 154.587537 60.788066 
L 153.274596 59.906936 
L 152.814677 59.603454 
L 151.961654 59.027475 
L 150.858995 58.324395 
L 150.648713 58.187007 
L 149.335772 57.388611 
L 148.779816 57.045336 
L 148.022831 56.546383 
L 146.769467 55.766278 
L 146.70989 55.727815 
L 145.396949 54.925181 
L 144.666426 54.487219 
L 144.084007 54.128572 
L 142.771066 53.359825 
L 142.481369 53.20816 
L 141.458125 52.655737 
L 140.145184 52.034431 
L 139.924378 51.929101 
L 138.832243 51.394693 
L 137.519301 50.799913 
L 137.137124 50.650042 
L 136.20636 50.246079 
L 134.893419 49.682019 
L 134.134905 49.370983 
L 133.580478 49.13692 
L 132.267537 48.64877 
L 130.954596 48.182018 
L 130.66382 48.091925 
L 129.641654 47.753487 
L 128.328713 47.315795 
L 127.015772 46.937031 
L 126.643318 46.812866 
L 125.702831 46.490479 
L 124.38989 46.134364 
L 123.076949 45.770467 
L 122.122037 45.533807 
L 121.764007 45.43571 
L 120.451066 45.115581 
L 119.138125 44.763005 
L 117.825184 44.472237 
L 116.791519 44.254748 
L 116.512243 44.195444 
L 115.199301 43.933122 
L 113.88636 43.724692 
L 112.573419 43.484591 
L 111.260478 43.316748 
L 109.947537 43.201725 
L 108.634596 43.097446 
L 107.321654 43.049001 
L 106.008713 43.034067 
L 104.695772 43.053529 
L 103.382831 42.978984 
L 102.06989 43.113708 
L 100.756949 43.313366 
L 99.444007 43.677885 
L 98.131066 43.868924 
L 96.818125 44.18225 
L 96.529729 44.254748 
L 95.505184 44.527432 
L 94.192243 45.026323 
L 92.879301 45.505975 
L 92.820078 45.533807 
L 91.56636 46.135639 
L 90.519101 46.812866 
L 90.253419 47.016094 
L 88.940478 48.043052 
L 88.881473 48.091925 
L 87.627537 49.124466 
L 87.369516 49.370983 
L 86.314596 50.557211 
L 86.243721 50.650042 
L 85.389383 51.929101 
L 85.001654 52.583694 
L 84.67915 53.20816 
L 84.196555 54.487219 
L 83.848486 55.766278 
L 83.688713 56.533107 
L 83.583443 57.045336 
L 83.313732 58.324395 
L 83.155495 59.603454 
L 82.998656 60.882513 
L 82.901675 62.161572 
L 83.014061 63.440631 
L 83.12846 64.719689 
L 83.405511 65.998748 
L 83.688713 67.237669 
L 83.697525 67.277807 
L 84.029031 68.556866 
L 84.4138 69.835925 
L 84.833848 71.114983 
L 85.001654 71.566301 
L 85.312069 72.394042 
L 85.857202 73.673101 
L 86.314596 74.690079 
L 86.430239 74.95216 
L 87.059266 76.231219 
L 87.627537 77.315017 
L 87.725152 77.510278 
L 88.405099 78.789336 
L 88.940478 79.782946 
L 89.08539 80.068395 
L 89.79231 81.347454 
L 90.253419 82.147613 
L 90.509083 82.626513 
L 91.263513 83.905572 
L 91.56636 84.432381 
L 92.00966 85.184631 
L 92.831136 86.463689 
L 92.879301 86.547803 
L 93.530619 87.742748 
L 94.192243 88.766635 
L 94.343445 89.021807 
L 95.092839 90.300866 
L 95.505184 90.956287 
L 95.905746 91.579925 
L 96.726274 92.858983 
L 96.818125 92.999392 
L 97.488526 94.138042 
L 98.131066 95.137378 
L 98.30388 95.417101 
L 99.068744 96.69616 
L 99.444007 97.292036 
L 99.851535 97.975219 
L 100.644535 99.254278 
L 100.756949 99.429757 
L 101.519812 100.533336 
L 102.06989 101.330302 
L 102.367244 101.812395 
L 103.212859 103.091454 
L 103.382831 103.37619 
L 103.949655 104.370513 
L 104.695772 105.613494 
L 104.715982 105.649572 
L 105.444879 106.928631 
L 106.008713 107.929097 
L 106.164345 108.207689 
L 106.795375 109.486748 
L 107.321654 110.488084 
L 107.452028 110.765807 
L 108.044915 112.044866 
L 108.634596 113.25444 
L 108.667262 113.323925 
L 109.122633 114.602983 
L 109.644924 115.882042 
L 109.947537 116.561287 
L 110.195652 117.161101 
L 110.6979 118.44016 
L 111.232493 119.719219 
L 111.260478 119.788283 
L 111.737787 120.998278 
L 112.300838 122.277336 
L 112.573419 122.933907 
L 112.817984 123.556395 
L 113.394184 124.835454 
L 113.88636 126.036594 
L 113.916515 126.114513 
L 114.43092 127.393572 
L 115.023856 128.672631 
L 115.199301 129.068894 
L 115.575932 129.951689 
L 116.175469 131.230748 
L 116.512243 131.906072 
L 116.7998 132.509807 
L 117.476072 133.788866 
L 117.825184 134.446079 
L 118.138693 135.067925 
L 118.838068 136.346983 
L 119.138125 136.904096 
L 119.522192 137.626042 
L 120.294078 138.905101 
L 120.451066 139.157094 
L 121.064912 140.18416 
L 121.764007 141.252643 
L 121.906013 141.463219 
L 122.812168 142.742278 
L 123.076949 143.086188 
L 123.806242 144.021336 
L 124.38989 144.780901 
L 124.755644 145.300395 
L 125.702831 146.506618 
L 125.758868 146.579454 
L 126.758766 147.858513 
L 127.015772 148.173149 
L 127.822768 149.137572 
L 128.328713 149.710632 
L 128.935399 150.416631 
L 129.641654 151.225159 
L 130.049399 151.695689 
L 130.954596 152.718459 
L 131.18293 152.974748 
L 132.267537 154.122529 
L 132.390513 154.253807 
L 133.580478 155.529689 
L 133.583286 155.532866 
L 134.696084 156.811925 
L 134.893419 157.032214 
L 135.872722 158.090983 
L 136.20636 158.434083 
L 137.069069 159.370042 
L 137.519301 159.856776 
L 138.256847 160.649101 
L 138.832243 161.274581 
L 139.433672 161.92816 
L 140.145184 162.689959 
L 140.603771 163.207219 
L 141.458125 164.152607 
L 141.765329 164.486278 
L 142.771066 165.562162 
L 142.95479 165.765336 
L 144.084007 167.017166 
L 144.108337 167.044395 
L 145.249156 168.323454 
L 145.396949 168.48614 
L 146.41632 169.602513 
L 146.70989 169.925586 
L 147.555193 170.881572 
L 148.022831 171.402514 
L 148.710284 172.160631 
L 149.335772 172.844394 
L 149.85696 173.439689 
L 150.648713 174.324518 
L 150.996368 174.718748 
L 151.961654 175.8339 
L 152.098701 175.997807 
L 153.217528 177.276866 
L 153.274596 177.340261 
L 154.352673 178.555925 
L 154.587537 178.838248 
L 155.404097 179.834983 
L 155.900478 180.40796 
L 156.515452 181.114042 
L 157.213419 181.903733 
L 157.630078 182.393101 
L 158.52636 183.448184 
L 158.71273 183.67216 
L 159.779833 184.951219 
L 159.839301 185.020518 
L 160.851348 186.230278 
L 161.152243 186.583546 
L 161.923918 187.509336 
L 162.465184 188.139713 
L 163.011619 188.788395 
L 163.778125 189.682825 
L 164.095343 190.067454 
L 165.091066 191.245412 
L 165.178042 191.346513 
L 166.289567 192.625572 
L 166.404007 192.753272 
L 167.39104 193.904631 
L 167.716949 194.290327 
L 168.505073 195.183689 
L 169.02989 195.762285 
L 169.629472 196.462748 
L 170.342831 197.294915 
L 170.725643 197.741807 
L 171.655772 198.788173 
L 171.863377 199.020866 
L 172.968713 200.22535 
L 173.03694 200.299925 
L 174.223863 201.578983 
L 174.281654 201.643049 
L 175.392688 202.858042 
L 175.594596 203.067043 
L 176.619605 204.137101 
L 176.907537 204.443896 
L 177.816376 205.41616 
L 178.220478 205.821782 
L 179.073707 206.695219 
L 179.533419 207.190109 
L 180.251579 207.974278 
L 180.84636 208.608389 
L 181.472649 209.253336 
L 182.159301 209.952887 
L 182.713542 210.532395 
L 183.472243 211.305415 
L 183.971778 211.811454 
L 184.785184 212.62936 
L 185.241542 213.090513 
L 186.098125 213.968419 
L 186.494877 214.369572 
L 187.411066 215.294022 
L 187.755202 215.648631 
L 188.724007 216.624227 
L 189.021096 216.927689 
L 190.036949 217.941252 
L 190.319409 218.206748 
L 191.34989 219.213474 
L 191.628712 219.485807 
L 192.662831 220.46098 
L 192.986963 220.764866 
L 193.975772 221.687961 
L 194.362993 222.043925 
L 195.288713 222.894411 
L 195.767685 223.322983 
L 196.601654 224.051117 
L 197.249799 224.602042 
L 197.914596 225.165454 
L 198.751518 225.881101 
L 199.227537 226.297188 
L 200.252103 227.16016 
L 200.540478 227.405033 
L 201.74189 228.439219 
L 201.853419 228.533368 
L 203.16636 229.572561 
L 203.349569 229.718278 
L 204.479301 230.611874 
L 204.985068 230.997336 
L 205.792243 231.619792 
L 206.654423 232.276395 
L 207.105184 232.625737 
L 208.354601 233.555454 
L 208.418125 233.604095 
L 209.731066 234.595778 
L 210.045123 234.834513 
L 211.044007 235.582469 
L 211.795064 236.113572 
L 212.356949 236.535319 
L 213.523052 237.392631 
L 213.66989 237.496614 
L 214.982831 238.400437 
L 215.379347 238.671689 
L 216.295772 239.334467 
L 217.188214 239.950748 
L 217.608713 240.251982 
L 218.921654 241.159076 
L 219.027077 241.229807 
L 220.234596 242.066164 
L 220.890556 242.508866 
L 221.547537 242.975215 
L 222.728808 243.787925 
L 222.860478 243.881341 
L 224.173419 244.827806 
L 224.516448 245.066983 
L 225.48636 245.766672 
L 226.316647 246.346042 
L 226.799301 246.692273 
L 228.112243 247.616408 
L 228.124259 247.625101 
L 229.425184 248.616309 
L 229.814802 248.90416 
L 230.738125 249.613293 
L 231.490152 250.183219 
L 232.051066 250.618432 
L 233.1798 251.462278 
L 233.364007 251.599684 
L 234.676949 252.595226 
L 234.865968 252.741336 
L 235.98989 253.644006 
L 236.455538 254.020395 
L 237.302831 254.718972 
L 238.027465 255.299454 
L 238.615772 255.781689 
L 239.598359 256.578513 
L 239.928713 256.863972 
L 241.071158 257.857572 
L 241.241654 258.016074 
L 242.463714 259.136631 
L 242.554596 259.216255 
L 243.867537 260.410433 
L 243.873266 260.415689 
L 245.180478 261.623949 
L 245.258923 261.694748 
L 246.493419 262.803651 
L 246.68539 262.973807 
L 247.80636 263.971306 
L 248.13186 264.252866 
L 249.119301 265.120275 
L 249.59348 265.531925 
L 250.432243 266.310796 
L 250.965087 266.810983 
L 251.745184 267.549695 
L 252.367518 268.090042 
L 253.058125 268.683798 
L 253.851586 269.369101 
L 254.371066 269.806189 
L 255.410604 270.64816 
L 255.684007 270.8779 
L 256.945562 271.927219 
L 256.996949 271.970563 
L 258.30989 273.051276 
L 258.512246 273.206278 
L 259.622831 274.046371 
L 260.221418 274.485336 
L 260.935772 275.021181 
L 262.001559 275.764395 
L 262.248713 275.937885 
L 263.561654 276.827614 
L 263.902333 277.043454 
L 264.874596 277.666119 
L 265.958031 278.322513 
L 266.187537 278.465283 
L 267.500478 279.246153 
L 268.138774 279.601572 
L 268.813419 280.003262 
L 270.12636 280.727444 
L 270.420806 280.880631 
L 271.439301 281.403702 
L 272.752243 282.02902 
L 273.020861 282.159689 
L 274.065184 282.717243 
L 275.378125 283.329792 
L 275.622183 283.438748 
L 276.691066 283.9306 
L 278.004007 284.529929 
L 278.466842 284.717807 
L 279.316949 285.088403 
L 280.62989 285.602933 
L 281.598384 285.996866 
L 281.942831 286.144106 
L 283.255772 286.635532 
L 284.568713 287.07764 
L 285.146624 287.275925 
L 285.881654 287.530983 
L 287.194596 287.945669 
L 288.507537 288.335721 
L 289.135958 288.554983 
L 289.820478 288.819166 
L 291.133419 289.246477 
L 292.44636 289.664905 
L 293.012695 289.834042 
L 293.759301 290.071301 
L 295.072243 290.493445 
L 296.385184 290.905849 
L 297.044925 291.113101 
L 297.698125 291.345261 
L 299.011066 291.837851 
L 300.324007 292.341317 
L 300.476977 292.39216 
L 301.636949 292.790994 
L 302.94989 293.286295 
L 303.942646 293.671219 
L 304.262831 293.797631 
L 305.575772 294.323162 
L 306.888713 294.87031 
L 307.073976 294.950278 
L 308.201654 295.456916 
L 309.514596 295.977115 
L 310.114124 296.229336 
L 310.827537 296.527837 
L 312.140478 297.081223 
L 313.258132 297.508395 
L 313.453419 297.58332 
L 314.76636 298.135215 
L 316.079301 298.580007 
L 316.695508 298.787454 
L 317.392243 299.041327 
L 318.705184 299.49728 
L 320.018125 299.931788 
L 320.618335 300.066513 
L 321.331066 300.226269 
L 322.644007 300.505909 
L 323.956949 300.821135 
L 325.26989 301.072674 
L 326.582831 301.300487 
L 327.22208 301.345572 
z
M 280.224838 256.578513 
L 279.316949 256.325839 
L 278.004007 255.904034 
L 276.691066 255.388709 
L 276.491507 255.299454 
L 275.378125 254.797392 
L 274.065184 254.195249 
L 273.726831 254.020395 
L 272.752243 253.494217 
L 271.439301 252.765737 
L 271.399712 252.741336 
L 270.12636 251.988715 
L 269.256318 251.462278 
L 268.813419 251.18265 
L 267.500478 250.268001 
L 267.382439 250.183219 
L 266.187537 249.339835 
L 265.583995 248.90416 
L 264.874596 248.365268 
L 263.895333 247.625101 
L 263.561654 247.402566 
L 262.248713 246.504121 
L 262.018256 246.346042 
L 260.935772 245.576766 
L 260.256536 245.066983 
L 259.622831 244.617739 
L 258.462939 243.787925 
L 258.30989 243.679959 
L 256.996949 242.727597 
L 256.700935 242.508866 
L 255.684007 241.778079 
L 254.893091 241.229807 
L 254.371066 240.877059 
L 253.058125 239.951665 
L 253.056792 239.950748 
L 251.745184 239.046712 
L 251.239066 238.671689 
L 250.432243 238.101756 
L 249.378143 237.392631 
L 249.119301 237.219569 
L 247.80636 236.329203 
L 247.482869 236.113572 
L 246.493419 235.480525 
L 245.484469 234.834513 
L 245.180478 234.644521 
L 243.867537 233.803768 
L 243.475659 233.555454 
L 242.554596 232.990364 
L 241.419466 232.276395 
L 241.241654 232.165074 
L 239.928713 231.359286 
L 239.33486 230.997336 
L 238.615772 230.55921 
L 237.302831 229.739189 
L 237.269612 229.718278 
L 235.98989 228.947859 
L 235.181086 228.439219 
L 234.676949 228.115957 
L 233.364007 227.290532 
L 233.155007 227.16016 
L 232.051066 226.494736 
L 231.078182 225.881101 
L 230.738125 225.668782 
L 229.425184 224.82483 
L 229.099777 224.602042 
L 228.112243 223.937391 
L 227.192895 223.322983 
L 226.799301 223.048995 
L 225.48636 222.128887 
L 225.367127 222.043925 
L 224.173419 221.211059 
L 223.560842 220.764866 
L 222.860478 220.256359 
L 221.824507 219.485807 
L 221.547537 219.278025 
L 220.234596 218.270371 
L 220.152534 218.206748 
L 218.921654 217.265226 
L 218.497553 216.927689 
L 217.608713 216.201 
L 216.941791 215.648631 
L 216.295772 215.102125 
L 215.462837 214.369572 
L 214.982831 213.96458 
L 213.962684 213.090513 
L 213.66989 212.839524 
L 212.476897 211.811454 
L 212.356949 211.705479 
L 211.059595 210.532395 
L 211.044007 210.51843 
L 209.731066 209.300453 
L 209.680002 209.253336 
L 208.418125 208.07087 
L 208.314502 207.974278 
L 207.105184 206.836887 
L 206.955541 206.695219 
L 205.792243 205.620914 
L 205.570618 205.41616 
L 204.479301 204.378925 
L 204.228434 204.137101 
L 203.16636 203.137898 
L 202.875056 202.858042 
L 201.853419 201.864683 
L 201.5588 201.578983 
L 200.540478 200.58383 
L 200.249151 200.299925 
L 199.227537 199.296373 
L 198.952155 199.020866 
L 197.914596 197.988374 
L 197.662162 197.741807 
L 196.601654 196.6869 
L 196.380796 196.462748 
L 195.288713 195.343219 
L 195.134423 195.183689 
L 193.975772 194.017462 
L 193.861383 193.904631 
L 192.662831 192.699256 
L 192.590282 192.625572 
L 191.35365 191.346513 
L 191.34989 191.342628 
L 190.15546 190.067454 
L 190.036949 189.939245 
L 188.958306 188.788395 
L 188.724007 188.545048 
L 187.747636 187.509336 
L 187.411066 187.11978 
L 186.631456 186.230278 
L 186.098125 185.639777 
L 185.491873 184.951219 
L 184.785184 184.121193 
L 184.401267 183.67216 
L 183.472243 182.609182 
L 183.282258 182.393101 
L 182.187686 181.114042 
L 182.159301 181.079666 
L 181.133562 179.834983 
L 180.84636 179.480395 
L 180.103963 178.555925 
L 179.533419 177.827352 
L 179.106833 177.276866 
L 178.220478 176.126277 
L 178.118523 175.997807 
L 177.121808 174.718748 
L 176.907537 174.428923 
L 176.178387 173.439689 
L 175.594596 172.616713 
L 175.255712 172.160631 
L 174.283875 170.881572 
L 174.281654 170.878617 
L 173.317714 169.602513 
L 172.968713 169.145699 
L 172.343241 168.323454 
L 171.655772 167.367334 
L 171.413404 167.044395 
L 170.454056 165.765336 
L 170.342831 165.624234 
L 169.430032 164.486278 
L 169.02989 163.966244 
L 168.426037 163.207219 
L 167.716949 162.272329 
L 167.453821 161.92816 
L 166.479535 160.649101 
L 166.404007 160.553635 
L 165.440436 159.370042 
L 165.091066 158.940351 
L 164.402476 158.090983 
L 163.778125 157.31861 
L 163.349521 156.811925 
L 162.465184 155.712412 
L 162.318657 155.532866 
L 161.213354 154.253807 
L 161.152243 154.180138 
L 160.156498 152.974748 
L 159.839301 152.596485 
L 159.04885 151.695689 
L 158.52636 151.09343 
L 157.940889 150.416631 
L 157.213419 149.566588 
L 156.841366 149.137572 
L 155.900478 148.037835 
L 155.746627 147.858513 
L 154.67948 146.579454 
L 154.587537 146.465626 
L 153.675681 145.300395 
L 153.274596 144.77337 
L 152.695824 144.021336 
L 151.961654 143.064802 
L 151.717854 142.742278 
L 150.829932 141.463219 
L 150.648713 141.198455 
L 149.930665 140.18416 
L 149.335772 139.300253 
L 149.058879 138.905101 
L 148.140527 137.626042 
L 148.022831 137.440693 
L 147.335926 136.346983 
L 146.70989 135.360769 
L 146.521543 135.067925 
L 145.711425 133.788866 
L 145.396949 133.275387 
L 144.924201 132.509807 
L 144.210964 131.230748 
L 144.084007 130.988386 
L 143.523053 129.951689 
L 142.874173 128.672631 
L 142.771066 128.458608 
L 142.250751 127.393572 
L 141.676932 126.114513 
L 141.458125 125.571715 
L 141.15816 124.835454 
L 140.690233 123.556395 
L 140.230177 122.277336 
L 140.145184 122.005691 
L 139.829705 120.998278 
L 139.517773 119.719219 
L 139.188548 118.44016 
L 138.961507 117.161101 
L 138.832243 116.377844 
L 138.748312 115.882042 
L 138.634015 114.602983 
L 138.585441 113.323925 
L 138.524879 112.044866 
L 138.615018 110.765807 
L 138.661225 109.486748 
L 138.818459 108.207689 
L 138.832243 108.130299 
L 139.05798 106.928631 
L 139.364185 105.649572 
L 139.795775 104.370513 
L 140.145184 103.517539 
L 140.340578 103.091454 
L 141.098226 101.812395 
L 141.458125 101.284029 
L 142.033626 100.533336 
L 142.771066 99.695099 
L 143.272015 99.254278 
L 144.084007 98.650688 
L 145.23281 97.975219 
L 145.396949 97.888183 
L 146.70989 97.294297 
L 148.022831 96.841937 
L 148.614102 96.69616 
L 149.335772 96.525916 
L 150.648713 96.300986 
L 151.961654 96.131461 
L 153.274596 96.037775 
L 154.587537 96.011461 
L 155.900478 96.073404 
L 157.213419 96.166389 
L 158.52636 96.320031 
L 159.839301 96.520581 
L 160.948618 96.69616 
L 161.152243 96.727665 
L 162.465184 96.995771 
L 163.778125 97.298606 
L 165.091066 97.632735 
L 166.251815 97.975219 
L 166.404007 98.017425 
L 167.716949 98.33604 
L 169.02989 98.725378 
L 170.342831 99.104215 
L 170.78469 99.254278 
L 171.655772 99.541797 
L 172.968713 100.021501 
L 174.281654 100.486917 
L 174.396869 100.533336 
L 175.594596 100.994984 
L 176.907537 101.506681 
L 177.641632 101.812395 
L 178.220478 102.054935 
L 179.533419 102.600493 
L 180.636736 103.091454 
L 180.84636 103.182483 
L 182.159301 103.771002 
L 183.385786 104.370513 
L 183.472243 104.412655 
L 184.785184 105.078697 
L 185.853795 105.649572 
L 186.098125 105.776459 
L 187.411066 106.493671 
L 188.154495 106.928631 
L 188.724007 107.260511 
L 190.036949 108.036718 
L 190.305629 108.207689 
L 191.34989 108.898411 
L 192.195787 109.486748 
L 192.662831 109.803904 
L 193.975772 110.708917 
L 194.051902 110.765807 
L 195.288713 111.729393 
L 195.667902 112.044866 
L 196.601654 112.791546 
L 197.240352 113.323925 
L 197.914596 113.918292 
L 198.676746 114.602983 
L 199.227537 115.092335 
L 200.093686 115.882042 
L 200.540478 116.290995 
L 201.485696 117.161101 
L 201.853419 117.502863 
L 202.823939 118.44016 
L 203.16636 118.75595 
L 204.20711 119.719219 
L 204.479301 119.982312 
L 205.549506 120.998278 
L 205.792243 121.211566 
L 207.013237 122.277336 
L 207.105184 122.357031 
L 208.418125 123.465302 
L 208.524083 123.556395 
L 209.731066 124.564338 
L 210.062172 124.835454 
L 211.044007 125.630703 
L 211.641238 126.114513 
L 212.356949 126.682348 
L 213.270383 127.393572 
L 213.66989 127.699617 
L 214.930541 128.672631 
L 214.982831 128.71209 
L 216.295772 129.685814 
L 216.662532 129.951689 
L 217.608713 130.603622 
L 218.522232 131.230748 
L 218.921654 131.506414 
L 220.234596 132.425046 
L 220.356942 132.509807 
L 221.547537 133.331644 
L 222.176923 133.788866 
L 222.860478 134.277758 
L 223.928909 135.067925 
L 224.173419 135.251138 
L 225.48636 136.199294 
L 225.679016 136.346983 
L 226.799301 137.198743 
L 227.338371 137.626042 
L 228.112243 138.235883 
L 228.932994 138.905101 
L 229.425184 139.326526 
L 230.466144 140.18416 
L 230.738125 140.408175 
L 231.938 141.463219 
L 232.051066 141.563849 
L 233.364007 142.714015 
L 233.394801 142.742278 
L 234.676949 143.902789 
L 234.806775 144.021336 
L 235.98989 145.150211 
L 236.143654 145.300395 
L 237.302831 146.446525 
L 237.430961 146.579454 
L 238.615772 147.843715 
L 238.629998 147.858513 
L 239.842328 149.137572 
L 239.928713 149.22899 
L 241.067975 150.416631 
L 241.241654 150.594254 
L 242.276345 151.695689 
L 242.554596 152.00027 
L 243.475279 152.974748 
L 243.867537 153.37828 
L 244.711653 154.253807 
L 245.180478 154.760903 
L 245.901563 155.532866 
L 246.493419 156.153332 
L 247.135101 156.811925 
L 247.80636 157.477074 
L 248.429163 158.090983 
L 249.119301 158.763191 
L 249.74547 159.370042 
L 250.432243 160.03876 
L 251.072436 160.649101 
L 251.745184 161.282981 
L 252.438001 161.92816 
L 253.058125 162.507182 
L 253.784864 163.207219 
L 254.371066 163.76504 
L 255.134692 164.486278 
L 255.684007 164.994219 
L 256.519554 165.765336 
L 256.996949 166.196851 
L 257.942744 167.044395 
L 258.30989 167.364571 
L 259.404671 168.323454 
L 259.622831 168.51405 
L 260.840282 169.602513 
L 260.935772 169.69184 
L 262.194653 170.881572 
L 262.248713 170.930351 
L 263.561654 172.129438 
L 263.594706 172.160631 
L 264.841875 173.439689 
L 264.874596 173.473427 
L 266.085546 174.718748 
L 266.187537 174.822944 
L 267.336771 175.997807 
L 267.500478 176.167398 
L 268.540235 177.276866 
L 268.813419 177.585963 
L 269.674707 178.555925 
L 270.12636 179.064714 
L 270.824005 179.834983 
L 271.439301 180.521925 
L 271.951232 181.114042 
L 272.752243 182.059627 
L 273.033733 182.393101 
L 274.033388 183.67216 
L 274.065184 183.712115 
L 275.072288 184.951219 
L 275.378125 185.330824 
L 276.079606 186.230278 
L 276.691066 187.019276 
L 277.075293 187.509336 
L 278.004007 188.722035 
L 278.054921 188.788395 
L 279.002607 190.067454 
L 279.316949 190.506115 
L 279.917531 191.346513 
L 280.62989 192.437465 
L 280.758243 192.625572 
L 281.639874 193.904631 
L 281.942831 194.327043 
L 282.567903 195.183689 
L 283.255772 196.191245 
L 283.440422 196.462748 
L 284.291648 197.741807 
L 284.568713 198.171744 
L 285.127659 199.020866 
L 285.881654 200.204688 
L 285.943585 200.299925 
L 286.729873 201.578983 
L 287.194596 202.34327 
L 287.511525 202.858042 
L 288.281947 204.137101 
L 288.507537 204.52813 
L 289.045218 205.41616 
L 289.820478 206.693566 
L 289.821533 206.695219 
L 290.58321 207.974278 
L 291.133419 208.892924 
L 291.348941 209.253336 
L 292.079324 210.532395 
L 292.44636 211.215385 
L 292.776881 211.811454 
L 293.509334 213.090513 
L 293.759301 213.56588 
L 294.190524 214.369572 
L 294.891984 215.648631 
L 295.072243 216.017007 
L 295.53794 216.927689 
L 296.17365 218.206748 
L 296.385184 218.635389 
L 296.813787 219.485807 
L 297.438956 220.764866 
L 297.698125 221.325341 
L 298.019667 222.043925 
L 298.59648 223.322983 
L 299.011066 224.366765 
L 299.105535 224.602042 
L 299.637844 225.881101 
L 300.138244 227.16016 
L 300.324007 227.702784 
L 300.5787 228.439219 
L 301.028775 229.718278 
L 301.440601 230.997336 
L 301.636949 231.659409 
L 301.82815 232.276395 
L 302.200374 233.555454 
L 302.508131 234.834513 
L 302.778748 236.113572 
L 302.94989 237.125275 
L 302.99652 237.392631 
L 303.210742 238.671689 
L 303.344083 239.950748 
L 303.445495 241.229807 
L 303.456732 242.508866 
L 303.402531 243.787925 
L 303.298551 245.066983 
L 303.044813 246.346042 
L 302.94989 246.691615 
L 302.682635 247.625101 
L 302.195218 248.90416 
L 301.636949 249.946306 
L 301.504322 250.183219 
L 300.679816 251.462278 
L 300.324007 251.907469 
L 299.5811 252.741336 
L 299.011066 253.313393 
L 298.15764 254.020395 
L 297.698125 254.348396 
L 296.385184 255.17769 
L 296.169813 255.299454 
L 295.072243 255.865332 
L 293.759301 256.392618 
L 293.236177 256.578513 
L 292.44636 256.841115 
L 291.133419 257.098131 
L 289.820478 257.32762 
L 288.507537 257.484816 
L 287.194596 257.566456 
L 285.881654 257.538668 
L 284.568713 257.423018 
L 283.255772 257.257374 
L 281.942831 257.006785 
L 280.62989 256.694192 
z
" style="fill:#f3aea7;"/>
   </g>
   <g id="PathCollection_2">
    <path clip-path="url(#pc66cd09833)" d="M 280.62989 256.694192 
L 281.942831 257.006785 
L 283.255772 257.257374 
L 284.568713 257.423018 
L 285.881654 257.538668 
L 287.194596 257.566456 
L 288.507537 257.484816 
L 289.820478 257.32762 
L 291.133419 257.098131 
L 292.44636 256.841115 
L 293.236177 256.578513 
L 293.759301 256.392618 
L 295.072243 255.865332 
L 296.169813 255.299454 
L 296.385184 255.17769 
L 297.698125 254.348396 
L 298.15764 254.020395 
L 299.011066 253.313393 
L 299.5811 252.741336 
L 300.324007 251.907469 
L 300.679816 251.462278 
L 301.504322 250.183219 
L 301.636949 249.946306 
L 302.195218 248.90416 
L 302.682635 247.625101 
L 302.94989 246.691615 
L 303.044813 246.346042 
L 303.298551 245.066983 
L 303.402531 243.787925 
L 303.456732 242.508866 
L 303.445495 241.229807 
L 303.344083 239.950748 
L 303.210742 238.671689 
L 302.99652 237.392631 
L 302.94989 237.125275 
L 302.778748 236.113572 
L 302.508131 234.834513 
L 302.200374 233.555454 
L 301.82815 232.276395 
L 301.636949 231.659409 
L 301.440601 230.997336 
L 301.028775 229.718278 
L 300.5787 228.439219 
L 300.324007 227.702784 
L 300.138244 227.16016 
L 299.637844 225.881101 
L 299.105535 224.602042 
L 299.011066 224.366765 
L 298.59648 223.322983 
L 298.019667 222.043925 
L 297.698125 221.325341 
L 297.438956 220.764866 
L 296.813787 219.485807 
L 296.385184 218.635389 
L 296.17365 218.206748 
L 295.53794 216.927689 
L 295.072243 216.017007 
L 294.891984 215.648631 
L 294.190524 214.369572 
L 293.759301 213.56588 
L 293.509334 213.090513 
L 292.776881 211.811454 
L 292.44636 211.215385 
L 292.079324 210.532395 
L 291.348941 209.253336 
L 291.133419 208.892924 
L 290.58321 207.974278 
L 289.821533 206.695219 
L 289.820478 206.693566 
L 289.045218 205.41616 
L 288.507537 204.52813 
L 288.281947 204.137101 
L 287.511525 202.858042 
L 287.194596 202.34327 
L 286.729873 201.578983 
L 285.943585 200.299925 
L 285.881654 200.204688 
L 285.127659 199.020866 
L 284.568713 198.171744 
L 284.291648 197.741807 
L 283.440422 196.462748 
L 283.255772 196.191245 
L 282.567903 195.183689 
L 281.942831 194.327043 
L 281.639874 193.904631 
L 280.758243 192.625572 
L 280.62989 192.437465 
L 279.917531 191.346513 
L 279.316949 190.506115 
L 279.002607 190.067454 
L 278.054921 188.788395 
L 278.004007 188.722035 
L 277.075293 187.509336 
L 276.691066 187.019276 
L 276.079606 186.230278 
L 275.378125 185.330824 
L 275.072288 184.951219 
L 274.065184 183.712115 
L 274.033388 183.67216 
L 273.033733 182.393101 
L 272.752243 182.059627 
L 271.951232 181.114042 
L 271.439301 180.521925 
L 270.824005 179.834983 
L 270.12636 179.064714 
L 269.674707 178.555925 
L 268.813419 177.585963 
L 268.540235 177.276866 
L 267.500478 176.167398 
L 267.336771 175.997807 
L 266.187537 174.822944 
L 266.085546 174.718748 
L 264.874596 173.473427 
L 264.841875 173.439689 
L 263.594706 172.160631 
L 263.561654 172.129438 
L 262.248713 170.930351 
L 262.194653 170.881572 
L 260.935772 169.69184 
L 260.840282 169.602513 
L 259.622831 168.51405 
L 259.404671 168.323454 
L 258.30989 167.364571 
L 257.942744 167.044395 
L 256.996949 166.196851 
L 256.519554 165.765336 
L 255.684007 164.994219 
L 255.134692 164.486278 
L 254.371066 163.76504 
L 253.784864 163.207219 
L 253.058125 162.507182 
L 252.438001 161.92816 
L 251.745184 161.282981 
L 251.072436 160.649101 
L 250.432243 160.03876 
L 249.74547 159.370042 
L 249.119301 158.763191 
L 248.429163 158.090983 
L 247.80636 157.477074 
L 247.135101 156.811925 
L 246.493419 156.153332 
L 245.901563 155.532866 
L 245.180478 154.760903 
L 244.711653 154.253807 
L 243.867537 153.37828 
L 243.475279 152.974748 
L 242.554596 152.00027 
L 242.276345 151.695689 
L 241.241654 150.594254 
L 241.067975 150.416631 
L 239.928713 149.22899 
L 239.842328 149.137572 
L 238.629998 147.858513 
L 238.615772 147.843715 
L 237.430961 146.579454 
L 237.302831 146.446525 
L 236.143654 145.300395 
L 235.98989 145.150211 
L 234.806775 144.021336 
L 234.676949 143.902789 
L 233.394801 142.742278 
L 233.364007 142.714015 
L 232.051066 141.563849 
L 231.938 141.463219 
L 230.738125 140.408175 
L 230.466144 140.18416 
L 229.425184 139.326526 
L 228.932994 138.905101 
L 228.112243 138.235883 
L 227.338371 137.626042 
L 226.799301 137.198743 
L 225.679016 136.346983 
L 225.48636 136.199294 
L 224.173419 135.251138 
L 223.928909 135.067925 
L 222.860478 134.277758 
L 222.176923 133.788866 
L 221.547537 133.331644 
L 220.356942 132.509807 
L 220.234596 132.425046 
L 218.921654 131.506414 
L 218.522232 131.230748 
L 217.608713 130.603622 
L 216.662532 129.951689 
L 216.295772 129.685814 
L 214.982831 128.71209 
L 214.930541 128.672631 
L 213.66989 127.699617 
L 213.270383 127.393572 
L 212.356949 126.682348 
L 211.641238 126.114513 
L 211.044007 125.630703 
L 210.062172 124.835454 
L 209.731066 124.564338 
L 208.524083 123.556395 
L 208.418125 123.465302 
L 207.105184 122.357031 
L 207.013237 122.277336 
L 205.792243 121.211566 
L 205.549506 120.998278 
L 204.479301 119.982312 
L 204.20711 119.719219 
L 203.16636 118.75595 
L 202.823939 118.44016 
L 201.853419 117.502863 
L 201.485696 117.161101 
L 200.540478 116.290995 
L 200.093686 115.882042 
L 199.227537 115.092335 
L 198.676746 114.602983 
L 197.914596 113.918292 
L 197.240352 113.323925 
L 196.601654 112.791546 
L 195.667902 112.044866 
L 195.288713 111.729393 
L 194.051902 110.765807 
L 193.975772 110.708917 
L 192.662831 109.803904 
L 192.195787 109.486748 
L 191.34989 108.898411 
L 190.305629 108.207689 
L 190.036949 108.036718 
L 188.724007 107.260511 
L 188.154495 106.928631 
L 187.411066 106.493671 
L 186.098125 105.776459 
L 185.853795 105.649572 
L 184.785184 105.078697 
L 183.472243 104.412655 
L 183.385786 104.370513 
L 182.159301 103.771002 
L 180.84636 103.182483 
L 180.636736 103.091454 
L 179.533419 102.600493 
L 178.220478 102.054935 
L 177.641632 101.812395 
L 176.907537 101.506681 
L 175.594596 100.994984 
L 174.396869 100.533336 
L 174.281654 100.486917 
L 172.968713 100.021501 
L 171.655772 99.541797 
L 170.78469 99.254278 
L 170.342831 99.104215 
L 169.02989 98.725378 
L 167.716949 98.33604 
L 166.404007 98.017425 
L 166.251815 97.975219 
L 165.091066 97.632735 
L 163.778125 97.298606 
L 162.465184 96.995771 
L 161.152243 96.727665 
L 160.948618 96.69616 
L 159.839301 96.520581 
L 158.52636 96.320031 
L 157.213419 96.166389 
L 155.900478 96.073404 
L 154.587537 96.011461 
L 153.274596 96.037775 
L 151.961654 96.131461 
L 150.648713 96.300986 
L 149.335772 96.525916 
L 148.614102 96.69616 
L 148.022831 96.841937 
L 146.70989 97.294297 
L 145.396949 97.888183 
L 145.23281 97.975219 
L 144.084007 98.650688 
L 143.272015 99.254278 
L 142.771066 99.695099 
L 142.033626 100.533336 
L 141.458125 101.284029 
L 141.098226 101.812395 
L 140.340578 103.091454 
L 140.145184 103.517539 
L 139.795775 104.370513 
L 139.364185 105.649572 
L 139.05798 106.928631 
L 138.832243 108.130299 
L 138.818459 108.207689 
L 138.661225 109.486748 
L 138.615018 110.765807 
L 138.524879 112.044866 
L 138.585441 113.323925 
L 138.634015 114.602983 
L 138.748312 115.882042 
L 138.832243 116.377844 
L 138.961507 117.161101 
L 139.188548 118.44016 
L 139.517773 119.719219 
L 139.829705 120.998278 
L 140.145184 122.005691 
L 140.230177 122.277336 
L 140.690233 123.556395 
L 141.15816 124.835454 
L 141.458125 125.571715 
L 141.676932 126.114513 
L 142.250751 127.393572 
L 142.771066 128.458608 
L 142.874173 128.672631 
L 143.523053 129.951689 
L 144.084007 130.988386 
L 144.210964 131.230748 
L 144.924201 132.509807 
L 145.396949 133.275387 
L 145.711425 133.788866 
L 146.521543 135.067925 
L 146.70989 135.360769 
L 147.335926 136.346983 
L 148.022831 137.440693 
L 148.140527 137.626042 
L 149.058879 138.905101 
L 149.335772 139.300253 
L 149.930665 140.18416 
L 150.648713 141.198455 
L 150.829932 141.463219 
L 151.717854 142.742278 
L 151.961654 143.064802 
L 152.695824 144.021336 
L 153.274596 144.77337 
L 153.675681 145.300395 
L 154.587537 146.465626 
L 154.67948 146.579454 
L 155.746627 147.858513 
L 155.900478 148.037835 
L 156.841366 149.137572 
L 157.213419 149.566588 
L 157.940889 150.416631 
L 158.52636 151.09343 
L 159.04885 151.695689 
L 159.839301 152.596485 
L 160.156498 152.974748 
L 161.152243 154.180138 
L 161.213354 154.253807 
L 162.318657 155.532866 
L 162.465184 155.712412 
L 163.349521 156.811925 
L 163.778125 157.31861 
L 164.402476 158.090983 
L 165.091066 158.940351 
L 165.440436 159.370042 
L 166.404007 160.553635 
L 166.479535 160.649101 
L 167.453821 161.92816 
L 167.716949 162.272329 
L 168.426037 163.207219 
L 169.02989 163.966244 
L 169.430032 164.486278 
L 170.342831 165.624234 
L 170.454056 165.765336 
L 171.413404 167.044395 
L 171.655772 167.367334 
L 172.343241 168.323454 
L 172.968713 169.145699 
L 173.317714 169.602513 
L 174.281654 170.878617 
L 174.283875 170.881572 
L 175.255712 172.160631 
L 175.594596 172.616713 
L 176.178387 173.439689 
L 176.907537 174.428923 
L 177.121808 174.718748 
L 178.118523 175.997807 
L 178.220478 176.126277 
L 179.106833 177.276866 
L 179.533419 177.827352 
L 180.103963 178.555925 
L 180.84636 179.480395 
L 181.133562 179.834983 
L 182.159301 181.079666 
L 182.187686 181.114042 
L 183.282258 182.393101 
L 183.472243 182.609182 
L 184.401267 183.67216 
L 184.785184 184.121193 
L 185.491873 184.951219 
L 186.098125 185.639777 
L 186.631456 186.230278 
L 187.411066 187.11978 
L 187.747636 187.509336 
L 188.724007 188.545048 
L 188.958306 188.788395 
L 190.036949 189.939245 
L 190.15546 190.067454 
L 191.34989 191.342628 
L 191.35365 191.346513 
L 192.590282 192.625572 
L 192.662831 192.699256 
L 193.861383 193.904631 
L 193.975772 194.017462 
L 195.134423 195.183689 
L 195.288713 195.343219 
L 196.380796 196.462748 
L 196.601654 196.6869 
L 197.662162 197.741807 
L 197.914596 197.988374 
L 198.952155 199.020866 
L 199.227537 199.296373 
L 200.249151 200.299925 
L 200.540478 200.58383 
L 201.5588 201.578983 
L 201.853419 201.864683 
L 202.875056 202.858042 
L 203.16636 203.137898 
L 204.228434 204.137101 
L 204.479301 204.378925 
L 205.570618 205.41616 
L 205.792243 205.620914 
L 206.955541 206.695219 
L 207.105184 206.836887 
L 208.314502 207.974278 
L 208.418125 208.07087 
L 209.680002 209.253336 
L 209.731066 209.300453 
L 211.044007 210.51843 
L 211.059595 210.532395 
L 212.356949 211.705479 
L 212.476897 211.811454 
L 213.66989 212.839524 
L 213.962684 213.090513 
L 214.982831 213.96458 
L 215.462837 214.369572 
L 216.295772 215.102125 
L 216.941791 215.648631 
L 217.608713 216.201 
L 218.497553 216.927689 
L 218.921654 217.265226 
L 220.152534 218.206748 
L 220.234596 218.270371 
L 221.547537 219.278025 
L 221.824507 219.485807 
L 222.860478 220.256359 
L 223.560842 220.764866 
L 224.173419 221.211059 
L 225.367127 222.043925 
L 225.48636 222.128887 
L 226.799301 223.048995 
L 227.192895 223.322983 
L 228.112243 223.937391 
L 229.099777 224.602042 
L 229.425184 224.82483 
L 230.738125 225.668782 
L 231.078182 225.881101 
L 232.051066 226.494736 
L 233.155007 227.16016 
L 233.364007 227.290532 
L 234.676949 228.115957 
L 235.181086 228.439219 
L 235.98989 228.947859 
L 237.269612 229.718278 
L 237.302831 229.739189 
L 238.615772 230.55921 
L 239.33486 230.997336 
L 239.928713 231.359286 
L 241.241654 232.165074 
L 241.419466 232.276395 
L 242.554596 232.990364 
L 243.475659 233.555454 
L 243.867537 233.803768 
L 245.180478 234.644521 
L 245.484469 234.834513 
L 246.493419 235.480525 
L 247.482869 236.113572 
L 247.80636 236.329203 
L 249.119301 237.219569 
L 249.378143 237.392631 
L 250.432243 238.101756 
L 251.239066 238.671689 
L 251.745184 239.046712 
L 253.056792 239.950748 
L 253.058125 239.951665 
L 254.371066 240.877059 
L 254.893091 241.229807 
L 255.684007 241.778079 
L 256.700935 242.508866 
L 256.996949 242.727597 
L 258.30989 243.679959 
L 258.462939 243.787925 
L 259.622831 244.617739 
L 260.256536 245.066983 
L 260.935772 245.576766 
L 262.018256 246.346042 
L 262.248713 246.504121 
L 263.561654 247.402566 
L 263.895333 247.625101 
L 264.874596 248.365268 
L 265.583995 248.90416 
L 266.187537 249.339835 
L 267.382439 250.183219 
L 267.500478 250.268001 
L 268.813419 251.18265 
L 269.256318 251.462278 
L 270.12636 251.988715 
L 271.399712 252.741336 
L 271.439301 252.765737 
L 272.752243 253.494217 
L 273.726831 254.020395 
L 274.065184 254.195249 
L 275.378125 254.797392 
L 276.491507 255.299454 
L 276.691066 255.388709 
L 278.004007 255.904034 
L 279.316949 256.325839 
L 280.224838 256.578513 
z
" style="fill:#e03424;"/>
   </g>
   <g id="PathCollection_3">
    <path clip-path="url(#pc66cd09833)" d="M 170.836897 174.079219 
L 171.945858 174.079219 
L 173.054818 174.079219 
L 174.163779 174.079219 
L 175.272739 174.079219 
L 176.3817 174.079219 
L 177.49066 174.079219 
L 178.599621 174.079219 
L 179.708581 174.079219 
L 180.817542 174.079219 
L 181.926502 174.079219 
L 183.035463 174.079219 
L 184.144423 174.079219 
L 185.253384 174.079219 
L 185.554816 174.079219 
L 185.363502 173.439689 
L 185.253384 173.026605 
L 185.191365 172.80016 
L 185.237655 172.160631 
L 185.058993 171.521101 
L 184.881052 170.881572 
L 184.716366 170.242042 
L 184.564074 169.602513 
L 184.41486 168.962983 
L 184.278307 168.323454 
L 184.150111 167.683925 
L 184.144423 167.653893 
L 184.024712 167.044395 
L 183.906937 166.404866 
L 183.792698 165.765336 
L 183.676348 165.125807 
L 183.565864 164.486278 
L 183.462239 163.846748 
L 183.370266 163.207219 
L 183.283464 162.567689 
L 183.195736 161.92816 
L 183.116115 161.288631 
L 183.04243 160.649101 
L 183.035463 160.583629 
L 182.971636 160.009572 
L 182.903983 159.370042 
L 182.827221 158.730513 
L 182.764684 158.090983 
L 182.709534 157.451454 
L 182.658481 156.811925 
L 182.603388 156.172395 
L 182.557702 155.532866 
L 182.517603 154.893336 
L 182.482968 154.253807 
L 182.445174 153.614278 
L 182.413453 152.974748 
L 182.389713 152.335219 
L 182.36432 151.695689 
L 182.34882 151.05616 
L 182.333244 150.416631 
L 182.323243 149.777101 
L 182.316249 149.137572 
L 182.292326 148.498042 
L 182.295518 147.858513 
L 182.300939 147.218983 
L 182.315229 146.579454 
L 182.334749 145.939925 
L 182.360346 145.300395 
L 182.391816 144.660866 
L 182.429545 144.021336 
L 182.473661 143.381807 
L 182.524675 142.742278 
L 182.58298 142.102748 
L 182.649869 141.463219 
L 182.72725 140.823689 
L 182.803158 140.18416 
L 182.896873 139.544631 
L 182.999377 138.905101 
L 183.035463 138.705857 
L 183.11458 138.265572 
L 183.23068 137.626042 
L 183.368265 136.986513 
L 183.518397 136.346983 
L 183.681153 135.707454 
L 183.8602 135.067925 
L 184.054119 134.428395 
L 184.144423 134.152388 
L 184.264616 133.788866 
L 184.495644 133.149336 
L 184.747092 132.509807 
L 185.018222 131.870278 
L 185.253384 131.359377 
L 185.314205 131.230748 
L 185.632963 130.591219 
L 185.983388 129.951689 
L 186.361913 129.31216 
L 186.362344 129.311405 
L 186.743793 128.672631 
L 187.170261 128.033101 
L 187.471305 127.610721 
L 187.636059 127.393572 
L 188.166779 126.754042 
L 188.580265 126.29325 
L 188.754668 126.114513 
L 189.432975 125.474983 
L 189.689226 125.242941 
L 190.190703 124.835454 
L 190.798186 124.369428 
L 191.05728 124.195925 
L 191.907147 123.674455 
L 192.135869 123.556395 
L 193.016107 123.121232 
L 193.532047 122.916866 
L 194.125068 122.729402 
L 195.234028 122.463333 
L 196.342989 122.282381 
L 196.398612 122.277336 
L 197.451949 122.164045 
L 198.56091 122.141732 
L 199.66987 122.213729 
L 200.09619 122.277336 
L 200.77883 122.362981 
L 201.887791 122.582748 
L 202.996751 122.885629 
L 203.087045 122.916866 
L 204.105712 123.324295 
L 204.585863 123.556395 
L 205.214672 123.860518 
L 205.808414 124.195925 
L 206.323633 124.498374 
L 206.829065 124.835454 
L 207.432593 125.247596 
L 207.731875 125.474983 
L 208.541554 126.087856 
L 208.573785 126.114513 
L 209.317715 126.754042 
L 209.650514 127.038409 
L 210.03754 127.393572 
L 210.69201 128.033101 
L 210.759475 128.100382 
L 211.30166 128.672631 
L 211.868435 129.276715 
L 211.900265 129.31216 
L 212.474828 129.951689 
L 212.977396 130.52773 
L 213.030966 130.591219 
L 213.562221 131.230748 
L 214.078122 131.870278 
L 214.086356 131.880602 
L 214.576755 132.509807 
L 215.061696 133.149336 
L 215.195317 133.328151 
L 215.53492 133.788866 
L 215.995859 134.428395 
L 216.304277 134.864186 
L 216.447709 135.067925 
L 216.891191 135.707454 
L 217.325709 136.346983 
L 217.413238 136.477115 
L 217.756419 136.986513 
L 218.179414 137.626042 
L 218.522198 138.153783 
L 218.595398 138.265572 
L 219.011224 138.905101 
L 219.418714 139.544631 
L 219.631159 139.881788 
L 219.824145 140.18416 
L 220.227623 140.823689 
L 220.624279 141.463219 
L 220.740119 141.651487 
L 221.022451 142.102748 
L 221.416703 142.742278 
L 221.80461 143.381807 
L 221.84908 143.455556 
L 222.197053 144.021336 
L 222.583742 144.660866 
L 222.95804 145.290685 
L 222.963946 145.300395 
L 223.351113 145.939925 
L 223.73128 146.579454 
L 224.067001 147.154778 
L 224.105415 147.218983 
L 224.485408 147.858513 
L 224.858197 148.498042 
L 225.175961 149.058005 
L 225.222346 149.137572 
L 225.595102 149.777101 
L 225.960794 150.416631 
L 226.284922 150.993324 
L 226.321217 151.05616 
L 226.686305 151.695689 
L 227.043235 152.335219 
L 227.392776 152.974748 
L 227.393882 152.976793 
L 227.748329 153.614278 
L 228.095273 154.253807 
L 228.434786 154.893336 
L 228.502843 155.02344 
L 228.777035 155.532866 
L 229.113035 156.172395 
L 229.440798 156.811925 
L 229.611803 157.152309 
L 229.766595 157.451454 
L 230.091236 158.090983 
L 230.406506 158.730513 
L 230.714241 159.370042 
L 230.720764 159.383847 
L 231.025416 160.009572 
L 231.329107 160.649101 
L 231.624252 161.288631 
L 231.829724 161.745153 
L 231.914693 161.92816 
L 232.204352 162.567689 
L 232.48607 163.207219 
L 232.759893 163.846748 
L 232.938685 164.276484 
L 233.028801 164.486278 
L 233.297042 165.125807 
L 233.559156 165.765336 
L 233.813033 166.404866 
L 234.047645 167.014005 
L 234.059735 167.044395 
L 234.306741 167.683925 
L 234.545864 168.323454 
L 234.776406 168.962983 
L 234.999555 169.602513 
L 235.156606 170.067133 
L 235.217717 170.242042 
L 235.432278 170.881572 
L 235.638848 171.521101 
L 235.839943 172.160631 
L 236.139955 172.80016 
L 236.265566 173.225339 
L 236.331054 173.439689 
L 236.51636 174.079219 
L 237.374527 174.079219 
L 238.483487 174.079219 
L 239.592448 174.079219 
L 240.701408 174.079219 
L 241.810369 174.079219 
L 242.919329 174.079219 
L 244.02829 174.079219 
L 245.13725 174.079219 
L 246.246211 174.079219 
L 247.355171 174.079219 
L 248.464132 174.079219 
L 249.573092 174.079219 
L 250.682052 174.079219 
L 251.791013 174.079219 
L 252.899973 174.079219 
L 254.008934 174.079219 
L 255.117894 174.079219 
L 256.226855 174.079219 
L 257.335815 174.079219 
L 257.420149 174.079219 
L 257.335815 173.883862 
L 257.158215 173.439689 
L 256.89726 172.80016 
L 256.619961 172.160631 
L 256.342061 171.521101 
L 256.226855 171.258054 
L 256.074132 170.881572 
L 255.809612 170.242042 
L 255.537066 169.602513 
L 255.255988 168.962983 
L 255.117894 168.654613 
L 254.980503 168.323454 
L 254.710821 167.683925 
L 254.431817 167.044395 
L 254.143349 166.404866 
L 254.008934 166.112734 
L 253.860761 165.765336 
L 253.580853 165.125807 
L 253.292263 164.486278 
L 252.99317 163.846748 
L 252.899973 163.650893 
L 252.704102 163.207219 
L 252.413904 162.567689 
L 252.112601 161.92816 
L 251.799566 161.288631 
L 251.791013 161.271348 
L 251.504993 160.649101 
L 251.199667 160.009572 
L 250.882029 159.370042 
L 250.682052 158.979035 
L 250.563815 158.730513 
L 250.252754 158.090983 
L 249.928507 157.451454 
L 249.590564 156.811925 
L 249.573092 156.779266 
L 249.270699 156.172395 
L 248.938294 155.532866 
L 248.590996 154.893336 
L 248.464132 154.665071 
L 248.250907 154.253807 
L 247.908457 153.614278 
L 247.550246 152.974748 
L 247.355171 152.636562 
L 247.192801 152.335219 
L 246.83863 151.695689 
L 246.467839 151.05616 
L 246.246211 150.685962 
L 246.095418 150.416631 
L 245.728057 149.777101 
L 245.343343 149.137572 
L 245.13725 148.805063 
L 244.959156 148.498042 
L 244.577364 147.858513 
L 244.177032 147.218983 
L 244.02829 146.986982 
L 243.783643 146.579454 
L 243.38633 145.939925 
L 242.969531 145.300395 
L 242.919329 145.224457 
L 242.570436 144.660866 
L 242.157138 144.021336 
L 241.810369 143.506082 
L 241.732029 143.381807 
L 241.322293 142.742278 
L 240.8927 142.102748 
L 240.701408 141.825154 
L 240.467957 141.463219 
L 240.042948 140.823689 
L 239.597386 140.18416 
L 239.592448 140.177129 
L 239.1771 139.544631 
L 238.737446 138.905101 
L 238.483487 138.546361 
L 238.297725 138.265572 
L 237.864633 137.626042 
L 237.41119 136.986513 
L 237.374527 136.935286 
L 236.981619 136.346983 
L 236.536103 135.707454 
L 236.265566 135.329581 
L 236.090867 135.067925 
L 235.654126 134.428395 
L 235.197125 133.788866 
L 235.156606 133.732643 
L 234.765035 133.149336 
L 234.317642 132.509807 
L 234.047645 132.134716 
L 233.870364 131.870278 
L 233.432616 131.230748 
L 232.974404 130.591219 
L 232.938685 130.54175 
L 232.542053 129.951689 
L 232.093578 129.31216 
L 231.829724 128.95347 
L 231.637268 128.672631 
L 231.200464 128.033101 
L 230.745989 127.393572 
L 230.720764 127.360444 
L 230.289796 126.754042 
L 229.8462 126.114513 
L 229.611803 125.791726 
L 229.396897 125.474983 
L 228.958776 124.835454 
L 228.502843 124.23312 
L 228.476456 124.195925 
L 228.018145 123.556395 
L 227.554572 122.916866 
L 227.393882 122.713088 
L 227.069599 122.277336 
L 226.582112 121.637807 
L 226.284922 121.245829 
L 226.107653 120.998278 
L 225.63644 120.358748 
L 225.175961 119.761109 
L 225.145317 119.719219 
L 224.644468 119.079689 
L 224.120728 118.44016 
L 224.067001 118.380707 
L 223.562948 117.800631 
L 222.968887 117.161101 
L 222.95804 117.148622 
L 222.433095 116.521572 
L 221.84908 115.900454 
L 221.832274 115.882042 
L 221.275214 115.242513 
L 220.740119 114.641787 
L 220.706392 114.602983 
L 220.129025 113.963454 
L 219.631159 113.458171 
L 219.500535 113.323925 
L 218.880954 112.684395 
L 218.522198 112.333585 
L 218.228839 112.044866 
L 217.568289 111.405336 
L 217.413238 111.268414 
L 216.840118 110.765807 
L 216.304277 110.300697 
L 216.10012 110.126278 
L 215.234491 109.486748 
L 215.195317 109.455032 
L 214.426599 108.847219 
L 214.086356 108.588534 
L 213.568452 108.207689 
L 212.977396 107.773403 
L 212.686193 107.56816 
L 211.868435 107.015972 
L 211.732045 106.928631 
L 210.759475 106.320535 
L 210.70593 106.289101 
L 209.650514 105.744261 
L 209.451566 105.649572 
L 208.541554 105.17299 
L 208.201406 105.010042 
L 207.432593 104.632161 
L 206.847714 104.370513 
L 206.323633 104.129753 
L 205.359216 103.730983 
L 205.214672 103.669723 
L 204.105712 103.244365 
L 203.655188 103.091454 
L 202.996751 102.868248 
L 201.887791 102.540837 
L 201.540406 102.451925 
L 200.77883 102.257065 
L 199.66987 102.015105 
L 198.56091 101.813334 
L 198.554632 101.812395 
L 197.451949 101.628541 
L 196.342989 101.483373 
L 195.234028 101.375886 
L 194.125068 101.304621 
L 193.016107 101.268669 
L 191.907147 101.267639 
L 190.798186 101.301625 
L 189.689226 101.371198 
L 188.580265 101.47739 
L 187.471305 101.6217 
L 186.362344 101.806105 
L 186.33042 101.812395 
L 185.253384 102.013648 
L 184.144423 102.263407 
L 183.426256 102.451925 
L 183.035463 102.553032 
L 181.926502 102.877759 
L 181.280798 103.091454 
L 180.817542 103.258386 
L 179.708581 103.705202 
L 179.64953 103.730983 
L 178.599621 104.197731 
L 178.244276 104.370513 
L 177.49066 104.744113 
L 176.994004 105.010042 
L 176.3817 105.31847 
L 175.770357 105.649572 
L 175.272739 105.936791 
L 174.69882 106.289101 
L 174.163779 106.657402 
L 173.787068 106.928631 
L 173.054818 107.483791 
L 172.947499 107.56816 
L 172.18799 108.207689 
L 171.945858 108.423608 
L 171.482515 108.847219 
L 170.855319 109.486748 
L 170.836897 109.504213 
L 170.193592 110.126278 
L 169.727937 110.590812 
L 169.554931 110.765807 
L 169.007959 111.405336 
L 168.618976 111.902483 
L 168.507413 112.044866 
L 168.04517 112.684395 
L 167.611935 113.323925 
L 167.510016 113.483847 
L 167.200345 113.963454 
L 166.806969 114.602983 
L 166.461706 115.242513 
L 166.401055 115.363202 
L 166.133821 115.882042 
L 165.82264 116.521572 
L 165.529055 117.161101 
L 165.292095 117.738235 
L 165.265574 117.800631 
L 164.999961 118.44016 
L 164.76243 119.079689 
L 164.550902 119.719219 
L 164.362832 120.358748 
L 164.186496 120.998278 
L 164.183134 121.011586 
L 164.016584 121.637807 
L 163.862099 122.277336 
L 163.666747 122.916866 
L 163.539369 123.556395 
L 163.425629 124.195925 
L 163.332173 124.835454 
L 163.242791 125.474983 
L 163.164284 126.114513 
L 163.097886 126.754042 
L 163.074174 127.059878 
L 163.046312 127.393572 
L 163.000919 128.033101 
L 162.954108 128.672631 
L 162.936018 129.31216 
L 162.901198 129.951689 
L 162.873852 130.591219 
L 162.858671 131.230748 
L 162.847162 131.870278 
L 162.854514 132.509807 
L 162.857891 133.149336 
L 162.868439 133.788866 
L 162.889007 134.428395 
L 162.918646 135.067925 
L 162.951165 135.707454 
L 162.99177 136.346983 
L 163.037404 136.986513 
L 163.074174 137.460788 
L 163.085679 137.626042 
L 163.14219 138.265572 
L 163.196718 138.905101 
L 163.260843 139.544631 
L 163.326146 140.18416 
L 163.415721 140.823689 
L 163.488704 141.463219 
L 163.568502 142.102748 
L 163.652154 142.742278 
L 163.7398 143.381807 
L 163.833082 144.021336 
L 163.927369 144.660866 
L 164.02432 145.300395 
L 164.126319 145.939925 
L 164.183134 146.281065 
L 164.227553 146.579454 
L 164.324831 147.218983 
L 164.429359 147.858513 
L 164.534368 148.498042 
L 164.655278 149.137572 
L 164.768214 149.777101 
L 164.887011 150.416631 
L 165.018906 151.05616 
L 165.136519 151.695689 
L 165.263971 152.335219 
L 165.292095 152.478693 
L 165.378626 152.974748 
L 165.498374 153.614278 
L 165.619996 154.253807 
L 165.737584 154.893336 
L 165.859163 155.532866 
L 165.987198 156.172395 
L 166.138639 156.811925 
L 166.270572 157.451454 
L 166.401055 158.073806 
L 166.404251 158.090983 
L 166.526906 158.730513 
L 166.658008 159.370042 
L 166.782876 160.009572 
L 166.910785 160.649101 
L 167.044041 161.288631 
L 167.181302 161.92816 
L 167.324203 162.567689 
L 167.464431 163.207219 
L 167.510016 163.411461 
L 167.596076 163.846748 
L 167.732448 164.486278 
L 167.876148 165.125807 
L 168.01325 165.765336 
L 168.153722 166.404866 
L 168.29602 167.044395 
L 168.445905 167.683925 
L 168.600826 168.323454 
L 168.618976 168.398117 
L 168.740734 168.962983 
L 168.885992 169.602513 
L 169.031454 170.242042 
L 169.185392 170.881572 
L 169.348468 171.521101 
L 169.507466 172.160631 
L 169.570677 172.80016 
L 169.727937 173.429426 
L 169.730215 173.439689 
L 169.881895 174.079219 
z
" style="fill:#99c5f8;fill-opacity:0.85;"/>
   </g>
   <g id="PathCollection_4">
    <path clip-path="url(#pc66cd09833)" d="M 186.362344 174.079219 
L 187.471305 174.079219 
L 188.580265 174.079219 
L 189.689226 174.079219 
L 190.798186 174.079219 
L 191.907147 174.079219 
L 193.016107 174.079219 
L 194.125068 174.079219 
L 195.234028 174.079219 
L 196.342989 174.079219 
L 197.451949 174.079219 
L 198.56091 174.079219 
L 199.66987 174.079219 
L 200.77883 174.079219 
L 201.887791 174.079219 
L 202.996751 174.079219 
L 204.105712 174.079219 
L 205.214672 174.079219 
L 206.323633 174.079219 
L 207.432593 174.079219 
L 208.541554 174.079219 
L 209.650514 174.079219 
L 210.759475 174.079219 
L 211.868435 174.079219 
L 212.977396 174.079219 
L 214.086356 174.079219 
L 215.195317 174.079219 
L 216.304277 174.079219 
L 217.413238 174.079219 
L 218.522198 174.079219 
L 219.631159 174.079219 
L 220.740119 174.079219 
L 221.84908 174.079219 
L 222.95804 174.079219 
L 224.067001 174.079219 
L 225.175961 174.079219 
L 226.284922 174.079219 
L 227.393882 174.079219 
L 228.502843 174.079219 
L 229.611803 174.079219 
L 230.720764 174.079219 
L 231.829724 174.079219 
L 232.938685 174.079219 
L 234.047645 174.079219 
L 235.156606 174.079219 
L 236.265566 174.079219 
L 236.51636 174.079219 
L 236.331054 173.439689 
L 236.265566 173.225339 
L 236.139955 172.80016 
L 235.839943 172.160631 
L 235.638848 171.521101 
L 235.432278 170.881572 
L 235.217717 170.242042 
L 235.156606 170.067133 
L 234.999555 169.602513 
L 234.776406 168.962983 
L 234.545864 168.323454 
L 234.306741 167.683925 
L 234.059735 167.044395 
L 234.047645 167.014005 
L 233.813033 166.404866 
L 233.559156 165.765336 
L 233.297042 165.125807 
L 233.028801 164.486278 
L 232.938685 164.276484 
L 232.759893 163.846748 
L 232.48607 163.207219 
L 232.204352 162.567689 
L 231.914693 161.92816 
L 231.829724 161.745153 
L 231.624252 161.288631 
L 231.329107 160.649101 
L 231.025416 160.009572 
L 230.720764 159.383847 
L 230.714241 159.370042 
L 230.406506 158.730513 
L 230.091236 158.090983 
L 229.766595 157.451454 
L 229.611803 157.152309 
L 229.440798 156.811925 
L 229.113035 156.172395 
L 228.777035 155.532866 
L 228.502843 155.02344 
L 228.434786 154.893336 
L 228.095273 154.253807 
L 227.748329 153.614278 
L 227.393882 152.976793 
L 227.392776 152.974748 
L 227.043235 152.335219 
L 226.686305 151.695689 
L 226.321217 151.05616 
L 226.284922 150.993324 
L 225.960794 150.416631 
L 225.595102 149.777101 
L 225.222346 149.137572 
L 225.175961 149.058005 
L 224.858197 148.498042 
L 224.485408 147.858513 
L 224.105415 147.218983 
L 224.067001 147.154778 
L 223.73128 146.579454 
L 223.351113 145.939925 
L 222.963946 145.300395 
L 222.95804 145.290685 
L 222.583742 144.660866 
L 222.197053 144.021336 
L 221.84908 143.455556 
L 221.80461 143.381807 
L 221.416703 142.742278 
L 221.022451 142.102748 
L 220.740119 141.651487 
L 220.624279 141.463219 
L 220.227623 140.823689 
L 219.824145 140.18416 
L 219.631159 139.881788 
L 219.418714 139.544631 
L 219.011224 138.905101 
L 218.595398 138.265572 
L 218.522198 138.153783 
L 218.179414 137.626042 
L 217.756419 136.986513 
L 217.413238 136.477115 
L 217.325709 136.346983 
L 216.891191 135.707454 
L 216.447709 135.067925 
L 216.304277 134.864186 
L 215.995859 134.428395 
L 215.53492 133.788866 
L 215.195317 133.328151 
L 215.061696 133.149336 
L 214.576755 132.509807 
L 214.086356 131.880602 
L 214.078122 131.870278 
L 213.562221 131.230748 
L 213.030966 130.591219 
L 212.977396 130.52773 
L 212.474828 129.951689 
L 211.900265 129.31216 
L 211.868435 129.276715 
L 211.30166 128.672631 
L 210.759475 128.100382 
L 210.69201 128.033101 
L 210.03754 127.393572 
L 209.650514 127.038409 
L 209.317715 126.754042 
L 208.573785 126.114513 
L 208.541554 126.087856 
L 207.731875 125.474983 
L 207.432593 125.247596 
L 206.829065 124.835454 
L 206.323633 124.498374 
L 205.808414 124.195925 
L 205.214672 123.860518 
L 204.585863 123.556395 
L 204.105712 123.324295 
L 203.087045 122.916866 
L 202.996751 122.885629 
L 201.887791 122.582748 
L 200.77883 122.362981 
L 200.09619 122.277336 
L 199.66987 122.213729 
L 198.56091 122.141732 
L 197.451949 122.164045 
L 196.398612 122.277336 
L 196.342989 122.282381 
L 195.234028 122.463333 
L 194.125068 122.729402 
L 193.532047 122.916866 
L 193.016107 123.121232 
L 192.135869 123.556395 
L 191.907147 123.674455 
L 191.05728 124.195925 
L 190.798186 124.369428 
L 190.190703 124.835454 
L 189.689226 125.242941 
L 189.432975 125.474983 
L 188.754668 126.114513 
L 188.580265 126.29325 
L 188.166779 126.754042 
L 187.636059 127.393572 
L 187.471305 127.610721 
L 187.170261 128.033101 
L 186.743793 128.672631 
L 186.362344 129.311405 
L 186.361913 129.31216 
L 185.983388 129.951689 
L 185.632963 130.591219 
L 185.314205 131.230748 
L 185.253384 131.359377 
L 185.018222 131.870278 
L 184.747092 132.509807 
L 184.495644 133.149336 
L 184.264616 133.788866 
L 184.144423 134.152388 
L 184.054119 134.428395 
L 183.8602 135.067925 
L 183.681153 135.707454 
L 183.518397 136.346983 
L 183.368265 136.986513 
L 183.23068 137.626042 
L 183.11458 138.265572 
L 183.035463 138.705857 
L 182.999377 138.905101 
L 182.896873 139.544631 
L 182.803158 140.18416 
L 182.72725 140.823689 
L 182.649869 141.463219 
L 182.58298 142.102748 
L 182.524675 142.742278 
L 182.473661 143.381807 
L 182.429545 144.021336 
L 182.391816 144.660866 
L 182.360346 145.300395 
L 182.334749 145.939925 
L 182.315229 146.579454 
L 182.300939 147.218983 
L 182.295518 147.858513 
L 182.292326 148.498042 
L 182.316249 149.137572 
L 182.323243 149.777101 
L 182.333244 150.416631 
L 182.34882 151.05616 
L 182.36432 151.695689 
L 182.389713 152.335219 
L 182.413453 152.974748 
L 182.445174 153.614278 
L 182.482968 154.253807 
L 182.517603 154.893336 
L 182.557702 155.532866 
L 182.603388 156.172395 
L 182.658481 156.811925 
L 182.709534 157.451454 
L 182.764684 158.090983 
L 182.827221 158.730513 
L 182.903983 159.370042 
L 182.971636 160.009572 
L 183.035463 160.583629 
L 183.04243 160.649101 
L 183.116115 161.288631 
L 183.195736 161.92816 
L 183.283464 162.567689 
L 183.370266 163.207219 
L 183.462239 163.846748 
L 183.565864 164.486278 
L 183.676348 165.125807 
L 183.792698 165.765336 
L 183.906937 166.404866 
L 184.024712 167.044395 
L 184.144423 167.653893 
L 184.150111 167.683925 
L 184.278307 168.323454 
L 184.41486 168.962983 
L 184.564074 169.602513 
L 184.716366 170.242042 
L 184.881052 170.881572 
L 185.058993 171.521101 
L 185.237655 172.160631 
L 185.191365 172.80016 
L 185.253384 173.026605 
L 185.363502 173.439689 
L 185.554816 174.079219 
z
" style="fill:#006fed;fill-opacity:0.85;"/>
   </g>
   <g id="patch_3">
    <path clip-path="url(#pc66cd09833)" d="M 163.778125 337.159219 
L 163.778125 10.999219 
L 275.378125 10.999219 
L 275.378125 337.159219 
z
" style="fill:#808080;opacity:0.1;stroke:#808080;stroke-linejoin:miter;"/>
   </g>
   <g id="patch_4">
    <path clip-path="url(#pc66cd09833)" d="M 191.678125 337.159219 
L 191.678125 10.999219 
L 247.478125 10.999219 
L 247.478125 337.159219 
z
" style="fill:#808080;opacity:0.15;stroke:#808080;stroke-linejoin:miter;"/>
   </g>
   <g id="matplotlib.axis_1">
    <g id="xtick_1">
     <g id="line2d_1">
      <defs>
       <path d="M 0 0 
L 0 3.5 
" id="mce5c2a2674" style="stroke:#000000;stroke-width:0.8;"/>
      </defs>
      <g>
       <use style="stroke:#000000;stroke-width:0.8;" x="52.178125" xlink:href="#mce5c2a2674" y="337.159219"/>
      </g>
     </g>
     <g id="text_1">
      <!-- 3.0 -->
      <defs>
       <path d="M 10.59375 35.5 
L 73.1875 35.5 
L 73.1875 27.203125 
L 10.59375 27.203125 
z
" id="DejaVuSans-8722"/>
       <path d="M 40.578125 39.3125 
Q 47.65625 37.796875 51.625 33 
Q 55.609375 28.21875 55.609375 21.1875 
Q 55.609375 10.40625 48.1875 4.484375 
Q 40.765625 -1.421875 27.09375 -1.421875 
Q 22.515625 -1.421875 17.65625 -0.515625 
Q 12.796875 0.390625 7.625 2.203125 
L 7.625 11.71875 
Q 11.71875 9.328125 16.59375 8.109375 
Q 21.484375 6.890625 26.8125 6.890625 
Q 36.078125 6.890625 40.9375 10.546875 
Q 45.796875 14.203125 45.796875 21.1875 
Q 45.796875 27.640625 41.28125 31.265625 
Q 36.765625 34.90625 28.71875 34.90625 
L 20.21875 34.90625 
L 20.21875 43.015625 
L 29.109375 43.015625 
Q 36.375 43.015625 40.234375 45.921875 
Q 44.09375 48.828125 44.09375 54.296875 
Q 44.09375 59.90625 40.109375 62.90625 
Q 36.140625 65.921875 28.71875 65.921875 
Q 24.65625 65.921875 20.015625 65.03125 
Q 15.375 64.15625 9.8125 62.3125 
L 9.8125 71.09375 
Q 15.4375 72.65625 20.34375 73.4375 
Q 25.25 74.21875 29.59375 74.21875 
Q 40.828125 74.21875 47.359375 69.109375 
Q 53.90625 64.015625 53.90625 55.328125 
Q 53.90625 49.265625 50.4375 45.09375 
Q 46.96875 40.921875 40.578125 39.3125 
z
" id="DejaVuSans-51"/>
       <path d="M 10.6875 12.40625 
L 21 12.40625 
L 21 0 
L 10.6875 0 
z
" id="DejaVuSans-46"/>
       <path d="M 31.78125 66.40625 
Q 24.171875 66.40625 20.328125 58.90625 
Q 16.5 51.421875 16.5 36.375 
Q 16.5 21.390625 20.328125 13.890625 
Q 24.171875 6.390625 31.78125 6.390625 
Q 39.453125 6.390625 43.28125 13.890625 
Q 47.125 21.390625 47.125 36.375 
Q 47.125 51.421875 43.28125 58.90625 
Q 39.453125 66.40625 31.78125 66.40625 
z
M 31.78125 74.21875 
Q 44.046875 74.21875 50.515625 64.515625 
Q 56.984375 54.828125 56.984375 36.375 
Q 56.984375 17.96875 50.515625 8.265625 
Q 44.046875 -1.421875 31.78125 -1.421875 
Q 19.53125 -1.421875 13.0625 8.265625 
Q 6.59375 17.96875 6.59375 36.375 
Q 6.59375 54.828125 13.0625 64.515625 
Q 19.53125 74.21875 31.78125 74.21875 
z
" id="DejaVuSans-48"/>
      </defs>
      <g transform="translate(40.036719 351.757656)scale(0.1 -0.1)">
       <use xlink:href="#DejaVuSans-8722"/>
       <use x="83.789062" xlink:href="#DejaVuSans-51"/>
       <use x="147.412109" xlink:href="#DejaVuSans-46"/>
       <use x="179.199219" xlink:href="#DejaVuSans-48"/>
      </g>
     </g>
    </g>
    <g id="xtick_2">
     <g id="line2d_2">
      <g>
       <use style="stroke:#000000;stroke-width:0.8;" x="135.878125" xlink:href="#mce5c2a2674" y="337.159219"/>
      </g>
     </g>
     <g id="text_2">
      <!-- 1.5 -->
      <defs>
       <path d="M 12.40625 8.296875 
L 28.515625 8.296875 
L 28.515625 63.921875 
L 10.984375 60.40625 
L 10.984375 69.390625 
L 28.421875 72.90625 
L 38.28125 72.90625 
L 38.28125 8.296875 
L 54.390625 8.296875 
L 54.390625 0 
L 12.40625 0 
z
" id="DejaVuSans-49"/>
       <path d="M 10.796875 72.90625 
L 49.515625 72.90625 
L 49.515625 64.59375 
L 19.828125 64.59375 
L 19.828125 46.734375 
Q 21.96875 47.46875 24.109375 47.828125 
Q 26.265625 48.1875 28.421875 48.1875 
Q 40.625 48.1875 47.75 41.5 
Q 54.890625 34.8125 54.890625 23.390625 
Q 54.890625 11.625 47.5625 5.09375 
Q 40.234375 -1.421875 26.90625 -1.421875 
Q 22.3125 -1.421875 17.546875 -0.640625 
Q 12.796875 0.140625 7.71875 1.703125 
L 7.71875 11.625 
Q 12.109375 9.234375 16.796875 8.0625 
Q 21.484375 6.890625 26.703125 6.890625 
Q 35.15625 6.890625 40.078125 11.328125 
Q 45.015625 15.765625 45.015625 23.390625 
Q 45.015625 31 40.078125 35.4375 
Q 35.15625 39.890625 26.703125 39.890625 
Q 22.75 39.890625 18.8125 39.015625 
Q 14.890625 38.140625 10.796875 36.28125 
z
" id="DejaVuSans-53"/>
      </defs>
      <g transform="translate(123.736719 351.757656)scale(0.1 -0.1)">
       <use xlink:href="#DejaVuSans-8722"/>
       <use x="83.789062" xlink:href="#DejaVuSans-49"/>
       <use x="147.412109" xlink:href="#DejaVuSans-46"/>
       <use x="179.199219" xlink:href="#DejaVuSans-53"/>
      </g>
     </g>
    </g>
    <g id="xtick_3">
     <g id="line2d_3">
      <g>
       <use style="stroke:#000000;stroke-width:0.8;" x="219.578125" xlink:href="#mce5c2a2674" y="337.159219"/>
      </g>
     </g>
     <g id="text_3">
      <!-- 0.0 -->
      <g transform="translate(211.626563 351.757656)scale(0.1 -0.1)">
       <use xlink:href="#DejaVuSans-48"/>
       <use x="63.623047" xlink:href="#DejaVuSans-46"/>
       <use x="95.410156" xlink:href="#DejaVuSans-48"/>
      </g>
     </g>
    </g>
    <g id="xtick_4">
     <g id="line2d_4">
      <g>
       <use style="stroke:#000000;stroke-width:0.8;" x="303.278125" xlink:href="#mce5c2a2674" y="337.159219"/>
      </g>
     </g>
     <g id="text_4">
      <!-- 1.5 -->
      <g transform="translate(295.326562 351.757656)scale(0.1 -0.1)">
       <use xlink:href="#DejaVuSans-49"/>
       <use x="63.623047" xlink:href="#DejaVuSans-46"/>
       <use x="95.410156" xlink:href="#DejaVuSans-53"/>
      </g>
     </g>
    </g>
    <g id="xtick_5">
     <g id="line2d_5">
      <g>
       <use style="stroke:#000000;stroke-width:0.8;" x="386.978125" xlink:href="#mce5c2a2674" y="337.159219"/>
      </g>
     </g>
     <g id="text_5">
      <!-- 3.0 -->
      <g transform="translate(379.026562 351.757656)scale(0.1 -0.1)">
       <use xlink:href="#DejaVuSans-51"/>
       <use x="63.623047" xlink:href="#DejaVuSans-46"/>
       <use x="95.410156" xlink:href="#DejaVuSans-48"/>
      </g>
     </g>
    </g>
    <g id="text_6">
     <!-- $x$ -->
     <defs>
      <path d="M 60.015625 54.6875 
L 34.90625 27.875 
L 50.296875 0 
L 39.984375 0 
L 28.421875 21.6875 
L 8.296875 0 
L -2.59375 0 
L 24.3125 28.8125 
L 10.015625 54.6875 
L 20.3125 54.6875 
L 30.8125 34.90625 
L 49.125 54.6875 
z
" id="DejaVuSans-Oblique-120"/>
     </defs>
     <g transform="translate(216.578125 367.837344)scale(0.1 -0.1)">
      <use transform="translate(0 0.3125)" xlink:href="#DejaVuSans-Oblique-120"/>
     </g>
    </g>
   </g>
   <g id="matplotlib.axis_2">
    <g id="ytick_1">
     <g id="line2d_6">
      <defs>
       <path d="M 0 0 
L -3.5 0 
" id="m0aaa972362" style="stroke:#000000;stroke-width:0.8;"/>
      </defs>
      <g>
       <use style="stroke:#000000;stroke-width:0.8;" x="52.178125" xlink:href="#m0aaa972362" y="337.159219"/>
      </g>
     </g>
     <g id="text_7">
      <!-- $-3$ -->
      <g transform="translate(30.378125 340.958437)scale(0.1 -0.1)">
       <use transform="translate(0 0.78125)" xlink:href="#DejaVuSans-8722"/>
       <use transform="translate(83.789062 0.78125)" xlink:href="#DejaVuSans-51"/>
      </g>
     </g>
    </g>
    <g id="ytick_2">
     <g id="line2d_7">
      <g>
       <use style="stroke:#000000;stroke-width:0.8;" x="52.178125" xlink:href="#m0aaa972362" y="255.619219"/>
      </g>
     </g>
     <g id="text_8">
      <!-- $-1.5$ -->
      <g transform="translate(20.878125 259.418437)scale(0.1 -0.1)">
       <use transform="translate(0 0.09375)" xlink:href="#DejaVuSans-8722"/>
       <use transform="translate(83.789062 0.09375)" xlink:href="#DejaVuSans-49"/>
       <use transform="translate(147.412109 0.09375)" xlink:href="#DejaVuSans-46"/>
       <use transform="translate(179.199219 0.09375)" xlink:href="#DejaVuSans-53"/>
      </g>
     </g>
    </g>
    <g id="ytick_3">
     <g id="line2d_8">
      <g>
       <use style="stroke:#000000;stroke-width:0.8;" x="52.178125" xlink:href="#m0aaa972362" y="174.079219"/>
      </g>
     </g>
     <g id="text_9">
      <!-- $0$ -->
      <g transform="translate(38.778125 177.878437)scale(0.1 -0.1)">
       <use transform="translate(0 0.78125)" xlink:href="#DejaVuSans-48"/>
      </g>
     </g>
    </g>
    <g id="ytick_4">
     <g id="line2d_9">
      <g>
       <use style="stroke:#000000;stroke-width:0.8;" x="52.178125" xlink:href="#m0aaa972362" y="92.539219"/>
      </g>
     </g>
     <g id="text_10">
      <!-- $1.5$ -->
      <g transform="translate(29.178125 96.338437)scale(0.1 -0.1)">
       <use transform="translate(0 0.09375)" xlink:href="#DejaVuSans-49"/>
       <use transform="translate(63.623047 0.09375)" xlink:href="#DejaVuSans-46"/>
       <use transform="translate(95.410156 0.09375)" xlink:href="#DejaVuSans-53"/>
      </g>
     </g>
    </g>
    <g id="ytick_5">
     <g id="line2d_10">
      <g>
       <use style="stroke:#000000;stroke-width:0.8;" x="52.178125" xlink:href="#m0aaa972362" y="10.999219"/>
      </g>
     </g>
     <g id="text_11">
      <!-- $3$ -->
      <g transform="translate(38.778125 14.798437)scale(0.1 -0.1)">
       <use transform="translate(0 0.78125)" xlink:href="#DejaVuSans-51"/>
      </g>
     </g>
    </g>
    <g id="text_12">
     <!-- $y$ -->
     <defs>
      <path d="M 24.8125 -5.078125 
Q 18.5625 -15.578125 14.625 -18.1875 
Q 10.6875 -20.796875 4.59375 -20.796875 
L -2.484375 -20.796875 
L -0.984375 -13.28125 
L 4.203125 -13.28125 
Q 7.953125 -13.28125 10.59375 -11.234375 
Q 13.234375 -9.1875 16.5 -3.21875 
L 19.28125 2 
L 7.171875 54.6875 
L 16.703125 54.6875 
L 25.78125 12.796875 
L 50.875 54.6875 
L 60.296875 54.6875 
z
" id="DejaVuSans-Oblique-121"/>
     </defs>
     <g transform="translate(14.778125 177.079219)rotate(-90)scale(0.1 -0.1)">
      <use transform="translate(0 0.3125)" xlink:href="#DejaVuSans-Oblique-121"/>
     </g>
    </g>
   </g>
   <g id="LineCollection_1">
    <path clip-path="url(#pc66cd09833)" d="M 327.895772 301.393254 
L 330.521654 301.610223 
L 334.460478 301.521439 
L 337.08636 301.110955 
L 339.712243 300.389511 
L 343.385824 298.787454 
L 344.964007 297.846469 
L 346.276949 296.841662 
L 347.58989 295.573395 
L 349.213629 293.671219 
L 350.215772 292.059754 
L 351.253739 289.834042 
L 351.834292 288.554983 
L 352.45227 285.996866 
L 352.765186 284.717807 
L 353.028304 280.880631 
L 352.486409 277.043454 
L 351.284693 271.927219 
L 347.53011 259.136631 
L 345.33813 252.741336 
L 341.634934 243.787925 
L 339.372296 239.950748 
L 336.772591 236.113572 
L 329.023504 225.881101 
L 324.82268 219.485807 
L 322.515577 215.648631 
L 315.614362 204.137101 
L 312.140478 199.003672 
L 310.222475 196.462748 
L 301.636949 185.941911 
L 297.626943 181.114042 
L 293.479481 175.997807 
L 284.499524 165.765336 
L 280.94728 161.92816 
L 278.004007 158.933812 
L 271.439301 152.612547 
L 267.844509 149.137572 
L 263.561654 144.779056 
L 257.905708 138.905101 
L 252.750152 133.788866 
L 243.815087 126.114513 
L 239.928713 122.978663 
L 234.086336 118.44016 
L 230.738125 115.729974 
L 227.854983 113.323925 
L 222.860478 108.965646 
L 218.921654 105.185668 
L 211.750989 97.975219 
L 208.418125 94.894497 
L 204.441446 91.579925 
L 197.914596 86.901932 
L 192.662831 83.42564 
L 184.785184 78.455335 
L 180.84636 76.146761 
L 176.691812 73.673101 
L 162.465184 65.724678 
L 154.587537 60.788066 
L 149.335772 57.388611 
L 142.481369 53.20816 
L 139.924378 51.929101 
L 137.137124 50.650042 
L 132.267537 48.64877 
L 128.328713 47.315795 
L 119.138125 44.763005 
L 115.199301 43.933122 
L 109.947537 43.201725 
L 107.321654 43.049001 
L 103.382831 42.978984 
L 100.756949 43.313366 
L 99.444007 43.677885 
L 98.131066 43.868924 
L 95.505184 44.527432 
L 91.56636 46.135639 
L 90.253419 47.016094 
L 87.369516 49.370983 
L 86.243721 50.650042 
L 85.001654 52.583694 
L 84.67915 53.20816 
L 84.196555 54.487219 
L 83.583443 57.045336 
L 83.155495 59.603454 
L 82.901675 62.161572 
L 83.12846 64.719689 
L 84.029031 68.556866 
L 85.001654 71.566301 
L 85.857202 73.673101 
L 87.059266 76.231219 
L 90.509083 82.626513 
L 95.905746 91.579925 
L 99.444007 97.292036 
L 100.756949 99.429757 
L 103.382831 103.37619 
L 107.321654 110.488084 
L 108.667262 113.323925 
L 109.644924 115.882042 
L 110.6979 118.44016 
L 115.575932 129.951689 
L 117.476072 133.788866 
L 120.451066 139.157094 
L 121.906013 141.463219 
L 124.755644 145.300395 
L 128.328713 149.710632 
L 131.18293 152.974748 
L 136.20636 158.434083 
L 148.710284 172.160631 
L 152.098701 175.997807 
L 158.71273 183.67216 
L 167.39104 193.904631 
L 171.655772 198.788173 
L 175.594596 203.067043 
L 189.021096 216.927689 
L 192.986963 220.764866 
L 197.249799 224.602042 
L 204.479301 230.611874 
L 213.66989 237.496614 
L 224.516448 245.066983 
L 232.051066 250.618432 
L 236.455538 254.020395 
L 241.241654 258.016074 
L 252.367518 268.090042 
L 256.996949 271.970563 
L 260.221418 274.485336 
L 262.248713 275.937885 
L 265.958031 278.322513 
L 268.813419 280.003262 
L 271.439301 281.403702 
L 279.316949 285.088403 
L 285.146624 287.275925 
L 291.133419 289.246477 
L 299.011066 291.837851 
L 309.514596 295.977115 
L 314.76636 298.135215 
L 320.618335 300.066513 
L 326.582831 301.300487 
L 327.895772 301.393254 
L 327.895772 301.393254 
" style="fill:none;stroke:#e03424;stroke-opacity:0.5;stroke-width:0.4;"/>
   </g>
   <g id="LineCollection_2">
    <path clip-path="url(#pc66cd09833)" d="M 257.420149 174.079219 
L 251.504993 160.649101 
L 249.270699 156.172395 
L 246.83863 151.695689 
L 243.38633 145.939925 
L 237.864633 137.626042 
L 231.637268 128.672631 
L 228.018145 123.556395 
L 224.644468 119.079689 
L 222.433095 116.521572 
L 217.413238 111.268414 
L 215.195317 109.455032 
L 212.686193 107.56816 
L 210.70593 106.289101 
L 206.323633 104.129753 
L 202.996751 102.868248 
L 200.77883 102.257065 
L 197.451949 101.628541 
L 194.125068 101.304621 
L 190.798186 101.301625 
L 188.580265 101.47739 
L 185.253384 102.013648 
L 183.035463 102.553032 
L 180.817542 103.258386 
L 178.244276 104.370513 
L 175.272739 105.936791 
L 173.787068 106.928631 
L 171.945858 108.423608 
L 169.727937 110.590812 
L 169.007959 111.405336 
L 167.510016 113.483847 
L 166.401055 115.363202 
L 165.265574 117.800631 
L 164.550902 119.719219 
L 163.666747 122.916866 
L 163.242791 125.474983 
L 162.954108 128.672631 
L 162.889007 134.428395 
L 163.196718 138.905101 
L 163.7398 143.381807 
L 164.768214 149.777101 
L 166.658008 159.370042 
L 168.01325 165.765336 
L 169.881895 174.079219 
L 169.881895 174.079219 
" style="fill:none;stroke:#006fed;stroke-opacity:0.425;stroke-width:0.4;"/>
   </g>
   <g id="patch_5">
    <path d="M 52.178125 337.159219 
L 52.178125 10.999219 
" style="fill:none;stroke:#000000;stroke-linecap:square;stroke-linejoin:miter;stroke-width:0.8;"/>
   </g>
   <g id="patch_6">
    <path d="M 386.978125 337.159219 
L 386.978125 10.999219 
" style="fill:none;stroke:#000000;stroke-linecap:square;stroke-linejoin:miter;stroke-width:0.8;"/>
   </g>
   <g id="patch_7">
    <path d="M 52.178125 337.159219 
L 386.978125 337.159219 
" style="fill:none;stroke:#000000;stroke-linecap:square;stroke-linejoin:miter;stroke-width:0.8;"/>
   </g>
   <g id="patch_8">
    <path d="M 52.178125 10.999219 
L 386.978125 10.999219 
" style="fill:none;stroke:#000000;stroke-linecap:square;stroke-linejoin:miter;stroke-width:0.8;"/>
   </g>
   <g id="legend_1">
    <g id="text_13">
     <!-- Gaussian -->
     <defs>
      <path d="M 59.515625 10.40625 
L 59.515625 29.984375 
L 43.40625 29.984375 
L 43.40625 38.09375 
L 69.28125 38.09375 
L 69.28125 6.78125 
Q 63.578125 2.734375 56.6875 0.65625 
Q 49.8125 -1.421875 42 -1.421875 
Q 24.90625 -1.421875 15.25 8.5625 
Q 5.609375 18.5625 5.609375 36.375 
Q 5.609375 54.25 15.25 64.234375 
Q 24.90625 74.21875 42 74.21875 
Q 49.125 74.21875 55.546875 72.453125 
Q 61.96875 70.703125 67.390625 67.28125 
L 67.390625 56.78125 
Q 61.921875 61.421875 55.765625 63.765625 
Q 49.609375 66.109375 42.828125 66.109375 
Q 29.4375 66.109375 22.71875 58.640625 
Q 16.015625 51.171875 16.015625 36.375 
Q 16.015625 21.625 22.71875 14.15625 
Q 29.4375 6.6875 42.828125 6.6875 
Q 48.046875 6.6875 52.140625 7.59375 
Q 56.25 8.5 59.515625 10.40625 
z
" id="DejaVuSans-71"/>
      <path d="M 34.28125 27.484375 
Q 23.390625 27.484375 19.1875 25 
Q 14.984375 22.515625 14.984375 16.5 
Q 14.984375 11.71875 18.140625 8.90625 
Q 21.296875 6.109375 26.703125 6.109375 
Q 34.1875 6.109375 38.703125 11.40625 
Q 43.21875 16.703125 43.21875 25.484375 
L 43.21875 27.484375 
z
M 52.203125 31.203125 
L 52.203125 0 
L 43.21875 0 
L 43.21875 8.296875 
Q 40.140625 3.328125 35.546875 0.953125 
Q 30.953125 -1.421875 24.3125 -1.421875 
Q 15.921875 -1.421875 10.953125 3.296875 
Q 6 8.015625 6 15.921875 
Q 6 25.140625 12.171875 29.828125 
Q 18.359375 34.515625 30.609375 34.515625 
L 43.21875 34.515625 
L 43.21875 35.40625 
Q 43.21875 41.609375 39.140625 45 
Q 35.0625 48.390625 27.6875 48.390625 
Q 23 48.390625 18.546875 47.265625 
Q 14.109375 46.140625 10.015625 43.890625 
L 10.015625 52.203125 
Q 14.9375 54.109375 19.578125 55.046875 
Q 24.21875 56 28.609375 56 
Q 40.484375 56 46.34375 49.84375 
Q 52.203125 43.703125 52.203125 31.203125 
z
" id="DejaVuSans-97"/>
      <path d="M 8.5 21.578125 
L 8.5 54.6875 
L 17.484375 54.6875 
L 17.484375 21.921875 
Q 17.484375 14.15625 20.5 10.265625 
Q 23.53125 6.390625 29.59375 6.390625 
Q 36.859375 6.390625 41.078125 11.03125 
Q 45.3125 15.671875 45.3125 23.6875 
L 45.3125 54.6875 
L 54.296875 54.6875 
L 54.296875 0 
L 45.3125 0 
L 45.3125 8.40625 
Q 42.046875 3.421875 37.71875 1 
Q 33.40625 -1.421875 27.6875 -1.421875 
Q 18.265625 -1.421875 13.375 4.4375 
Q 8.5 10.296875 8.5 21.578125 
z
M 31.109375 56 
z
" id="DejaVuSans-117"/>
      <path d="M 44.28125 53.078125 
L 44.28125 44.578125 
Q 40.484375 46.53125 36.375 47.5 
Q 32.28125 48.484375 27.875 48.484375 
Q 21.1875 48.484375 17.84375 46.4375 
Q 14.5 44.390625 14.5 40.28125 
Q 14.5 37.15625 16.890625 35.375 
Q 19.28125 33.59375 26.515625 31.984375 
L 29.59375 31.296875 
Q 39.15625 29.25 43.1875 25.515625 
Q 47.21875 21.78125 47.21875 15.09375 
Q 47.21875 7.46875 41.1875 3.015625 
Q 35.15625 -1.421875 24.609375 -1.421875 
Q 20.21875 -1.421875 15.453125 -0.5625 
Q 10.6875 0.296875 5.421875 2 
L 5.421875 11.28125 
Q 10.40625 8.6875 15.234375 7.390625 
Q 20.0625 6.109375 24.8125 6.109375 
Q 31.15625 6.109375 34.5625 8.28125 
Q 37.984375 10.453125 37.984375 14.40625 
Q 37.984375 18.0625 35.515625 20.015625 
Q 33.0625 21.96875 24.703125 23.78125 
L 21.578125 24.515625 
Q 13.234375 26.265625 9.515625 29.90625 
Q 5.8125 33.546875 5.8125 39.890625 
Q 5.8125 47.609375 11.28125 51.796875 
Q 16.75 56 26.8125 56 
Q 31.78125 56 36.171875 55.265625 
Q 40.578125 54.546875 44.28125 53.078125 
z
" id="DejaVuSans-115"/>
      <path d="M 9.421875 54.6875 
L 18.40625 54.6875 
L 18.40625 0 
L 9.421875 0 
z
M 9.421875 75.984375 
L 18.40625 75.984375 
L 18.40625 64.59375 
L 9.421875 64.59375 
z
" id="DejaVuSans-105"/>
      <path d="M 54.890625 33.015625 
L 54.890625 0 
L 45.90625 0 
L 45.90625 32.71875 
Q 45.90625 40.484375 42.875 44.328125 
Q 39.84375 48.1875 33.796875 48.1875 
Q 26.515625 48.1875 22.3125 43.546875 
Q 18.109375 38.921875 18.109375 30.90625 
L 18.109375 0 
L 9.078125 0 
L 9.078125 54.6875 
L 18.109375 54.6875 
L 18.109375 46.1875 
Q 21.34375 51.125 25.703125 53.5625 
Q 30.078125 56 35.796875 56 
Q 45.21875 56 50.046875 50.171875 
Q 54.890625 44.34375 54.890625 33.015625 
z
" id="DejaVuSans-110"/>
     </defs>
     <g style="fill:#e03424;" transform="translate(269.078125 27.597656)scale(0.1 -0.1)">
      <use xlink:href="#DejaVuSans-71"/>
      <use x="77.490234" xlink:href="#DejaVuSans-97"/>
      <use x="138.769531" xlink:href="#DejaVuSans-117"/>
      <use x="202.148438" xlink:href="#DejaVuSans-115"/>
      <use x="254.248047" xlink:href="#DejaVuSans-115"/>
      <use x="306.347656" xlink:href="#DejaVuSans-105"/>
      <use x="334.130859" xlink:href="#DejaVuSans-97"/>
      <use x="395.410156" xlink:href="#DejaVuSans-110"/>
     </g>
    </g>
    <g id="text_14">
     <!-- Post $y&gt;0$ and $x$-band -->
     <defs>
      <path d="M 19.671875 64.796875 
L 19.671875 37.40625 
L 32.078125 37.40625 
Q 38.96875 37.40625 42.71875 40.96875 
Q 46.484375 44.53125 46.484375 51.125 
Q 46.484375 57.671875 42.71875 61.234375 
Q 38.96875 64.796875 32.078125 64.796875 
z
M 9.8125 72.90625 
L 32.078125 72.90625 
Q 44.34375 72.90625 50.609375 67.359375 
Q 56.890625 61.8125 56.890625 51.125 
Q 56.890625 40.328125 50.609375 34.8125 
Q 44.34375 29.296875 32.078125 29.296875 
L 19.671875 29.296875 
L 19.671875 0 
L 9.8125 0 
z
" id="DejaVuSans-80"/>
      <path d="M 30.609375 48.390625 
Q 23.390625 48.390625 19.1875 42.75 
Q 14.984375 37.109375 14.984375 27.296875 
Q 14.984375 17.484375 19.15625 11.84375 
Q 23.34375 6.203125 30.609375 6.203125 
Q 37.796875 6.203125 41.984375 11.859375 
Q 46.1875 17.53125 46.1875 27.296875 
Q 46.1875 37.015625 41.984375 42.703125 
Q 37.796875 48.390625 30.609375 48.390625 
z
M 30.609375 56 
Q 42.328125 56 49.015625 48.375 
Q 55.71875 40.765625 55.71875 27.296875 
Q 55.71875 13.875 49.015625 6.21875 
Q 42.328125 -1.421875 30.609375 -1.421875 
Q 18.84375 -1.421875 12.171875 6.21875 
Q 5.515625 13.875 5.515625 27.296875 
Q 5.515625 40.765625 12.171875 48.375 
Q 18.84375 56 30.609375 56 
z
" id="DejaVuSans-111"/>
      <path d="M 18.3125 70.21875 
L 18.3125 54.6875 
L 36.8125 54.6875 
L 36.8125 47.703125 
L 18.3125 47.703125 
L 18.3125 18.015625 
Q 18.3125 11.328125 20.140625 9.421875 
Q 21.96875 7.515625 27.59375 7.515625 
L 36.8125 7.515625 
L 36.8125 0 
L 27.59375 0 
Q 17.1875 0 13.234375 3.875 
Q 9.28125 7.765625 9.28125 18.015625 
L 9.28125 47.703125 
L 2.6875 47.703125 
L 2.6875 54.6875 
L 9.28125 54.6875 
L 9.28125 70.21875 
z
" id="DejaVuSans-116"/>
      <path id="DejaVuSans-32"/>
      <path d="M 10.59375 49.21875 
L 10.59375 58.109375 
L 73.1875 35.40625 
L 73.1875 27.296875 
L 10.59375 4.59375 
L 10.59375 13.484375 
L 60.890625 31.296875 
z
" id="DejaVuSans-62"/>
      <path d="M 45.40625 46.390625 
L 45.40625 75.984375 
L 54.390625 75.984375 
L 54.390625 0 
L 45.40625 0 
L 45.40625 8.203125 
Q 42.578125 3.328125 38.25 0.953125 
Q 33.9375 -1.421875 27.875 -1.421875 
Q 17.96875 -1.421875 11.734375 6.484375 
Q 5.515625 14.40625 5.515625 27.296875 
Q 5.515625 40.1875 11.734375 48.09375 
Q 17.96875 56 27.875 56 
Q 33.9375 56 38.25 53.625 
Q 42.578125 51.265625 45.40625 46.390625 
z
M 14.796875 27.296875 
Q 14.796875 17.390625 18.875 11.75 
Q 22.953125 6.109375 30.078125 6.109375 
Q 37.203125 6.109375 41.296875 11.75 
Q 45.40625 17.390625 45.40625 27.296875 
Q 45.40625 37.203125 41.296875 42.84375 
Q 37.203125 48.484375 30.078125 48.484375 
Q 22.953125 48.484375 18.875 42.84375 
Q 14.796875 37.203125 14.796875 27.296875 
z
" id="DejaVuSans-100"/>
      <path d="M 4.890625 31.390625 
L 31.203125 31.390625 
L 31.203125 23.390625 
L 4.890625 23.390625 
z
" id="DejaVuSans-45"/>
      <path d="M 48.6875 27.296875 
Q 48.6875 37.203125 44.609375 42.84375 
Q 40.53125 48.484375 33.40625 48.484375 
Q 26.265625 48.484375 22.1875 42.84375 
Q 18.109375 37.203125 18.109375 27.296875 
Q 18.109375 17.390625 22.1875 11.75 
Q 26.265625 6.109375 33.40625 6.109375 
Q 40.53125 6.109375 44.609375 11.75 
Q 48.6875 17.390625 48.6875 27.296875 
z
M 18.109375 46.390625 
Q 20.953125 51.265625 25.265625 53.625 
Q 29.59375 56 35.59375 56 
Q 45.5625 56 51.78125 48.09375 
Q 58.015625 40.1875 58.015625 27.296875 
Q 58.015625 14.40625 51.78125 6.484375 
Q 45.5625 -1.421875 35.59375 -1.421875 
Q 29.59375 -1.421875 25.265625 0.953125 
Q 20.953125 3.328125 18.109375 8.203125 
L 18.109375 0 
L 9.078125 0 
L 9.078125 75.984375 
L 18.109375 75.984375 
z
" id="DejaVuSans-98"/>
     </defs>
     <g style="fill:#006fed;" transform="translate(269.078125 42.277344)scale(0.1 -0.1)">
      <use transform="translate(0 0.015625)" xlink:href="#DejaVuSans-80"/>
      <use transform="translate(60.302734 0.015625)" xlink:href="#DejaVuSans-111"/>
      <use transform="translate(121.484375 0.015625)" xlink:href="#DejaVuSans-115"/>
      <use transform="translate(173.583984 0.015625)" xlink:href="#DejaVuSans-116"/>
      <use transform="translate(212.792969 0.015625)" xlink:href="#DejaVuSans-32"/>
      <use transform="translate(244.580078 0.015625)" xlink:href="#DejaVuSans-Oblique-121"/>
      <use transform="translate(323.242188 0.015625)" xlink:href="#DejaVuSans-62"/>
      <use transform="translate(426.513672 0.015625)" xlink:href="#DejaVuSans-48"/>
      <use transform="translate(490.136719 0.015625)" xlink:href="#DejaVuSans-32"/>
      <use transform="translate(521.923828 0.015625)" xlink:href="#DejaVuSans-97"/>
      <use transform="translate(583.203125 0.015625)" xlink:href="#DejaVuSans-110"/>
      <use transform="translate(646.582031 0.015625)" xlink:href="#DejaVuSans-100"/>
      <use transform="translate(710.058594 0.015625)" xlink:href="#DejaVuSans-32"/>
      <use transform="translate(741.845703 0.015625)" xlink:href="#DejaVuSans-Oblique-120"/>
      <use transform="translate(801.025391 0.015625)" xlink:href="#DejaVuSans-45"/>
      <use transform="translate(837.109375 0.015625)" xlink:href="#DejaVuSans-98"/>
      <use transform="translate(900.585938 0.015625)" xlink:href="#DejaVuSans-97"/>
      <use transform="translate(961.865234 0.015625)" xlink:href="#DejaVuSans-110"/>
      <use transform="translate(1025.244141 0.015625)" xlink:href="#DejaVuSans-100"/>
     </g>
    </g>
   </g>
  </g>
 </g>
 <defs>
  <clipPath id="pc66cd09833">
   <rect height="326.16" width="334.8" x="52.178125" y="10.999219"/>
  </clipPath>
 </defs>
</svg>
