<?xml version="1.0" encoding="utf-8" standalone="no"?>
<!DOCTYPE svg PUBLIC "-//W3C//DTD SVG 1.1//EN"
  "http://www.w3.org/Graphics/SVG/1.1/DTD/svg11.dtd">
<!-- Created with matplotlib (http://matplotlib.org/) -->
<svg height="601pt" version="1.1" viewBox="0 0 623 601" width="623pt" xmlns="http://www.w3.org/2000/svg" xmlns:xlink="http://www.w3.org/1999/xlink">
 <defs>
  <style type="text/css">
*{stroke-linecap:butt;stroke-linejoin:round;stroke-miterlimit:100000;}
  </style>
 </defs>
 <g id="figure_1">
  <g id="patch_1">
   <path d="M 0 601.2 
L 623.7 601.2 
L 623.7 0 
L 0 0 
z
" style="fill:#ffffff;"/>
  </g>
  <g id="axes_1">
   <g id="patch_2">
    <path d="M 84.111032 276.316897 
L 345.41258 276.316897 
L 345.41258 16.373106 
L 84.111032 16.373106 
z
" style="fill:#ffffff;"/>
   </g>
   <g id="line2d_1">
    <path clip-path="url(#p482a01d602)" d="M 84.034404 276.232468 
L 89.858133 275.980825 
L 99.360008 275.555288 
L 114.072588 275.329097 
L 114.992124 275.213646 
L 117.750733 274.84778 
L 120.815853 274.136708 
L 123.574462 273.192559 
L 124.80051 272.477006 
L 126.639583 271.294282 
L 127.559119 270.568795 
L 129.09168 269.142746 
L 131.543776 266.067089 
L 133.076337 263.791866 
L 135.221921 259.566717 
L 138.593554 251.767767 
L 140.126114 247.49115 
L 141.045651 244.785048 
L 146.256356 228.596689 
L 149.627989 218.234751 
L 150.241013 216.78345 
L 152.386598 211.28134 
L 154.838694 205.625041 
L 156.371255 202.865825 
L 156.984279 201.891981 
L 157.597303 201.060659 
L 157.903815 200.71465 
L 158.210327 200.70762 
L 158.823351 200.075326 
L 159.742888 199.28085 
L 160.355912 198.698612 
L 160.968936 198.470737 
L 162.194984 197.56955 
L 163.11452 196.998505 
L 163.421033 196.604913 
L 164.953593 195.597709 
L 166.792665 193.944483 
L 167.40569 193.177067 
L 167.712202 193.220048 
L 169.244762 191.486736 
L 169.857786 190.722764 
L 170.47081 190.043925 
L 170.777322 189.461449 
L 171.696859 188.618752 
L 172.003371 188.363001 
L 174.455467 184.768448 
L 174.761979 184.256273 
L 175.068492 183.998923 
L 177.214076 180.809646 
L 177.520588 180.474178 
L 177.8271 179.894864 
L 178.133612 179.675665 
L 178.440124 179.317785 
L 178.746636 178.605749 
L 179.359661 177.658324 
L 180.585709 175.847524 
L 180.892221 175.60195 
L 182.424781 173.239048 
L 182.731294 173.031143 
L 185.489902 168.600687 
L 186.102926 167.36741 
L 187.022463 165.033089 
L 187.635487 163.872469 
L 188.248511 162.617553 
L 190.394096 157.221562 
L 190.700608 156.785754 
L 191.313632 154.752246 
L 191.926656 152.91747 
L 193.765728 147.415194 
L 194.378753 145.192073 
L 195.911313 138.673074 
L 196.524337 136.652432 
L 197.443873 132.970284 
L 199.589458 123.729904 
L 200.202482 121.017129 
L 200.508994 119.658351 
L 201.42853 114.725646 
L 202.348067 109.741974 
L 202.961091 106.090717 
L 204.187139 98.920998 
L 206.026212 87.988499 
L 208.171796 75.302141 
L 209.091332 70.055687 
L 210.317381 62.632312 
L 213.075989 48.735874 
L 214.302038 44.05745 
L 215.528086 40.86284 
L 216.447622 39.816539 
L 216.754134 39.789335 
L 217.060646 40.12761 
L 217.367159 40.272014 
L 217.673671 40.846742 
L 219.206231 45.204963 
L 220.738791 53.533146 
L 222.271352 65.729837 
L 224.416936 87.814361 
L 226.256009 111.018626 
L 232.692763 194.080737 
L 234.838347 215.920115 
L 236.064395 226.351098 
L 237.290444 235.066673 
L 239.129516 245.637046 
L 239.74254 248.402672 
L 241.275101 254.335812 
L 242.501149 257.805287 
L 243.420685 260.094532 
L 244.033709 261.453696 
L 245.259758 263.752412 
L 247.405342 266.709017 
L 248.018366 267.409393 
L 250.163951 268.964228 
L 251.389999 269.517085 
L 252.616048 269.972588 
L 253.229072 270.168156 
L 254.45512 270.582702 
L 257.520241 271.095763 
L 265.796067 272.11763 
L 271.006772 272.732402 
L 273.152357 272.88731 
L 284.493304 273.052296 
L 287.558425 273.260242 
L 290.930058 273.639568 
L 295.834251 274.402396 
L 304.416589 275.593016 
L 307.48171 275.854938 
L 313.305439 276.090012 
L 320.355217 276.100522 
L 326.178947 275.972426 
L 338.745942 275.636301 
L 343.343623 275.816065 
L 345.489208 275.954852 
L 345.489208 275.954852 
" style="fill:none;stroke:#006fed;stroke-linecap:square;stroke-width:1.1015625;"/>
   </g>
   <g id="patch_3">
    <path d="M 84.111032 16.373106 
L 345.41258 16.373106 
" style="fill:none;stroke:#000000;stroke-linecap:square;stroke-linejoin:miter;"/>
   </g>
   <g id="patch_4">
    <path d="M 345.41258 276.316897 
L 345.41258 16.373106 
" style="fill:none;stroke:#000000;stroke-linecap:square;stroke-linejoin:miter;"/>
   </g>
   <g id="patch_5">
    <path d="M 84.111032 276.316897 
L 345.41258 276.316897 
" style="fill:none;stroke:#000000;stroke-linecap:square;stroke-linejoin:miter;"/>
   </g>
   <g id="patch_6">
    <path d="M 84.111032 276.316897 
L 84.111032 16.373106 
" style="fill:none;stroke:#000000;stroke-linecap:square;stroke-linejoin:miter;"/>
   </g>
   <g id="matplotlib.axis_1">
    <g id="xtick_1">
     <g id="line2d_2">
      <defs>
       <path d="M 0 0 
L 0 -4 
" id="m896fe9f87b" style="stroke:#000000;stroke-width:0.5;"/>
      </defs>
      <g>
       <use style="stroke:#000000;stroke-width:0.5;" x="129.375632346" xlink:href="#m896fe9f87b" y="276.316897163"/>
      </g>
     </g>
     <g id="line2d_3">
      <defs>
       <path d="M 0 0 
L 0 4 
" id="m8f805c0c46" style="stroke:#000000;stroke-width:0.5;"/>
      </defs>
      <g>
       <use style="stroke:#000000;stroke-width:0.5;" x="129.375632346" xlink:href="#m8f805c0c46" y="16.373106383"/>
      </g>
     </g>
    </g>
    <g id="xtick_2">
     <g id="line2d_4">
      <g>
       <use style="stroke:#000000;stroke-width:0.5;" x="183.792887898" xlink:href="#m896fe9f87b" y="276.316897163"/>
      </g>
     </g>
     <g id="line2d_5">
      <g>
       <use style="stroke:#000000;stroke-width:0.5;" x="183.792887898" xlink:href="#m8f805c0c46" y="16.373106383"/>
      </g>
     </g>
    </g>
    <g id="xtick_3">
     <g id="line2d_6">
      <g>
       <use style="stroke:#000000;stroke-width:0.5;" x="238.21014345" xlink:href="#m896fe9f87b" y="276.316897163"/>
      </g>
     </g>
     <g id="line2d_7">
      <g>
       <use style="stroke:#000000;stroke-width:0.5;" x="238.21014345" xlink:href="#m8f805c0c46" y="16.373106383"/>
      </g>
     </g>
    </g>
    <g id="xtick_4">
     <g id="line2d_8">
      <g>
       <use style="stroke:#000000;stroke-width:0.5;" x="292.627399003" xlink:href="#m896fe9f87b" y="276.316897163"/>
      </g>
     </g>
     <g id="line2d_9">
      <g>
       <use style="stroke:#000000;stroke-width:0.5;" x="292.627399003" xlink:href="#m8f805c0c46" y="16.373106383"/>
      </g>
     </g>
    </g>
   </g>
   <g id="matplotlib.axis_2"/>
  </g>
  <g id="axes_2">
   <g id="patch_7">
    <path d="M 345.41258 536.260688 
L 606.714128 536.260688 
L 606.714128 276.316897 
L 345.41258 276.316897 
z
" style="fill:#ffffff;"/>
   </g>
   <g id="line2d_10">
    <path clip-path="url(#p1424941677)" d="M 345.318578 536.207995 
L 354.116848 535.876813 
L 363.566842 535.295604 
L 365.522013 535.12052 
L 369.758217 534.67717 
L 373.994421 534.063997 
L 382.140967 533.013723 
L 386.703033 532.716693 
L 388.658204 532.553502 
L 395.501302 531.49299 
L 396.153026 531.149286 
L 397.130612 530.736937 
L 398.434059 530.077783 
L 399.085783 529.61574 
L 400.063368 529.014369 
L 400.38923 528.559239 
L 401.366816 527.751361 
L 403.97371 523.691268 
L 405.928881 519.285947 
L 406.580605 517.49665 
L 408.861638 508.759048 
L 410.816809 497.871556 
L 411.794395 490.85104 
L 413.423704 476.934809 
L 415.378875 455.866241 
L 417.008184 434.371245 
L 424.177145 332.297437 
L 425.15473 322.304061 
L 426.458178 311.238796 
L 427.109901 306.790638 
L 427.761625 303.41924 
L 428.73921 300.632466 
L 429.390934 300.118298 
L 430.042658 299.733126 
L 430.694382 300.417562 
L 432.323691 305.680739 
L 433.627138 312.532293 
L 434.604724 318.90053 
L 434.930585 320.530948 
L 439.492651 350.916989 
L 440.144375 354.840869 
L 440.470237 357.49486 
L 440.796099 359.00227 
L 442.099546 366.773725 
L 444.054717 375.293069 
L 445.032303 378.025554 
L 445.358165 378.469679 
L 446.009888 379.881781 
L 446.661612 381.022718 
L 447.313336 382.58565 
L 447.639197 382.816946 
L 447.965059 383.34765 
L 448.290921 383.532645 
L 448.616783 383.563629 
L 448.942645 383.735625 
L 449.268507 384.349156 
L 449.594368 384.268895 
L 449.92023 383.818383 
L 450.897816 383.875624 
L 451.223678 383.526326 
L 451.875401 383.715317 
L 452.527125 383.74399 
L 452.852987 383.097059 
L 453.830572 382.708159 
L 454.482296 381.867304 
L 456.437467 380.077122 
L 457.089191 379.331613 
L 457.740915 378.649433 
L 458.7185 376.789575 
L 459.044362 376.552729 
L 461.325395 372.983692 
L 461.977119 371.472254 
L 462.954704 369.717733 
L 463.280566 369.281148 
L 465.235737 363.672099 
L 466.213323 361.403027 
L 466.539184 359.893317 
L 466.865046 359.401902 
L 467.51677 357.364677 
L 469.471941 351.092519 
L 470.123665 349.37749 
L 470.449526 348.207246 
L 470.775388 347.52482 
L 471.10125 346.184428 
L 471.427112 345.581044 
L 472.404698 343.135864 
L 473.056421 341.562176 
L 474.034007 339.902271 
L 474.68573 339.418652 
L 475.011592 339.736028 
L 475.337454 339.824369 
L 475.989178 340.512937 
L 476.640902 341.536626 
L 477.292625 342.730995 
L 477.944349 344.465541 
L 478.596073 346.933573 
L 479.247796 349.523679 
L 480.551244 356.664897 
L 482.506415 372.023584 
L 484.135724 388.498542 
L 490.327099 459.118009 
L 491.630546 471.902294 
L 492.28227 477.183483 
L 493.911579 490.24906 
L 494.889165 497.061004 
L 496.518474 506.474114 
L 497.821921 512.303778 
L 498.799507 516.092229 
L 500.428816 520.84755 
L 501.732264 523.890627 
L 503.035711 526.169196 
L 504.013296 527.423258 
L 505.642606 529.251158 
L 507.597777 530.835767 
L 509.552948 531.734691 
L 510.856395 532.160159 
L 511.508119 532.382954 
L 513.789152 532.797042 
L 516.721908 532.799122 
L 520.63225 532.542267 
L 525.194316 532.015968 
L 526.497764 532.030952 
L 528.778797 532.091187 
L 530.733968 532.32573 
L 535.947757 533.472949 
L 539.858099 534.356935 
L 544.420165 535.171865 
L 550.937402 535.783059 
L 558.432224 536.12106 
L 565.927047 536.179185 
L 571.466698 536.028273 
L 583.197725 535.582942 
L 590.692547 535.785281 
L 606.985639 536.210294 
L 606.985639 536.210294 
" style="fill:none;stroke:#006fed;stroke-linecap:square;stroke-width:1.1015625;"/>
   </g>
   <g id="patch_8">
    <path d="M 345.41258 276.316897 
L 606.714128 276.316897 
" style="fill:none;stroke:#000000;stroke-linecap:square;stroke-linejoin:miter;"/>
   </g>
   <g id="patch_9">
    <path d="M 606.714128 536.260688 
L 606.714128 276.316897 
" style="fill:none;stroke:#000000;stroke-linecap:square;stroke-linejoin:miter;"/>
   </g>
   <g id="patch_10">
    <path d="M 345.41258 536.260688 
L 606.714128 536.260688 
" style="fill:none;stroke:#000000;stroke-linecap:square;stroke-linejoin:miter;"/>
   </g>
   <g id="patch_11">
    <path d="M 345.41258 536.260688 
L 345.41258 276.316897 
" style="fill:none;stroke:#000000;stroke-linecap:square;stroke-linejoin:miter;"/>
   </g>
   <g id="matplotlib.axis_3">
    <g id="xtick_5">
     <g id="line2d_11">
      <g>
       <use style="stroke:#000000;stroke-width:0.5;" x="392.400453958" xlink:href="#m896fe9f87b" y="536.260687943"/>
      </g>
     </g>
     <g id="line2d_12">
      <g>
       <use style="stroke:#000000;stroke-width:0.5;" x="392.400453958" xlink:href="#m8f805c0c46" y="276.316897163"/>
      </g>
     </g>
     <g id="text_1">
      <!-- −0.6 -->
      <defs>
       <path d="M 10.59375 35.5 
L 73.1875 35.5 
L 73.1875 27.203125 
L 10.59375 27.203125 
z
" id="BitstreamVeraSans-Roman-2212"/>
       <path d="M 33.015625 40.375 
Q 26.375 40.375 22.484375 35.828125 
Q 18.609375 31.296875 18.609375 23.390625 
Q 18.609375 15.53125 22.484375 10.953125 
Q 26.375 6.390625 33.015625 6.390625 
Q 39.65625 6.390625 43.53125 10.953125 
Q 47.40625 15.53125 47.40625 23.390625 
Q 47.40625 31.296875 43.53125 35.828125 
Q 39.65625 40.375 33.015625 40.375 
M 52.59375 71.296875 
L 52.59375 62.3125 
Q 48.875 64.0625 45.09375 64.984375 
Q 41.3125 65.921875 37.59375 65.921875 
Q 27.828125 65.921875 22.671875 59.328125 
Q 17.53125 52.734375 16.796875 39.40625 
Q 19.671875 43.65625 24.015625 45.921875 
Q 28.375 48.1875 33.59375 48.1875 
Q 44.578125 48.1875 50.953125 41.515625 
Q 57.328125 34.859375 57.328125 23.390625 
Q 57.328125 12.15625 50.6875 5.359375 
Q 44.046875 -1.421875 33.015625 -1.421875 
Q 20.359375 -1.421875 13.671875 8.265625 
Q 6.984375 17.96875 6.984375 36.375 
Q 6.984375 53.65625 15.1875 63.9375 
Q 23.390625 74.21875 37.203125 74.21875 
Q 40.921875 74.21875 44.703125 73.484375 
Q 48.484375 72.75 52.59375 71.296875 
" id="BitstreamVeraSans-Roman-36"/>
       <path d="M 31.78125 66.40625 
Q 24.171875 66.40625 20.328125 58.90625 
Q 16.5 51.421875 16.5 36.375 
Q 16.5 21.390625 20.328125 13.890625 
Q 24.171875 6.390625 31.78125 6.390625 
Q 39.453125 6.390625 43.28125 13.890625 
Q 47.125 21.390625 47.125 36.375 
Q 47.125 51.421875 43.28125 58.90625 
Q 39.453125 66.40625 31.78125 66.40625 
M 31.78125 74.21875 
Q 44.046875 74.21875 50.515625 64.515625 
Q 56.984375 54.828125 56.984375 36.375 
Q 56.984375 17.96875 50.515625 8.265625 
Q 44.046875 -1.421875 31.78125 -1.421875 
Q 19.53125 -1.421875 13.0625 8.265625 
Q 6.59375 17.96875 6.59375 36.375 
Q 6.59375 54.828125 13.0625 64.515625 
Q 19.53125 74.21875 31.78125 74.21875 
" id="BitstreamVeraSans-Roman-30"/>
       <path d="M 10.6875 12.40625 
L 21 12.40625 
L 21 0 
L 10.6875 0 
z
" id="BitstreamVeraSans-Roman-2e"/>
      </defs>
      <g transform="translate(379.519180765 548.322155228)scale(0.10609375 -0.10609375)">
       <use xlink:href="#BitstreamVeraSans-Roman-2212"/>
       <use x="83.7890625" xlink:href="#BitstreamVeraSans-Roman-30"/>
       <use x="147.412109375" xlink:href="#BitstreamVeraSans-Roman-2e"/>
       <use x="179.19921875" xlink:href="#BitstreamVeraSans-Roman-36"/>
      </g>
     </g>
    </g>
    <g id="xtick_6">
     <g id="line2d_13">
      <g>
       <use style="stroke:#000000;stroke-width:0.5;" x="452.874999407" xlink:href="#m896fe9f87b" y="536.260687943"/>
      </g>
     </g>
     <g id="line2d_14">
      <g>
       <use style="stroke:#000000;stroke-width:0.5;" x="452.874999407" xlink:href="#m8f805c0c46" y="276.316897163"/>
      </g>
     </g>
     <g id="text_2">
      <!-- 0.0 -->
      <g transform="translate(444.438888567 548.322155228)scale(0.10609375 -0.10609375)">
       <use xlink:href="#BitstreamVeraSans-Roman-30"/>
       <use x="63.623046875" xlink:href="#BitstreamVeraSans-Roman-2e"/>
       <use x="95.41015625" xlink:href="#BitstreamVeraSans-Roman-30"/>
      </g>
     </g>
    </g>
    <g id="xtick_7">
     <g id="line2d_15">
      <g>
       <use style="stroke:#000000;stroke-width:0.5;" x="513.349544856" xlink:href="#m896fe9f87b" y="536.260687943"/>
      </g>
     </g>
     <g id="line2d_16">
      <g>
       <use style="stroke:#000000;stroke-width:0.5;" x="513.349544856" xlink:href="#m8f805c0c46" y="276.316897163"/>
      </g>
     </g>
     <g id="text_3">
      <!-- 0.6 -->
      <g transform="translate(504.913434016 548.322155228)scale(0.10609375 -0.10609375)">
       <use xlink:href="#BitstreamVeraSans-Roman-30"/>
       <use x="63.623046875" xlink:href="#BitstreamVeraSans-Roman-2e"/>
       <use x="95.41015625" xlink:href="#BitstreamVeraSans-Roman-36"/>
      </g>
     </g>
    </g>
    <g id="xtick_8">
     <g id="line2d_17">
      <g>
       <use style="stroke:#000000;stroke-width:0.5;" x="573.824090305" xlink:href="#m896fe9f87b" y="536.260687943"/>
      </g>
     </g>
     <g id="line2d_18">
      <g>
       <use style="stroke:#000000;stroke-width:0.5;" x="573.824090305" xlink:href="#m8f805c0c46" y="276.316897163"/>
      </g>
     </g>
     <g id="text_4">
      <!-- 1.2 -->
      <defs>
       <path d="M 19.1875 8.296875 
L 53.609375 8.296875 
L 53.609375 0 
L 7.328125 0 
L 7.328125 8.296875 
Q 12.9375 14.109375 22.625 23.890625 
Q 32.328125 33.6875 34.8125 36.53125 
Q 39.546875 41.84375 41.421875 45.53125 
Q 43.3125 49.21875 43.3125 52.78125 
Q 43.3125 58.59375 39.234375 62.25 
Q 35.15625 65.921875 28.609375 65.921875 
Q 23.96875 65.921875 18.8125 64.3125 
Q 13.671875 62.703125 7.8125 59.421875 
L 7.8125 69.390625 
Q 13.765625 71.78125 18.9375 73 
Q 24.125 74.21875 28.421875 74.21875 
Q 39.75 74.21875 46.484375 68.546875 
Q 53.21875 62.890625 53.21875 53.421875 
Q 53.21875 48.921875 51.53125 44.890625 
Q 49.859375 40.875 45.40625 35.40625 
Q 44.1875 33.984375 37.640625 27.21875 
Q 31.109375 20.453125 19.1875 8.296875 
" id="BitstreamVeraSans-Roman-32"/>
       <path d="M 12.40625 8.296875 
L 28.515625 8.296875 
L 28.515625 63.921875 
L 10.984375 60.40625 
L 10.984375 69.390625 
L 28.421875 72.90625 
L 38.28125 72.90625 
L 38.28125 8.296875 
L 54.390625 8.296875 
L 54.390625 0 
L 12.40625 0 
z
" id="BitstreamVeraSans-Roman-31"/>
      </defs>
      <g transform="translate(565.387979465 548.322155228)scale(0.10609375 -0.10609375)">
       <use xlink:href="#BitstreamVeraSans-Roman-31"/>
       <use x="63.623046875" xlink:href="#BitstreamVeraSans-Roman-2e"/>
       <use x="95.41015625" xlink:href="#BitstreamVeraSans-Roman-32"/>
      </g>
     </g>
    </g>
    <g id="text_5">
     <!-- $\beta$ -->
     <defs>
      <path d="M 2.6875 -19.390625 
Q 2.390625 -19.390625 2.140625 -19.046875 
Q 1.90625 -18.703125 1.90625 -18.40625 
L 17.28125 43.40625 
Q 18.609375 48.390625 21.140625 53.078125 
Q 23.6875 57.765625 27.515625 61.796875 
Q 31.34375 65.828125 35.9375 68.171875 
Q 40.53125 70.515625 45.703125 70.515625 
Q 49.421875 70.515625 52.421875 68.875 
Q 55.421875 67.234375 57.15625 64.28125 
Q 58.890625 61.328125 58.890625 57.625 
Q 58.890625 54.046875 57.515625 50.796875 
Q 56.15625 47.5625 53.703125 44.75 
Q 51.265625 41.9375 48.484375 40.1875 
Q 50.09375 39.15625 51.359375 37.5625 
Q 52.640625 35.984375 53.421875 34.25 
Q 54.203125 32.515625 54.640625 30.390625 
Q 55.078125 28.265625 55.078125 26.421875 
Q 55.078125 21.296875 52.875 16.3125 
Q 50.6875 11.328125 46.890625 7.265625 
Q 43.109375 3.21875 38.21875 0.84375 
Q 33.34375 -1.515625 28.21875 -1.515625 
Q 22.609375 -1.515625 18.109375 1.5625 
Q 13.625 4.640625 11.921875 9.90625 
L 4.6875 -18.796875 
Q 4.6875 -19.390625 3.90625 -19.390625 
z
M 28.421875 1.21875 
Q 32.90625 1.21875 36.546875 4.171875 
Q 40.1875 7.125 42.546875 11.59375 
Q 44.921875 16.0625 46.15625 21.0625 
Q 47.40625 26.078125 47.40625 30.171875 
Q 47.40625 35.25 44.484375 38.1875 
Q 41.0625 36.921875 37.796875 36.921875 
Q 29.890625 36.921875 29.890625 39.59375 
Q 29.890625 43.109375 38.921875 43.109375 
Q 42.140625 43.109375 44.828125 42.09375 
Q 46.96875 43.75 48.71875 46.96875 
Q 50.484375 50.203125 51.390625 53.71875 
Q 52.296875 57.234375 52.296875 60.296875 
Q 52.296875 63.578125 50.5625 65.75 
Q 48.828125 67.921875 45.515625 67.921875 
Q 39.40625 67.921875 34.15625 64.15625 
Q 28.90625 60.40625 25.296875 54.65625 
Q 21.6875 48.921875 20.125 42.828125 
L 14.59375 20.703125 
Q 14.0625 18.40625 13.921875 15.578125 
Q 13.921875 9.328125 18.015625 5.265625 
Q 22.125 1.21875 28.421875 1.21875 
M 32.90625 39.890625 
Q 34.421875 39.5 37.890625 39.5 
Q 39.59375 39.5 41.3125 40.09375 
Q 41.21875 40.1875 40.921875 40.1875 
Q 39.84375 40.484375 38.625 40.484375 
Q 34.078125 40.484375 32.90625 39.890625 
" id="Cmmi10-af"/>
     </defs>
     <g transform="translate(472.184681848 568.137948685)scale(0.13609375 -0.13609375)">
      <use transform="translate(0.0 0.484375)" xlink:href="#Cmmi10-af"/>
     </g>
    </g>
   </g>
   <g id="matplotlib.axis_4"/>
  </g>
  <g id="axes_3">
   <g id="patch_12">
    <path d="M 84.111032 536.260688 
L 345.41258 536.260688 
L 345.41258 276.316897 
L 84.111032 276.316897 
z
" style="fill:#ffffff;"/>
   </g>
   <g id="PathCollection_1">
    <path clip-path="url(#p0ac684cfa3)" d="M 195.702164 481.647914 
L 196.931818 481.676203 
L 198.161472 481.726006 
L 199.304798 481.573517 
L 199.391127 481.563023 
L 200.620781 481.354858 
L 201.850435 481.067703 
L 203.08009 480.633969 
L 203.938282 480.273029 
L 204.309744 480.146752 
L 205.539398 479.743497 
L 206.769053 479.252835 
L 207.458742 478.972541 
L 207.998707 478.781064 
L 209.228361 478.425582 
L 210.458016 477.927377 
L 211.00462 477.672053 
L 211.68767 477.394565 
L 212.917324 476.909602 
L 213.96144 476.371564 
L 214.146979 476.281392 
L 215.376633 475.762388 
L 216.360905 475.071076 
L 216.606287 474.91472 
L 217.835942 474.08695 
L 218.262271 473.770588 
L 219.065596 473.164324 
L 219.817776 472.4701 
L 220.29525 472.043965 
L 221.285836 471.169611 
L 221.524905 470.901787 
L 222.345932 469.869123 
L 222.754559 469.410913 
L 223.412679 468.568635 
L 223.984213 467.839519 
L 224.446893 467.268147 
L 225.213868 466.355796 
L 225.528406 465.967658 
L 226.443522 464.894314 
L 226.648419 464.66717 
L 227.673176 463.57381 
L 227.84752 463.366682 
L 228.902831 462.371286 
L 229.293134 462.066194 
L 230.132485 461.452628 
L 231.085455 460.765705 
L 231.362139 460.592742 
L 232.591794 459.883445 
L 233.325548 459.465217 
L 233.821448 459.224801 
L 235.051103 458.538732 
L 235.704424 458.164729 
L 236.280757 457.863853 
L 237.510411 457.062097 
L 237.853644 456.864241 
L 238.740066 456.321489 
L 239.788928 455.563753 
L 239.96972 455.410093 
L 241.035832 454.263264 
L 241.199374 454.082215 
L 242.188703 452.962776 
L 242.429029 452.635438 
L 243.074679 451.662288 
L 243.658683 450.617435 
L 243.797284 450.3618 
L 244.432352 449.061311 
L 244.888337 447.991676 
L 244.990436 447.760823 
L 245.466579 446.460335 
L 245.850642 445.159847 
L 246.117992 444.226499 
L 246.247142 443.859358 
L 246.632417 442.55887 
L 246.934257 441.258382 
L 247.167288 439.957894 
L 247.336403 438.657405 
L 247.347646 438.531551 
L 247.472598 437.356917 
L 247.522095 436.056429 
L 247.539504 434.755941 
L 247.482843 433.455452 
L 247.347646 432.32536 
L 247.33022 432.154964 
L 247.0748 430.854476 
L 246.754533 429.553988 
L 246.34709 428.253499 
L 246.117992 427.623392 
L 245.941452 426.953011 
L 245.53603 425.652523 
L 245.085071 424.352035 
L 244.888337 423.791997 
L 244.701578 423.051546 
L 244.360293 421.751058 
L 244.069784 420.45057 
L 243.787119 419.150082 
L 243.658683 418.415753 
L 243.579011 417.849594 
L 243.412407 416.549105 
L 243.230367 415.248617 
L 243.111047 413.948129 
L 242.98822 412.647641 
L 242.867598 411.347152 
L 242.718768 410.046664 
L 242.547424 408.746176 
L 242.429029 408.079948 
L 242.331312 407.445688 
L 242.082176 406.145199 
L 241.777776 404.844711 
L 241.352848 403.544223 
L 241.199374 403.136657 
L 240.914396 402.243735 
L 240.348176 400.943246 
L 239.96972 400.217996 
L 239.640139 399.642758 
L 238.740066 398.430533 
L 238.679698 398.34227 
L 237.563737 397.041782 
L 237.510411 396.98156 
L 236.608646 395.741293 
L 236.280757 395.373123 
L 235.272083 394.440805 
L 235.051103 394.241292 
L 233.821448 393.35336 
L 233.548999 393.140317 
L 232.591794 392.382088 
L 231.539486 391.839829 
L 231.362139 391.749395 
L 230.132485 391.071152 
L 228.902831 390.55327 
L 228.870192 390.53934 
L 227.673176 389.947277 
L 226.443522 389.368207 
L 226.01681 389.238852 
L 225.213868 388.953813 
L 223.984213 388.446812 
L 222.754559 388.028343 
L 222.492401 387.938364 
L 221.524905 387.563431 
L 220.29525 386.947065 
L 219.547284 386.637876 
L 219.065596 386.394855 
L 217.835942 385.865348 
L 216.672472 385.337387 
L 216.606287 385.30446 
L 215.376633 384.695527 
L 214.146979 384.115375 
L 213.900265 384.036899 
L 212.917324 383.630093 
L 211.68767 383.143612 
L 210.458016 382.769079 
L 210.310244 382.736411 
L 209.228361 382.440994 
L 207.998707 382.102466 
L 206.769053 381.889871 
L 205.539398 381.694901 
L 204.309744 381.466679 
L 204.062934 381.435923 
L 203.08009 381.285204 
L 201.850435 381.045866 
L 200.620781 380.790606 
L 199.391127 380.545551 
L 198.161472 380.341256 
L 197.241727 380.135435 
L 196.931818 380.045815 
L 195.702164 379.751445 
L 194.472509 379.547003 
L 193.242855 379.344547 
L 192.013201 379.320501 
L 190.783546 379.234119 
L 189.553892 379.193502 
L 188.324237 379.237819 
L 187.094583 379.345034 
L 185.864929 379.489874 
L 184.635274 379.656786 
L 183.40562 379.898256 
L 182.175966 380.09966 
L 181.952127 380.135435 
L 180.946311 380.254675 
L 179.716657 380.385969 
L 178.487003 380.523335 
L 177.257348 380.642662 
L 176.027694 380.763274 
L 174.79804 380.892288 
L 173.568385 381.094806 
L 172.338731 381.221027 
L 171.109077 381.387529 
L 170.820999 381.435923 
L 169.879422 381.563581 
L 168.649768 381.771348 
L 167.420114 382.100042 
L 166.190459 382.450414 
L 165.478677 382.736411 
L 164.960805 382.920177 
L 163.731151 383.469346 
L 162.663479 384.036899 
L 162.501496 384.11515 
L 161.271842 384.745227 
L 160.447884 385.337387 
L 160.042188 385.628797 
L 158.844949 386.637876 
L 158.812533 386.665866 
L 157.582879 387.769866 
L 157.406087 387.938364 
L 156.353225 388.924441 
L 156.033927 389.238852 
L 155.12357 390.146189 
L 154.778741 390.53934 
L 153.893916 391.570871 
L 153.636394 391.839829 
L 152.664262 392.904843 
L 152.435097 393.140317 
L 151.434607 394.12761 
L 151.096349 394.440805 
L 150.204953 395.268676 
L 149.715254 395.741293 
L 148.975299 396.458686 
L 148.429457 397.041782 
L 147.745644 397.790636 
L 147.210658 398.34227 
L 146.51599 399.089776 
L 145.982677 399.642758 
L 145.286335 400.396302 
L 144.743542 400.943246 
L 144.056681 401.636885 
L 143.488722 402.243735 
L 142.827027 403.019828 
L 142.388752 403.544223 
L 141.597372 404.532016 
L 141.338081 404.844711 
L 140.367718 405.995071 
L 140.225631 406.145199 
L 139.14761 407.445688 
L 139.138064 407.456836 
L 138.032783 408.746176 
L 137.908409 408.886982 
L 136.857384 410.046664 
L 136.678755 410.23663 
L 135.545315 411.347152 
L 135.449101 411.437651 
L 134.219446 412.559778 
L 134.132233 412.647641 
L 132.989792 413.72076 
L 132.74387 413.948129 
L 131.760138 414.77789 
L 131.086137 415.248617 
L 130.530483 415.621648 
L 129.541393 416.549105 
L 129.300829 416.785336 
L 128.140847 417.849594 
L 128.071175 417.918075 
L 126.84152 419.138187 
L 126.830432 419.150082 
L 125.821987 420.45057 
L 125.611866 420.825352 
L 125.043552 421.751058 
L 124.562829 423.051546 
L 124.382212 423.744821 
L 124.227446 424.352035 
L 124.06682 425.652523 
L 124.031713 426.953011 
L 124.111899 428.253499 
L 124.291089 429.553988 
L 124.382212 429.991131 
L 124.534632 430.854476 
L 124.83545 432.154964 
L 125.219067 433.455452 
L 125.611866 434.530247 
L 125.690722 434.755941 
L 126.230143 436.056429 
L 126.84152 437.220676 
L 126.911143 437.356917 
L 127.718763 438.657405 
L 128.071175 439.172038 
L 128.51937 439.957894 
L 129.300829 441.109553 
L 129.40616 441.258382 
L 130.455581 442.55887 
L 130.530483 442.647528 
L 131.335898 443.859358 
L 131.760138 444.428875 
L 132.228144 445.159847 
L 132.989792 446.27787 
L 133.104284 446.460335 
L 133.977441 447.760823 
L 134.219446 448.111889 
L 134.797909 449.061311 
L 135.449101 450.166424 
L 135.545929 450.3618 
L 136.187404 451.662288 
L 136.678755 452.584179 
L 136.875099 452.962776 
L 137.562653 454.263264 
L 137.908409 454.890087 
L 138.226388 455.563753 
L 138.904041 456.864241 
L 139.138064 457.2614 
L 139.616154 458.164729 
L 140.352325 459.465217 
L 140.367718 459.492717 
L 140.963963 460.765705 
L 141.597372 461.820253 
L 141.742291 462.066194 
L 142.536126 463.366682 
L 142.827027 463.819042 
L 143.380979 464.66717 
L 144.056681 465.595309 
L 144.322319 465.967658 
L 145.286335 467.223587 
L 145.323386 467.268147 
L 146.441288 468.568635 
L 146.51599 468.655396 
L 147.671508 469.869123 
L 147.745644 469.949177 
L 148.975299 471.154472 
L 148.99354 471.169611 
L 150.204953 472.151249 
L 150.667103 472.4701 
L 151.434607 473.054294 
L 152.487237 473.770588 
L 152.664262 473.908972 
L 153.893916 474.64438 
L 154.800362 475.071076 
L 155.12357 475.233667 
L 156.353225 475.871876 
L 157.582879 476.282289 
L 157.897545 476.371564 
L 158.812533 476.729627 
L 160.042188 477.075687 
L 161.271842 477.353332 
L 162.501496 477.582138 
L 163.104948 477.672053 
L 163.731151 477.781234 
L 164.960805 477.950928 
L 166.190459 478.080466 
L 167.420114 478.163563 
L 168.649768 478.24267 
L 169.879422 478.310468 
L 171.109077 478.298623 
L 172.338731 478.28678 
L 173.568385 478.268401 
L 174.79804 478.241636 
L 176.027694 478.232056 
L 177.257348 478.218565 
L 178.487003 478.112938 
L 179.716657 478.160821 
L 180.946311 478.244224 
L 182.175966 478.344779 
L 183.40562 478.456072 
L 184.635274 478.741382 
L 185.77428 478.972541 
L 185.864929 478.995956 
L 187.094583 479.352726 
L 188.324237 479.744582 
L 189.553892 480.079797 
L 190.32191 480.273029 
L 190.783546 480.42388 
L 192.013201 480.857395 
L 193.242855 481.100548 
L 194.472509 481.405682 
L 195.364071 481.573517 
z
M 188.254253 467.268147 
L 187.094583 467.124913 
L 185.864929 466.987204 
L 184.635274 466.845077 
L 183.40562 466.692918 
L 182.175966 466.541229 
L 180.946311 466.432587 
L 179.716657 466.284082 
L 178.487003 466.094932 
L 177.663223 465.967658 
L 177.257348 465.908016 
L 176.027694 465.736247 
L 174.79804 465.486834 
L 173.568385 465.268222 
L 172.338731 464.985129 
L 171.109077 464.710538 
L 170.960832 464.66717 
L 169.879422 464.345638 
L 168.649768 463.997657 
L 167.420114 463.569792 
L 166.776158 463.366682 
L 166.190459 463.174841 
L 164.960805 462.815035 
L 163.731151 462.392636 
L 162.521921 462.066194 
L 162.501496 462.060376 
L 161.271842 461.680874 
L 160.042188 461.296221 
L 158.812533 460.865058 
L 158.584191 460.765705 
L 157.582879 460.31559 
L 156.353225 459.640017 
L 156.091445 459.465217 
L 155.12357 458.738251 
L 154.414384 458.164729 
L 153.893916 457.675227 
L 153.157215 456.864241 
L 152.664262 456.160147 
L 152.260769 455.563753 
L 151.613528 454.263264 
L 151.434607 453.744426 
L 151.18397 452.962776 
L 150.968288 451.662288 
L 150.960295 450.3618 
L 151.124047 449.061311 
L 151.434607 448.136507 
L 151.626716 447.760823 
L 152.664262 446.649239 
L 152.951696 446.460335 
L 153.893916 446.001569 
L 155.12357 445.798237 
L 156.353225 445.825684 
L 157.582879 445.96535 
L 158.812533 446.219195 
L 159.721376 446.460335 
L 160.042188 446.540294 
L 161.271842 446.935019 
L 162.501496 447.313625 
L 163.731151 447.709938 
L 163.917607 447.760823 
L 164.960805 448.035763 
L 166.190459 448.405593 
L 167.420114 448.635345 
L 168.649768 448.747416 
L 169.879422 448.87233 
L 171.109077 448.890646 
L 172.338731 448.870489 
L 173.568385 448.880684 
L 174.79804 448.858692 
L 176.027694 448.776849 
L 177.257348 448.736708 
L 178.487003 448.623033 
L 179.716657 448.536952 
L 180.946311 448.448376 
L 182.175966 448.413147 
L 183.40562 448.35203 
L 184.635274 448.25941 
L 185.864929 448.18468 
L 187.094583 448.046467 
L 188.324237 447.878772 
L 189.277878 447.760823 
L 189.553892 447.722565 
L 190.783546 447.480583 
L 192.013201 447.11477 
L 193.242855 446.750759 
L 194.115477 446.460335 
L 194.472509 446.331192 
L 195.702164 445.800477 
L 196.918375 445.159847 
L 196.931818 445.152164 
L 198.161472 444.445405 
L 199.076402 443.859358 
L 199.391127 443.639444 
L 200.620781 442.736527 
L 200.860152 442.55887 
L 201.850435 441.782026 
L 202.504379 441.258382 
L 203.08009 440.763316 
L 203.992959 439.957894 
L 204.309744 439.658103 
L 205.320266 438.657405 
L 205.539398 438.408671 
L 206.463448 437.356917 
L 206.769053 436.961543 
L 207.413294 436.056429 
L 207.998707 434.957898 
L 208.095961 434.755941 
L 208.534834 433.455452 
L 208.813848 432.154964 
L 208.930409 430.854476 
L 208.881633 429.553988 
L 208.725824 428.253499 
L 208.447498 426.953011 
L 208.102755 425.652523 
L 207.998707 425.310333 
L 207.67141 424.352035 
L 207.146557 423.051546 
L 206.769053 422.181292 
L 206.556857 421.751058 
L 205.854985 420.45057 
L 205.539398 419.902445 
L 205.062662 419.150082 
L 204.309744 418.04057 
L 204.163363 417.849594 
L 203.105796 416.549105 
L 203.08009 416.519826 
L 201.850435 415.303349 
L 201.789872 415.248617 
L 200.620781 414.232727 
L 200.277748 413.948129 
L 199.391127 413.227775 
L 198.641993 412.647641 
L 198.161472 412.284954 
L 196.931818 411.349521 
L 196.928646 411.347152 
L 195.702164 410.448956 
L 195.032692 410.046664 
L 194.472509 409.715885 
L 193.242855 408.970947 
L 192.864828 408.746176 
L 192.013201 408.247302 
L 190.783546 407.598278 
L 190.486505 407.445688 
L 189.553892 406.976638 
L 188.324237 406.406354 
L 187.615281 406.145199 
L 187.094583 405.955217 
L 185.864929 405.598712 
L 184.635274 405.339655 
L 183.40562 405.078916 
L 182.175966 405.046345 
L 180.946311 405.033823 
L 179.716657 404.99094 
L 178.487003 405.019757 
L 177.257348 405.112323 
L 176.027694 405.12016 
L 174.79804 405.138846 
L 173.568385 405.156101 
L 172.338731 405.156114 
L 171.109077 405.119291 
L 169.879422 405.021477 
L 168.649768 404.905437 
L 168.373658 404.844711 
L 167.420114 404.528505 
L 166.190459 404.000999 
L 165.65025 403.544223 
L 165.254688 402.243735 
L 165.468447 400.943246 
L 166.032327 399.642758 
L 166.190459 399.394783 
L 166.897267 398.34227 
L 167.420114 397.780293 
L 168.026038 397.041782 
L 168.649768 396.436417 
L 169.511894 395.741293 
L 169.879422 395.492619 
L 171.109077 394.655635 
L 171.48338 394.440805 
L 172.338731 394.01454 
L 173.568385 393.516953 
L 174.592452 393.140317 
L 174.79804 393.070921 
L 176.027694 392.72342 
L 177.257348 392.46222 
L 178.487003 392.300842 
L 179.716657 392.136081 
L 180.946311 391.954104 
L 182.175966 391.860993 
L 183.081189 391.839829 
L 183.40562 391.832656 
L 184.635274 391.77337 
L 185.864929 391.766929 
L 187.094583 391.755579 
L 188.324237 391.757157 
L 189.553892 391.795853 
L 190.783546 391.799904 
L 191.848077 391.839829 
L 192.013201 391.846058 
L 193.242855 391.874869 
L 194.472509 391.947153 
L 195.702164 392.069286 
L 196.931818 392.150407 
L 198.161472 392.287132 
L 199.391127 392.515227 
L 200.620781 392.763015 
L 201.850435 393.064602 
L 202.102847 393.140317 
L 203.08009 393.407134 
L 204.309744 393.756884 
L 205.539398 394.212703 
L 206.067321 394.440805 
L 206.769053 394.734997 
L 207.998707 395.261428 
L 208.962674 395.741293 
L 209.228361 395.870419 
L 210.458016 396.415734 
L 211.68767 397.02822 
L 211.717454 397.041782 
L 212.917324 397.53093 
L 214.146979 398.023383 
L 214.916863 398.34227 
L 215.376633 398.517033 
L 216.606287 398.975519 
L 217.835942 399.437321 
L 218.370622 399.642758 
L 219.065596 399.885264 
L 220.29525 400.408959 
L 221.34547 400.943246 
L 221.524905 401.03106 
L 222.754559 401.650257 
L 223.748373 402.243735 
L 223.984213 402.380982 
L 225.213868 403.317317 
L 225.502794 403.544223 
L 226.443522 404.335351 
L 226.949483 404.844711 
L 227.673176 405.612281 
L 228.127776 406.145199 
L 228.902831 407.240594 
L 229.043243 407.445688 
L 229.829972 408.746176 
L 230.132485 409.338106 
L 230.503549 410.046664 
L 231.10402 411.347152 
L 231.362139 412.003 
L 231.635313 412.647641 
L 232.124108 413.948129 
L 232.55634 415.248617 
L 232.591794 415.359261 
L 232.98241 416.549105 
L 233.351664 417.849594 
L 233.689809 419.150082 
L 233.821448 419.649589 
L 234.063027 420.45057 
L 234.41958 421.751058 
L 234.747464 423.051546 
L 235.050635 424.352035 
L 235.051103 424.354215 
L 235.36813 425.652523 
L 235.634772 426.953011 
L 235.86938 428.253499 
L 236.032685 429.553988 
L 236.159902 430.854476 
L 236.212249 432.154964 
L 236.172591 433.455452 
L 236.04145 434.755941 
L 235.797686 436.056429 
L 235.458386 437.356917 
L 235.051103 438.422817 
L 234.962339 438.657405 
L 234.352355 439.957894 
L 233.821448 440.878054 
L 233.598382 441.258382 
L 232.727307 442.55887 
L 232.591794 442.741101 
L 231.793862 443.859358 
L 231.362139 444.405073 
L 230.704952 445.159847 
L 230.132485 445.768656 
L 229.47958 446.460335 
L 228.902831 447.056745 
L 228.219279 447.760823 
L 227.673176 448.281973 
L 226.852193 449.061311 
L 226.443522 449.457755 
L 225.442136 450.3618 
L 225.213868 450.557973 
L 223.984213 451.575947 
L 223.881842 451.662288 
L 222.754559 452.602696 
L 222.29981 452.962776 
L 221.524905 453.573104 
L 220.61018 454.263264 
L 220.29525 454.517039 
L 219.069382 455.563753 
L 219.065596 455.567 
L 217.835942 456.582943 
L 217.48696 456.864241 
L 216.606287 457.599859 
L 215.956925 458.164729 
L 215.376633 458.692508 
L 214.359441 459.465217 
L 214.146979 459.630639 
L 212.917324 460.543316 
L 212.582931 460.765705 
L 211.68767 461.403496 
L 210.699346 462.066194 
L 210.458016 462.230206 
L 209.228361 462.95751 
L 208.454804 463.366682 
L 207.998707 463.613821 
L 206.769053 464.210994 
L 205.664866 464.66717 
L 205.539398 464.722755 
L 204.309744 465.267467 
L 203.08009 465.714306 
L 202.30796 465.967658 
L 201.850435 466.130597 
L 200.620781 466.500973 
L 199.391127 466.791299 
L 198.161472 467.045673 
L 196.931818 467.239902 
L 196.744012 467.268147 
L 195.702164 467.439777 
L 194.472509 467.543458 
L 193.242855 467.552283 
L 192.013201 467.560455 
L 190.783546 467.481077 
L 189.553892 467.410616 
L 188.324237 467.27752 
z
M 175.63609 437.356917 
L 174.79804 436.991441 
L 173.568385 436.427513 
L 172.866496 436.056429 
L 172.338731 435.695445 
L 171.109077 434.793891 
L 171.053613 434.755941 
L 169.879422 433.820477 
L 169.504084 433.455452 
L 168.649768 432.344307 
L 168.491238 432.154964 
L 167.550177 430.854476 
L 167.420114 430.584964 
L 166.952293 429.553988 
L 166.425526 428.253499 
L 166.331414 426.953011 
L 166.467702 425.652523 
L 166.850676 424.352035 
L 167.420114 423.409225 
L 167.652182 423.051546 
L 168.649768 422.013755 
L 168.898401 421.751058 
L 169.879422 420.833926 
L 170.326053 420.45057 
L 171.109077 420.006257 
L 172.338731 419.471476 
L 173.11432 419.150082 
L 173.568385 418.990438 
L 174.79804 418.69016 
L 176.027694 418.428078 
L 177.257348 418.343509 
L 178.487003 418.336859 
L 179.716657 418.403787 
L 180.946311 418.552924 
L 182.175966 418.775013 
L 183.40562 419.082898 
L 183.578421 419.150082 
L 184.635274 419.60464 
L 185.864929 420.128344 
L 186.597329 420.45057 
L 187.094583 420.724052 
L 188.324237 421.429969 
L 188.95079 421.751058 
L 189.553892 422.093206 
L 190.783546 422.731541 
L 191.379899 423.051546 
L 192.013201 423.440563 
L 193.131866 424.352035 
L 193.242855 424.474912 
L 194.411575 425.652523 
L 194.472509 425.723239 
L 195.367403 426.953011 
L 195.702164 427.699189 
L 195.865896 428.253499 
L 195.989532 429.553988 
L 195.876866 430.854476 
L 195.702164 431.548448 
L 195.489371 432.154964 
L 194.749088 433.455452 
L 194.472509 433.801297 
L 193.553357 434.755941 
L 193.242855 435.011746 
L 192.042434 436.056429 
L 192.013201 436.075744 
L 190.783546 436.912843 
L 189.902873 437.356917 
L 189.553892 437.487831 
L 188.324237 437.836545 
L 187.094583 438.140678 
L 185.864929 438.410688 
L 184.635274 438.483163 
L 183.40562 438.55989 
L 182.175966 438.5239 
L 180.946311 438.39694 
L 179.716657 438.25252 
L 178.487003 438.068959 
L 177.257348 437.828203 
L 176.027694 437.480112 
z
" style="fill:#99c5f8;"/>
   </g>
   <g id="PathCollection_2">
    <path clip-path="url(#p0ac684cfa3)" d="M 188.324237 467.27752 
L 189.553892 467.410616 
L 190.783546 467.481077 
L 192.013201 467.560455 
L 193.242855 467.552283 
L 194.472509 467.543458 
L 195.702164 467.439777 
L 196.744012 467.268147 
L 196.931818 467.239902 
L 198.161472 467.045673 
L 199.391127 466.791299 
L 200.620781 466.500973 
L 201.850435 466.130597 
L 202.30796 465.967658 
L 203.08009 465.714306 
L 204.309744 465.267467 
L 205.539398 464.722755 
L 205.664866 464.66717 
L 206.769053 464.210994 
L 207.998707 463.613821 
L 208.454804 463.366682 
L 209.228361 462.95751 
L 210.458016 462.230206 
L 210.699346 462.066194 
L 211.68767 461.403496 
L 212.582931 460.765705 
L 212.917324 460.543316 
L 214.146979 459.630639 
L 214.359441 459.465217 
L 215.376633 458.692508 
L 215.956925 458.164729 
L 216.606287 457.599859 
L 217.48696 456.864241 
L 217.835942 456.582943 
L 219.065596 455.567 
L 219.069382 455.563753 
L 220.29525 454.517039 
L 220.61018 454.263264 
L 221.524905 453.573104 
L 222.29981 452.962776 
L 222.754559 452.602696 
L 223.881842 451.662288 
L 223.984213 451.575947 
L 225.213868 450.557973 
L 225.442136 450.3618 
L 226.443522 449.457755 
L 226.852193 449.061311 
L 227.673176 448.281973 
L 228.219279 447.760823 
L 228.902831 447.056745 
L 229.47958 446.460335 
L 230.132485 445.768656 
L 230.704952 445.159847 
L 231.362139 444.405073 
L 231.793862 443.859358 
L 232.591794 442.741101 
L 232.727307 442.55887 
L 233.598382 441.258382 
L 233.821448 440.878054 
L 234.352355 439.957894 
L 234.962339 438.657405 
L 235.051103 438.422817 
L 235.458386 437.356917 
L 235.797686 436.056429 
L 236.04145 434.755941 
L 236.172591 433.455452 
L 236.212249 432.154964 
L 236.159902 430.854476 
L 236.032685 429.553988 
L 235.86938 428.253499 
L 235.634772 426.953011 
L 235.36813 425.652523 
L 235.051103 424.354215 
L 235.050635 424.352035 
L 234.747464 423.051546 
L 234.41958 421.751058 
L 234.063027 420.45057 
L 233.821448 419.649589 
L 233.689809 419.150082 
L 233.351664 417.849594 
L 232.98241 416.549105 
L 232.591794 415.359261 
L 232.55634 415.248617 
L 232.124108 413.948129 
L 231.635313 412.647641 
L 231.362139 412.003 
L 231.10402 411.347152 
L 230.503549 410.046664 
L 230.132485 409.338106 
L 229.829972 408.746176 
L 229.043243 407.445688 
L 228.902831 407.240594 
L 228.127776 406.145199 
L 227.673176 405.612281 
L 226.949483 404.844711 
L 226.443522 404.335351 
L 225.502794 403.544223 
L 225.213868 403.317317 
L 223.984213 402.380982 
L 223.748373 402.243735 
L 222.754559 401.650257 
L 221.524905 401.03106 
L 221.34547 400.943246 
L 220.29525 400.408959 
L 219.065596 399.885264 
L 218.370622 399.642758 
L 217.835942 399.437321 
L 216.606287 398.975519 
L 215.376633 398.517033 
L 214.916863 398.34227 
L 214.146979 398.023383 
L 212.917324 397.53093 
L 211.717454 397.041782 
L 211.68767 397.02822 
L 210.458016 396.415734 
L 209.228361 395.870419 
L 208.962674 395.741293 
L 207.998707 395.261428 
L 206.769053 394.734997 
L 206.067321 394.440805 
L 205.539398 394.212703 
L 204.309744 393.756884 
L 203.08009 393.407134 
L 202.102847 393.140317 
L 201.850435 393.064602 
L 200.620781 392.763015 
L 199.391127 392.515227 
L 198.161472 392.287132 
L 196.931818 392.150407 
L 195.702164 392.069286 
L 194.472509 391.947153 
L 193.242855 391.874869 
L 192.013201 391.846058 
L 191.848077 391.839829 
L 190.783546 391.799904 
L 189.553892 391.795853 
L 188.324237 391.757157 
L 187.094583 391.755579 
L 185.864929 391.766929 
L 184.635274 391.77337 
L 183.40562 391.832656 
L 183.081189 391.839829 
L 182.175966 391.860993 
L 180.946311 391.954104 
L 179.716657 392.136081 
L 178.487003 392.300842 
L 177.257348 392.46222 
L 176.027694 392.72342 
L 174.79804 393.070921 
L 174.592452 393.140317 
L 173.568385 393.516953 
L 172.338731 394.01454 
L 171.48338 394.440805 
L 171.109077 394.655635 
L 169.879422 395.492619 
L 169.511894 395.741293 
L 168.649768 396.436417 
L 168.026038 397.041782 
L 167.420114 397.780293 
L 166.897267 398.34227 
L 166.190459 399.394783 
L 166.032327 399.642758 
L 165.468447 400.943246 
L 165.254688 402.243735 
L 165.65025 403.544223 
L 166.190459 404.000999 
L 167.420114 404.528505 
L 168.373658 404.844711 
L 168.649768 404.905437 
L 169.879422 405.021477 
L 171.109077 405.119291 
L 172.338731 405.156114 
L 173.568385 405.156101 
L 174.79804 405.138846 
L 176.027694 405.12016 
L 177.257348 405.112323 
L 178.487003 405.019757 
L 179.716657 404.99094 
L 180.946311 405.033823 
L 182.175966 405.046345 
L 183.40562 405.078916 
L 184.635274 405.339655 
L 185.864929 405.598712 
L 187.094583 405.955217 
L 187.615281 406.145199 
L 188.324237 406.406354 
L 189.553892 406.976638 
L 190.486505 407.445688 
L 190.783546 407.598278 
L 192.013201 408.247302 
L 192.864828 408.746176 
L 193.242855 408.970947 
L 194.472509 409.715885 
L 195.032692 410.046664 
L 195.702164 410.448956 
L 196.928646 411.347152 
L 196.931818 411.349521 
L 198.161472 412.284954 
L 198.641993 412.647641 
L 199.391127 413.227775 
L 200.277748 413.948129 
L 200.620781 414.232727 
L 201.789872 415.248617 
L 201.850435 415.303349 
L 203.08009 416.519826 
L 203.105796 416.549105 
L 204.163363 417.849594 
L 204.309744 418.04057 
L 205.062662 419.150082 
L 205.539398 419.902445 
L 205.854985 420.45057 
L 206.556857 421.751058 
L 206.769053 422.181292 
L 207.146557 423.051546 
L 207.67141 424.352035 
L 207.998707 425.310333 
L 208.102755 425.652523 
L 208.447498 426.953011 
L 208.725824 428.253499 
L 208.881633 429.553988 
L 208.930409 430.854476 
L 208.813848 432.154964 
L 208.534834 433.455452 
L 208.095961 434.755941 
L 207.998707 434.957898 
L 207.413294 436.056429 
L 206.769053 436.961543 
L 206.463448 437.356917 
L 205.539398 438.408671 
L 205.320266 438.657405 
L 204.309744 439.658103 
L 203.992959 439.957894 
L 203.08009 440.763316 
L 202.504379 441.258382 
L 201.850435 441.782026 
L 200.860152 442.55887 
L 200.620781 442.736527 
L 199.391127 443.639444 
L 199.076402 443.859358 
L 198.161472 444.445405 
L 196.931818 445.152164 
L 196.918375 445.159847 
L 195.702164 445.800477 
L 194.472509 446.331192 
L 194.115477 446.460335 
L 193.242855 446.750759 
L 192.013201 447.11477 
L 190.783546 447.480583 
L 189.553892 447.722565 
L 189.277878 447.760823 
L 188.324237 447.878772 
L 187.094583 448.046467 
L 185.864929 448.18468 
L 184.635274 448.25941 
L 183.40562 448.35203 
L 182.175966 448.413147 
L 180.946311 448.448376 
L 179.716657 448.536952 
L 178.487003 448.623033 
L 177.257348 448.736708 
L 176.027694 448.776849 
L 174.79804 448.858692 
L 173.568385 448.880684 
L 172.338731 448.870489 
L 171.109077 448.890646 
L 169.879422 448.87233 
L 168.649768 448.747416 
L 167.420114 448.635345 
L 166.190459 448.405593 
L 164.960805 448.035763 
L 163.917607 447.760823 
L 163.731151 447.709938 
L 162.501496 447.313625 
L 161.271842 446.935019 
L 160.042188 446.540294 
L 159.721376 446.460335 
L 158.812533 446.219195 
L 157.582879 445.96535 
L 156.353225 445.825684 
L 155.12357 445.798237 
L 153.893916 446.001569 
L 152.951696 446.460335 
L 152.664262 446.649239 
L 151.626716 447.760823 
L 151.434607 448.136507 
L 151.124047 449.061311 
L 150.960295 450.3618 
L 150.968288 451.662288 
L 151.18397 452.962776 
L 151.434607 453.744426 
L 151.613528 454.263264 
L 152.260769 455.563753 
L 152.664262 456.160147 
L 153.157215 456.864241 
L 153.893916 457.675227 
L 154.414384 458.164729 
L 155.12357 458.738251 
L 156.091445 459.465217 
L 156.353225 459.640017 
L 157.582879 460.31559 
L 158.584191 460.765705 
L 158.812533 460.865058 
L 160.042188 461.296221 
L 161.271842 461.680874 
L 162.501496 462.060376 
L 162.521921 462.066194 
L 163.731151 462.392636 
L 164.960805 462.815035 
L 166.190459 463.174841 
L 166.776158 463.366682 
L 167.420114 463.569792 
L 168.649768 463.997657 
L 169.879422 464.345638 
L 170.960832 464.66717 
L 171.109077 464.710538 
L 172.338731 464.985129 
L 173.568385 465.268222 
L 174.79804 465.486834 
L 176.027694 465.736247 
L 177.257348 465.908016 
L 177.663223 465.967658 
L 178.487003 466.094932 
L 179.716657 466.284082 
L 180.946311 466.432587 
L 182.175966 466.541229 
L 183.40562 466.692918 
L 184.635274 466.845077 
L 185.864929 466.987204 
L 187.094583 467.124913 
L 188.254253 467.268147 
z
" style="fill:#006fed;"/>
   </g>
   <g id="LineCollection_1">
    <path clip-path="url(#p0ac684cfa3)" d="M 195.702164 481.647914 
L 198.161472 481.726006 
L 200.620781 481.354858 
L 201.850435 481.067703 
L 207.458742 478.972541 
L 211.68767 477.394565 
L 212.917324 476.909602 
L 216.606287 474.91472 
L 219.065596 473.164324 
L 221.524905 470.901787 
L 225.528406 465.967658 
L 227.84752 463.366682 
L 229.293134 462.066194 
L 231.362139 460.592742 
L 238.740066 456.321489 
L 239.96972 455.410093 
L 242.429029 452.635438 
L 243.658683 450.617435 
L 244.432352 449.061311 
L 245.466579 446.460335 
L 246.934257 441.258382 
L 247.347646 438.531551 
L 247.522095 436.056429 
L 247.482843 433.455452 
L 247.0748 430.854476 
L 246.34709 428.253499 
L 245.941452 426.953011 
L 244.360293 421.751058 
L 243.579011 417.849594 
L 242.98822 412.647641 
L 242.547424 408.746176 
L 241.777776 404.844711 
L 240.914396 402.243735 
L 239.96972 400.217996 
L 239.640139 399.642758 
L 238.679698 398.34227 
L 237.510411 396.98156 
L 236.280757 395.373123 
L 235.051103 394.241292 
L 231.539486 391.839829 
L 227.673176 389.947277 
L 226.01681 389.238852 
L 221.524905 387.563431 
L 219.065596 386.394855 
L 215.376633 384.695527 
L 212.917324 383.630093 
L 210.458016 382.769079 
L 209.228361 382.440994 
L 207.998707 382.102466 
L 197.241727 380.135435 
L 195.702164 379.751445 
L 193.242855 379.344547 
L 188.324237 379.237819 
L 184.635274 379.656786 
L 181.952127 380.135435 
L 168.649768 381.771348 
L 166.190459 382.450414 
L 163.731151 383.469346 
L 160.447884 385.337387 
L 160.042188 385.628797 
L 157.406087 387.938364 
L 154.778741 390.53934 
L 152.435097 393.140317 
L 145.982677 399.642758 
L 141.597372 404.532016 
L 137.908409 408.886982 
L 135.449101 411.437651 
L 131.760138 414.77789 
L 130.530483 415.621648 
L 126.830432 419.150082 
L 125.611866 420.825352 
L 125.043552 421.751058 
L 124.382212 423.744821 
L 124.227446 424.352035 
L 124.06682 425.652523 
L 124.031713 426.953011 
L 124.291089 429.553988 
L 124.83545 432.154964 
L 125.690722 434.755941 
L 126.230143 436.056429 
L 127.718763 438.657405 
L 134.797909 449.061311 
L 135.545929 450.3618 
L 137.562653 454.263264 
L 140.367718 459.492717 
L 140.963963 460.765705 
L 143.380979 464.66717 
L 145.323386 467.268147 
L 147.745644 469.949177 
L 148.99354 471.169611 
L 151.434607 473.054294 
L 153.893916 474.64438 
L 157.582879 476.282289 
L 162.501496 477.582138 
L 166.190459 478.080466 
L 169.879422 478.310468 
L 177.257348 478.218565 
L 178.487003 478.112938 
L 182.175966 478.344779 
L 183.40562 478.456072 
L 187.094583 479.352726 
L 192.013201 480.857395 
L 195.702164 481.647914 
L 195.702164 481.647914 
" style="fill:none;stroke:#006fed;stroke-opacity:0.5;stroke-width:0.6609375;"/>
    <path clip-path="url(#p0ac684cfa3)" d="M 176.027694 437.480112 
L 175.63609 437.356917 
L 174.79804 436.991441 
L 173.568385 436.427513 
L 172.866496 436.056429 
L 172.338731 435.695445 
L 171.109077 434.793891 
L 171.053613 434.755941 
L 169.879422 433.820477 
L 169.504084 433.455452 
L 168.649768 432.344307 
L 168.491238 432.154964 
L 167.550177 430.854476 
L 167.420114 430.584964 
L 166.952293 429.553988 
L 166.425526 428.253499 
L 166.331414 426.953011 
L 166.467702 425.652523 
L 166.850676 424.352035 
L 167.420114 423.409225 
L 167.652182 423.051546 
L 168.649768 422.013755 
L 168.898401 421.751058 
L 169.879422 420.833926 
L 170.326053 420.45057 
L 171.109077 420.006257 
L 172.338731 419.471476 
L 173.11432 419.150082 
L 173.568385 418.990438 
L 174.79804 418.69016 
L 176.027694 418.428078 
L 177.257348 418.343509 
L 178.487003 418.336859 
L 179.716657 418.403787 
L 180.946311 418.552924 
L 182.175966 418.775013 
L 183.40562 419.082898 
L 183.578421 419.150082 
L 184.635274 419.60464 
L 185.864929 420.128344 
L 186.597329 420.45057 
L 187.094583 420.724052 
L 188.324237 421.429969 
L 188.95079 421.751058 
L 189.553892 422.093206 
L 190.783546 422.731541 
L 191.379899 423.051546 
L 192.013201 423.440563 
L 193.131866 424.352035 
L 193.242855 424.474912 
L 194.411575 425.652523 
L 194.472509 425.723239 
L 195.367403 426.953011 
L 195.702164 427.699189 
L 195.865896 428.253499 
L 195.989532 429.553988 
L 195.876866 430.854476 
L 195.702164 431.548448 
L 195.489371 432.154964 
L 194.749088 433.455452 
L 194.472509 433.801297 
L 193.553357 434.755941 
L 193.242855 435.011746 
L 192.042434 436.056429 
L 192.013201 436.075744 
L 190.783546 436.912843 
L 189.902873 437.356917 
L 189.553892 437.487831 
L 188.324237 437.836545 
L 187.094583 438.140678 
L 185.864929 438.410688 
L 184.635274 438.483163 
L 183.40562 438.55989 
L 182.175966 438.5239 
L 180.946311 438.39694 
L 179.716657 438.25252 
L 178.487003 438.068959 
L 177.257348 437.828203 
L 176.027694 437.480112 
" style="fill:none;stroke:#006fed;stroke-opacity:0.5;stroke-width:0.6609375;"/>
   </g>
   <g id="patch_13">
    <path d="M 84.111032 276.316897 
L 345.41258 276.316897 
" style="fill:none;stroke:#000000;stroke-linecap:square;stroke-linejoin:miter;"/>
   </g>
   <g id="patch_14">
    <path d="M 345.41258 536.260688 
L 345.41258 276.316897 
" style="fill:none;stroke:#000000;stroke-linecap:square;stroke-linejoin:miter;"/>
   </g>
   <g id="patch_15">
    <path d="M 84.111032 536.260688 
L 345.41258 536.260688 
" style="fill:none;stroke:#000000;stroke-linecap:square;stroke-linejoin:miter;"/>
   </g>
   <g id="patch_16">
    <path d="M 84.111032 536.260688 
L 84.111032 276.316897 
" style="fill:none;stroke:#000000;stroke-linecap:square;stroke-linejoin:miter;"/>
   </g>
   <g id="matplotlib.axis_5">
    <g id="xtick_9">
     <g id="line2d_19">
      <g>
       <use style="stroke:#000000;stroke-width:0.5;" x="129.375632346" xlink:href="#m896fe9f87b" y="536.260687943"/>
      </g>
     </g>
     <g id="line2d_20">
      <g>
       <use style="stroke:#000000;stroke-width:0.5;" x="129.375632346" xlink:href="#m8f805c0c46" y="276.316897163"/>
      </g>
     </g>
     <g id="text_6">
      <!-- −0.4 -->
      <defs>
       <path d="M 37.796875 64.3125 
L 12.890625 25.390625 
L 37.796875 25.390625 
z
M 35.203125 72.90625 
L 47.609375 72.90625 
L 47.609375 25.390625 
L 58.015625 25.390625 
L 58.015625 17.1875 
L 47.609375 17.1875 
L 47.609375 0 
L 37.796875 0 
L 37.796875 17.1875 
L 4.890625 17.1875 
L 4.890625 26.703125 
z
" id="BitstreamVeraSans-Roman-34"/>
      </defs>
      <g transform="translate(116.494359152 548.322155228)scale(0.10609375 -0.10609375)">
       <use xlink:href="#BitstreamVeraSans-Roman-2212"/>
       <use x="83.7890625" xlink:href="#BitstreamVeraSans-Roman-30"/>
       <use x="147.412109375" xlink:href="#BitstreamVeraSans-Roman-2e"/>
       <use x="179.19921875" xlink:href="#BitstreamVeraSans-Roman-34"/>
      </g>
     </g>
    </g>
    <g id="xtick_10">
     <g id="line2d_21">
      <g>
       <use style="stroke:#000000;stroke-width:0.5;" x="183.792887898" xlink:href="#m896fe9f87b" y="536.260687943"/>
      </g>
     </g>
     <g id="line2d_22">
      <g>
       <use style="stroke:#000000;stroke-width:0.5;" x="183.792887898" xlink:href="#m8f805c0c46" y="276.316897163"/>
      </g>
     </g>
     <g id="text_7">
      <!-- 0.0 -->
      <g transform="translate(175.356777058 548.322155228)scale(0.10609375 -0.10609375)">
       <use xlink:href="#BitstreamVeraSans-Roman-30"/>
       <use x="63.623046875" xlink:href="#BitstreamVeraSans-Roman-2e"/>
       <use x="95.41015625" xlink:href="#BitstreamVeraSans-Roman-30"/>
      </g>
     </g>
    </g>
    <g id="xtick_11">
     <g id="line2d_23">
      <g>
       <use style="stroke:#000000;stroke-width:0.5;" x="238.21014345" xlink:href="#m896fe9f87b" y="536.260687943"/>
      </g>
     </g>
     <g id="line2d_24">
      <g>
       <use style="stroke:#000000;stroke-width:0.5;" x="238.21014345" xlink:href="#m8f805c0c46" y="276.316897163"/>
      </g>
     </g>
     <g id="text_8">
      <!-- 0.4 -->
      <g transform="translate(229.77403261 548.322155228)scale(0.10609375 -0.10609375)">
       <use xlink:href="#BitstreamVeraSans-Roman-30"/>
       <use x="63.623046875" xlink:href="#BitstreamVeraSans-Roman-2e"/>
       <use x="95.41015625" xlink:href="#BitstreamVeraSans-Roman-34"/>
      </g>
     </g>
    </g>
    <g id="xtick_12">
     <g id="line2d_25">
      <g>
       <use style="stroke:#000000;stroke-width:0.5;" x="292.627399003" xlink:href="#m896fe9f87b" y="536.260687943"/>
      </g>
     </g>
     <g id="line2d_26">
      <g>
       <use style="stroke:#000000;stroke-width:0.5;" x="292.627399003" xlink:href="#m8f805c0c46" y="276.316897163"/>
      </g>
     </g>
     <g id="text_9">
      <!-- 0.8 -->
      <defs>
       <path d="M 31.78125 34.625 
Q 24.75 34.625 20.71875 30.859375 
Q 16.703125 27.09375 16.703125 20.515625 
Q 16.703125 13.921875 20.71875 10.15625 
Q 24.75 6.390625 31.78125 6.390625 
Q 38.8125 6.390625 42.859375 10.171875 
Q 46.921875 13.96875 46.921875 20.515625 
Q 46.921875 27.09375 42.890625 30.859375 
Q 38.875 34.625 31.78125 34.625 
M 21.921875 38.8125 
Q 15.578125 40.375 12.03125 44.71875 
Q 8.5 49.078125 8.5 55.328125 
Q 8.5 64.0625 14.71875 69.140625 
Q 20.953125 74.21875 31.78125 74.21875 
Q 42.671875 74.21875 48.875 69.140625 
Q 55.078125 64.0625 55.078125 55.328125 
Q 55.078125 49.078125 51.53125 44.71875 
Q 48 40.375 41.703125 38.8125 
Q 48.828125 37.15625 52.796875 32.3125 
Q 56.78125 27.484375 56.78125 20.515625 
Q 56.78125 9.90625 50.3125 4.234375 
Q 43.84375 -1.421875 31.78125 -1.421875 
Q 19.734375 -1.421875 13.25 4.234375 
Q 6.78125 9.90625 6.78125 20.515625 
Q 6.78125 27.484375 10.78125 32.3125 
Q 14.796875 37.15625 21.921875 38.8125 
M 18.3125 54.390625 
Q 18.3125 48.734375 21.84375 45.5625 
Q 25.390625 42.390625 31.78125 42.390625 
Q 38.140625 42.390625 41.71875 45.5625 
Q 45.3125 48.734375 45.3125 54.390625 
Q 45.3125 60.0625 41.71875 63.234375 
Q 38.140625 66.40625 31.78125 66.40625 
Q 25.390625 66.40625 21.84375 63.234375 
Q 18.3125 60.0625 18.3125 54.390625 
" id="BitstreamVeraSans-Roman-38"/>
      </defs>
      <g transform="translate(284.191288163 548.322155228)scale(0.10609375 -0.10609375)">
       <use xlink:href="#BitstreamVeraSans-Roman-30"/>
       <use x="63.623046875" xlink:href="#BitstreamVeraSans-Roman-2e"/>
       <use x="95.41015625" xlink:href="#BitstreamVeraSans-Roman-38"/>
      </g>
     </g>
    </g>
    <g id="text_10">
     <!-- $\alpha$ -->
     <defs>
      <path d="M 20.125 -1.125 
Q 15.375 -1.125 11.6875 1.125 
Q 8.015625 3.375 6 7.171875 
Q 4 10.984375 4 15.828125 
Q 4 22.609375 7.78125 29.25 
Q 11.578125 35.890625 17.84375 40.03125 
Q 24.125 44.1875 31 44.1875 
Q 36.078125 44.1875 39.9375 41.53125 
Q 43.796875 38.875 45.796875 34.453125 
Q 47.796875 30.03125 47.796875 25 
L 47.90625 18.3125 
Q 51.3125 23.046875 53.6875 28.140625 
Q 56.0625 33.25 57.328125 38.71875 
Q 57.515625 39.3125 58.109375 39.3125 
L 59.28125 39.3125 
Q 60.203125 39.3125 60.203125 38.375 
Q 60.203125 38.28125 60.109375 38.09375 
Q 58.9375 33.5 57.171875 29.265625 
Q 55.421875 25.046875 53.046875 21.09375 
Q 50.6875 17.140625 47.90625 13.921875 
Q 47.90625 1.515625 50.78125 1.515625 
Q 52.640625 1.515625 53.828125 2.609375 
Q 55.03125 3.71875 55.9375 5.328125 
Q 56.84375 6.9375 57.078125 6.984375 
L 58.296875 6.984375 
Q 59.078125 6.984375 59.078125 6 
Q 59.078125 3.515625 56.21875 1.1875 
Q 53.375 -1.125 50.59375 -1.125 
Q 46.96875 -1.125 44.578125 1.21875 
Q 42.1875 3.5625 41.3125 7.328125 
Q 36.625 3.328125 31.15625 1.09375 
Q 25.6875 -1.125 20.125 -1.125 
M 20.3125 1.515625 
Q 31 1.515625 40.828125 10.296875 
Q 40.765625 10.890625 40.671875 11.734375 
Q 40.578125 12.59375 40.578125 12.703125 
L 40.578125 23.484375 
Q 40.578125 41.609375 30.8125 41.609375 
Q 24.953125 41.609375 20.546875 36.59375 
Q 16.15625 31.59375 13.9375 24.625 
Q 11.71875 17.671875 11.71875 11.921875 
Q 11.71875 7.5625 13.9375 4.53125 
Q 16.15625 1.515625 20.3125 1.515625 
" id="Cmmi10-ae"/>
     </defs>
     <g transform="translate(210.406805851 568.137948685)scale(0.13609375 -0.13609375)">
      <use transform="translate(0.0 0.8125)" xlink:href="#Cmmi10-ae"/>
     </g>
    </g>
   </g>
   <g id="matplotlib.axis_6">
    <g id="ytick_1">
     <g id="line2d_27">
      <defs>
       <path d="M 0 0 
L 4 0 
" id="m6e7ef94bf3" style="stroke:#000000;stroke-width:0.5;"/>
      </defs>
      <g>
       <use style="stroke:#000000;stroke-width:0.5;" x="84.1110319149" xlink:href="#m6e7ef94bf3" y="489.516968925"/>
      </g>
     </g>
     <g id="line2d_28">
      <defs>
       <path d="M 0 0 
L -4 0 
" id="mc55c55376b" style="stroke:#000000;stroke-width:0.5;"/>
      </defs>
      <g>
       <use style="stroke:#000000;stroke-width:0.5;" x="345.412579787" xlink:href="#mc55c55376b" y="489.516968925"/>
      </g>
     </g>
     <g id="text_11">
      <!-- −0.6 -->
      <g transform="translate(54.3484855282 492.444493339)scale(0.10609375 -0.10609375)">
       <use xlink:href="#BitstreamVeraSans-Roman-2212"/>
       <use x="83.7890625" xlink:href="#BitstreamVeraSans-Roman-30"/>
       <use x="147.412109375" xlink:href="#BitstreamVeraSans-Roman-2e"/>
       <use x="179.19921875" xlink:href="#BitstreamVeraSans-Roman-36"/>
      </g>
     </g>
    </g>
    <g id="ytick_2">
     <g id="line2d_29">
      <g>
       <use style="stroke:#000000;stroke-width:0.5;" x="84.1110319149" xlink:href="#m6e7ef94bf3" y="429.356657141"/>
      </g>
     </g>
     <g id="line2d_30">
      <g>
       <use style="stroke:#000000;stroke-width:0.5;" x="345.412579787" xlink:href="#mc55c55376b" y="429.356657141"/>
      </g>
     </g>
     <g id="text_12">
      <!-- 0.0 -->
      <g transform="translate(63.2388102352 432.284181555)scale(0.10609375 -0.10609375)">
       <use xlink:href="#BitstreamVeraSans-Roman-30"/>
       <use x="63.623046875" xlink:href="#BitstreamVeraSans-Roman-2e"/>
       <use x="95.41015625" xlink:href="#BitstreamVeraSans-Roman-30"/>
      </g>
     </g>
    </g>
    <g id="ytick_3">
     <g id="line2d_31">
      <g>
       <use style="stroke:#000000;stroke-width:0.5;" x="84.1110319149" xlink:href="#m6e7ef94bf3" y="369.196345357"/>
      </g>
     </g>
     <g id="line2d_32">
      <g>
       <use style="stroke:#000000;stroke-width:0.5;" x="345.412579787" xlink:href="#mc55c55376b" y="369.196345357"/>
      </g>
     </g>
     <g id="text_13">
      <!-- 0.6 -->
      <g transform="translate(63.2388102352 372.123869771)scale(0.10609375 -0.10609375)">
       <use xlink:href="#BitstreamVeraSans-Roman-30"/>
       <use x="63.623046875" xlink:href="#BitstreamVeraSans-Roman-2e"/>
       <use x="95.41015625" xlink:href="#BitstreamVeraSans-Roman-36"/>
      </g>
     </g>
    </g>
    <g id="ytick_4">
     <g id="line2d_33">
      <g>
       <use style="stroke:#000000;stroke-width:0.5;" x="84.1110319149" xlink:href="#m6e7ef94bf3" y="309.036033573"/>
      </g>
     </g>
     <g id="line2d_34">
      <g>
       <use style="stroke:#000000;stroke-width:0.5;" x="345.412579787" xlink:href="#mc55c55376b" y="309.036033573"/>
      </g>
     </g>
     <g id="text_14">
      <!-- 1.2 -->
      <g transform="translate(63.2388102352 311.963557987)scale(0.10609375 -0.10609375)">
       <use xlink:href="#BitstreamVeraSans-Roman-31"/>
       <use x="63.623046875" xlink:href="#BitstreamVeraSans-Roman-2e"/>
       <use x="95.41015625" xlink:href="#BitstreamVeraSans-Roman-32"/>
      </g>
     </g>
    </g>
    <g id="text_15">
     <!-- $\beta$ -->
     <g transform="translate(46.5181608211 410.167464428)rotate(-90.0)scale(0.13609375 -0.13609375)">
      <use transform="translate(0.0 0.484375)" xlink:href="#Cmmi10-af"/>
     </g>
    </g>
   </g>
  </g>
 </g>
 <defs>
  <clipPath id="p0ac684cfa3">
   <rect height="259.94379078" width="261.301547872" x="84.1110319149" y="276.316897163"/>
  </clipPath>
  <clipPath id="p1424941677">
   <rect height="259.94379078" width="261.301547872" x="345.412579787" y="276.316897163"/>
  </clipPath>
  <clipPath id="p482a01d602">
   <rect height="259.94379078" width="261.301547872" x="84.1110319149" y="16.373106383"/>
  </clipPath>
 </defs>
</svg>
