<svg xmlns="http://www.w3.org/2000/svg" xmlns:xlink="http://www.w3.org/1999/xlink" viewBox="0 0 283.46 283.46"><defs><style>.cls-1{fill:#fff;stroke:#fff;stroke-miterlimit:10;}.cls-2{fill:url(#linear-gradient);}.cls-3{fill:#ea5b0c;}.cls-4{fill:#1d1d1b;}</style><linearGradient id="linear-gradient" x1="150.28" y1="176.49" x2="234.43" y2="176.49" gradientTransform="matrix(1, 0, 0, -1, 0, 283.89)" gradientUnits="userSpaceOnUse"><stop offset="0" stop-color="#ea5b0c"/><stop offset="1" stop-color="#fff"/></linearGradient></defs><g id="Layer_2" data-name="Layer 2"><rect class="cls-1" width="283.46" height="283.46"/></g><g id="Layer_1" data-name="Layer 1"><path class="cls-2" d="M161.57,84.26a5.19,5.19,0,1,0-7.32.61,5.19,5.19,0,0,0,7.32-.61m7.65,10.55a5.2,5.2,0,1,0-6.9-2.56,5.2,5.2,0,0,0,6.9,2.56Zm2.54,2.45a5.2,5.2,0,1,0,5.14,5.26h0a5.19,5.19,0,0,0-5.13-5.25ZM168.53,120a5.2,5.2,0,1,0-2.47-6.93v0A5.2,5.2,0,0,0,168.53,120Zm.09,9.72a5.2,5.2,0,1,0-7.34-.38h0a5.19,5.19,0,0,0,7.33.41h0Zm-15-.89a5.19,5.19,0,1,0,6.54,3.35,5.19,5.19,0,0,0-6.54-3.35Zm17.74,15.41a4.46,4.46,0,1,0-6.27-.74,4.45,4.45,0,0,0,6.27.74l0,0Zm18-36.46a4.46,4.46,0,1,0-4.56,4.36,4.47,4.47,0,0,0,4.56-4.36v0Zm-7.91,16.59a4.46,4.46,0,1,0-2.86-5.62h0a4.46,4.46,0,0,0,2.85,5.63h0Zm.19,8.53a3.21,3.21,0,1,0,0,.06l0,0ZM183.88,98a4.46,4.46,0,1,0-5.6-2.89h0A4.48,4.48,0,0,0,183.88,98ZM179,77.82a4.46,4.46,0,1,0-.8,6.26h0a4.45,4.45,0,0,0,.8-6.24Zm-16.19-3a4.46,4.46,0,1,0-1.23-6.19h0a4.47,4.47,0,0,0,1.25,6.17ZM170.05,65A3.88,3.88,0,1,0,169,59.59,3.88,3.88,0,0,0,170.05,65ZM183,71.1a3.88,3.88,0,1,0-5.49,0,3.89,3.89,0,0,0,5.49,0Zm.93,7.74a3.89,3.89,0,1,0,1.1-5.39l0,0a3.88,3.88,0,0,0-1.11,5.37Zm6.34,3a3.88,3.88,0,1,0,5.11,2h0a3.88,3.88,0,0,0-5.12-2h0ZM191,96.73a3.88,3.88,0,1,0,2.9-4.66,3.88,3.88,0,0,0-2.9,4.66Zm9,10.74a3.89,3.89,0,1,0-3.92,3.86,3.89,3.89,0,0,0,3.92-3.86Zm-1.24,11.42a3.89,3.89,0,1,0-4.61,3h0a3.89,3.89,0,0,0,4.63-3v0Zm-8.3,12.51a3.88,3.88,0,1,0-2.11-5.07,3.87,3.87,0,0,0,2.11,5.07h0Zm-.75,8.59a2.75,2.75,0,1,0,0,.06l0-.05Zm-7.14,8.5a3.88,3.88,0,1,0-5.49,0h0a3.87,3.87,0,0,0,5.47,0l.05,0Zm-13.24.85a3.88,3.88,0,1,0,5.37,1.17,3.88,3.88,0,0,0-5.37-1.17Zm14.84-89.73a3.31,3.31,0,1,0-4.68,0h0a3.3,3.3,0,0,0,4.67,0l0,0Zm8.44,9.32A3.31,3.31,0,1,0,188,68h0a3.3,3.3,0,0,0,4.56,1l.06,0Zm2.1,8.91a3.31,3.31,0,1,0,1.82-4.31h0a3.31,3.31,0,0,0-1.78,4.31ZM203.16,91a3.31,3.31,0,1,0-3.89-2.6h0a3.29,3.29,0,0,0,3.87,2.6Zm2,6.26a3.31,3.31,0,1,0,3.29,3.34,3.31,3.31,0,0,0-3.29-3.34h0Zm3.06,18a3.3,3.3,0,1,0-3.95,2.49,3.31,3.31,0,0,0,3.95-2.49h0Zm-7,13.88a3.31,3.31,0,1,0-1.72-4.35h0a3.29,3.29,0,0,0,1.68,4.32Zm-.57,9.83a3.31,3.31,0,1,0-4.6.87h0a3.32,3.32,0,0,0,4.55-.91Zm-7.83,11.46a3.31,3.31,0,1,0-4.68-.08h0a3.31,3.31,0,0,0,4.64.05Zm-12.89,3.5a3.31,3.31,0,1,0,4.57,1h0a3.3,3.3,0,0,0-4.54-1.07l-.07,0ZM181,47.78a3.14,3.14,0,1,0-.86-4.36,3.15,3.15,0,0,0,.86,4.36Zm15.35,9a3.14,3.14,0,1,0-4.46,0,3.14,3.14,0,0,0,4.46,0Zm9.28,12.56a3.14,3.14,0,1,0-4.34-1,3.13,3.13,0,0,0,4.34,1Zm1.48,10.07a3.15,3.15,0,1,0,1.71-4.11h0a3.14,3.14,0,0,0-1.71,4.07Zm7.71,15.14a3.15,3.15,0,1,0-3.73-2.44,3.16,3.16,0,0,0,3.73,2.44Zm1,8.46a3.14,3.14,0,1,0,3.16,3.12,3.15,3.15,0,0,0-3.16-3.12h0Zm-2.15,22a3.14,3.14,0,1,0-2.44-3.72,3.14,3.14,0,0,0,2.44,3.72Zm-2.45,7.9a2.26,2.26,0,1,0,.05,0l-.1,0Zm-5.27,17a3.15,3.15,0,1,0-4.37.85h0a3.15,3.15,0,0,0,4.32-.91Zm-14.61,7.79a3.15,3.15,0,1,0,4.45.08h0a3.15,3.15,0,0,0-4.45-.17l0,0Zm-11.18,8.92a3.15,3.15,0,1,0,4.12.91A3.15,3.15,0,0,0,180.16,166.62ZM194.74,32.74a1.61,1.61,0,1,0-2.24.41,1.61,1.61,0,0,0,2.24-.41Zm13.13,11.45a1.61,1.61,0,1,0-2.28,0,1.61,1.61,0,0,0,2.28,0Zm10.51,13.42a1.61,1.61,0,1,0-2.23-.45h0A1.61,1.61,0,0,0,218.38,57.61Zm6.81,12.7a1.61,1.61,0,1,0,2.11.87A1.61,1.61,0,0,0,225.19,70.31Zm5.95,19a1.61,1.61,0,1,0-1.91-1.24,1.62,1.62,0,0,0,1.91,1.24h0Zm1.67,14.7a1.61,1.61,0,1,0,1.62,1.6h0a1.59,1.59,0,0,0-1.62-1.55Zm-1.32,18.51a1.61,1.61,0,1,0,1.27,1.89,1.61,1.61,0,0,0-1.27-1.89Zm-5.72,19.55a1.61,1.61,0,1,0,.82,2.13,1.61,1.61,0,0,0-.82-2.13Zm-11.22,16.81a1.62,1.62,0,1,0,2.26-.35h0a1.6,1.6,0,0,0-2.24.39h0Zm-9.8,11.54a1.58,1.58,0,0,0,0,2.25l0,0a1.61,1.61,0,1,0,0-2.28Zm-13.81,11.21a1.61,1.61,0,1,0,2.23.47,1.62,1.62,0,0,0-2.23-.47ZM193.24,42a2,2,0,1,0,2.85,0,2,2,0,0,0-2.85,0Zm13.52,14.2a2,2,0,1,0-2.8-.57,2,2,0,0,0,2.8.57Zm9,14.43a2,2,0,1,0-2.62-1.12,2,2,0,0,0,2.62,1.12l0,0Zm2.91,12.26a2,2,0,1,0,1.57-2.37,2,2,0,0,0-1.57,2.37h0Zm5,11.93a2,2,0,1,0,.06,0h-.06Zm-1.65,19a1.56,1.56,0,1,0,0-.06v.06Zm-.38,14.85a2,2,0,1,0,1.1,2.63,2,2,0,0,0-1.1-2.63h0Zm-5.73,18.92a2,2,0,1,0-2.81.53,2,2,0,0,0,2.81-.53l0,0Zm-9.17,13.47a2,2,0,1,0-2.86,0,2,2,0,0,0,2.86,0l0,0Zm-14.32,8.52a2,2,0,1,0,2.78.6,2,2,0,0,0-2.78-.6h0Z"/><path class="cls-3" d="M150.42,78a5.19,5.19,0,1,1-3.6-6.4,5.2,5.2,0,0,1,3.6,6.4h0"/><path class="cls-3" d="M138.37,136.45a5.2,5.2,0,1,1,4.72,5.64h0a5.18,5.18,0,0,1-4.71-5.63h0"/><path class="cls-3" d="M127.16,132.86a5.2,5.2,0,1,1,2.2,7l0,0a5.19,5.19,0,0,1-2.17-7"/><path class="cls-3" d="M117.89,124.82a5.2,5.2,0,1,1-.82,7.31h0a5.17,5.17,0,0,1,.81-7.28l0,0"/><path class="cls-3" d="M112.63,113.81a5.19,5.19,0,1,1-3.68,6.36,5.19,5.19,0,0,1,3.68-6.36"/><path class="cls-3" d="M112.12,102.11a5.19,5.19,0,1,1-5.83,4.47,5.19,5.19,0,0,1,5.83-4.47"/><path class="cls-3" d="M116.38,90.72a5.19,5.19,0,1,1-7.13,1.79,5.19,5.19,0,0,1,7.13-1.79h0"/><path class="cls-3" d="M124.81,82a5.19,5.19,0,1,1-7.25-1.19A5.19,5.19,0,0,1,124.81,82h0"/><path class="cls-3" d="M137.39,77.05a5.19,5.19,0,1,1-6-4.25,5.19,5.19,0,0,1,6,4.25v0"/><path class="cls-3" d="M146.25,150.17a4.46,4.46,0,1,1-4.47-4.45h0a4.45,4.45,0,0,1,4.46,4.44h0"/><path class="cls-3" d="M159.71,146.5a4.45,4.45,0,1,1-5.64-2.82,4.45,4.45,0,0,1,5.64,2.82"/><path class="cls-3" d="M137.07,63.76a4.46,4.46,0,1,1,4.33,4.59h0a4.46,4.46,0,0,1-4.31-4.59"/><path class="cls-3" d="M150.26,64.13a4.46,4.46,0,1,1,2.8,5.65h0a4.45,4.45,0,0,1-2.81-5.63v0"/><path class="cls-3" d="M123.92,67.46a4.09,4.09,0,1,1,0,.05v-.05"/><path class="cls-3" d="M111.89,75.69a4.46,4.46,0,1,1,6.25.86h0a4.43,4.43,0,0,1-6.22-.85l0,0"/><path class="cls-3" d="M99.27,98.38A4.46,4.46,0,1,1,105,95.63v0a4.45,4.45,0,0,1-5.67,2.73"/><path class="cls-3" d="M103.58,85.85a4.46,4.46,0,1,1,6.2-1.15h0a4.45,4.45,0,0,1-6.19,1.16h0"/><path class="cls-3" d="M98.51,111.77a4.46,4.46,0,1,1,4.62-4.3,4.46,4.46,0,0,1-4.62,4.3h0"/><path class="cls-3" d="M102,125a4.46,4.46,0,1,1,3-5.55v0a4.45,4.45,0,0,1-3,5.53"/><path class="cls-3" d="M109.75,136.49a4.46,4.46,0,1,1,1-6.23,4.47,4.47,0,0,1-1,6.23h0"/><path class="cls-3" d="M131.39,149.42a4.46,4.46,0,1,1-2.66-5.72,4.47,4.47,0,0,1,2.66,5.72"/><path class="cls-3" d="M120.12,144.84a4.45,4.45,0,1,1-1.06-6.21,4.44,4.44,0,0,1,1.06,6.21l0,0"/><path class="cls-3" d="M145.68,52.38a3.89,3.89,0,1,1-3.89-3.89h0a3.89,3.89,0,0,1,3.89,3.89"/><path class="cls-3" d="M156.27,54.22a3.88,3.88,0,1,1-3-4.58h0a3.87,3.87,0,0,1,3,4.57"/><path class="cls-3" d="M165.8,57.85a3.88,3.88,0,1,1-2.15-5.05,3.88,3.88,0,0,1,2.15,5.05"/><path class="cls-3" d="M87.12,103.27a3.88,3.88,0,1,1-3.86,3.91,3.88,3.88,0,0,1,3.86-3.91h0"/><path class="cls-3" d="M88.88,92.66a3.88,3.88,0,1,1-4.54,3.08h0a3.9,3.9,0,0,1,4.54-3.08"/><path class="cls-3" d="M92.44,83.1a3.89,3.89,0,1,1-5,2.25l0-.06a3.89,3.89,0,0,1,5-2.19"/><path class="cls-3" d="M98.44,73.42a3.88,3.88,0,1,1-5.38,1.09,3.88,3.88,0,0,1,5.38-1.09h0"/><path class="cls-3" d="M105.56,65.85a3.88,3.88,0,1,1-5.5.05,3.88,3.88,0,0,1,5.5-.05h0"/><path class="cls-3" d="M114.39,59.48a3.88,3.88,0,1,1-5.38-1.1,3.88,3.88,0,0,1,5.38,1.1h0"/><path class="cls-3" d="M123.39,55.37a3.88,3.88,0,1,1-5.12-2,3.88,3.88,0,0,1,5.12,2"/><path class="cls-3" d="M134,52.94a3.88,3.88,0,1,1-4.68-2.87A3.89,3.89,0,0,1,134,52.94h0"/><path class="cls-3" d="M138,161.42a3.89,3.89,0,1,1,3.93,3.85h0a3.89,3.89,0,0,1-3.92-3.85"/><path class="cls-3" d="M127.4,159.65a3.89,3.89,0,1,1,3.09,4.55h0a3.9,3.9,0,0,1-3.08-4.55"/><path class="cls-3" d="M117.84,156.09a3.89,3.89,0,1,1,2.25,5l-.06,0a3.89,3.89,0,0,1-2.19-5"/><path class="cls-3" d="M108.16,150.08a3.88,3.88,0,1,1,1.09,5.38,3.88,3.88,0,0,1-1.09-5.38h0"/><path class="cls-3" d="M100.6,143a3.88,3.88,0,1,1,.05,5.5,3.88,3.88,0,0,1-.05-5.5l0,0"/><path class="cls-3" d="M94.23,134.12a3.89,3.89,0,1,1-1.09,5.39h0a3.89,3.89,0,0,1,1.1-5.38h0"/><path class="cls-3" d="M90.13,125.12a3.88,3.88,0,1,1-2,5.12,3.88,3.88,0,0,1,2-5.12h0"/><path class="cls-3" d="M87.7,114.52a3.88,3.88,0,1,1-2.87,4.68,3.89,3.89,0,0,1,2.87-4.68"/><path class="cls-3" d="M159.13,158.67a3.88,3.88,0,1,1,5.09,2.07,3.88,3.88,0,0,1-5.09-2.07"/><path class="cls-3" d="M148.5,160.94a3.88,3.88,0,1,1,4.63,2.94h0A3.87,3.87,0,0,1,148.5,161v0"/><path class="cls-3" d="M137.91,43.17a3.31,3.31,0,1,1-3.31-3.31h0a3.3,3.3,0,0,1,3.31,3.29v0"/><path class="cls-3" d="M152.71,44.1a3.42,3.42,0,1,1,0-.05v.05"/><path class="cls-3" d="M164.19,47.31a3.3,3.3,0,1,1-1.66-4.37,3.3,3.3,0,0,1,1.66,4.37h0"/><path class="cls-3" d="M174.39,52.3a3.31,3.31,0,1,1-.86-4.6h0a3.3,3.3,0,0,1,.87,4.59h0"/><path class="cls-3" d="M168.58,164.6a3.31,3.31,0,1,1,4.32,1.81,3.32,3.32,0,0,1-4.32-1.81"/><path class="cls-3" d="M157.05,168.73a3.31,3.31,0,1,1,3.89,2.61h0a3.28,3.28,0,0,1-3.87-2.58v0"/><path class="cls-3" d="M145.19,170.58a3.31,3.31,0,1,1,3.33,3.29h0a3.31,3.31,0,0,1-3.32-3.29"/><path class="cls-3" d="M131,169.85a3.31,3.31,0,1,1,2.52,3.94h0a3.31,3.31,0,0,1-2.51-3.94"/><path class="cls-3" d="M120.6,167.22a3.31,3.31,0,1,1,1.82,4.31h0a3.3,3.3,0,0,1-1.83-4.29v0"/><path class="cls-3" d="M107,160.63a3.31,3.31,0,1,1,.76,4.62,3.31,3.31,0,0,1-.76-4.62"/><path class="cls-3" d="M98.22,153.9a3.31,3.31,0,1,1,0,4.68h0a3.31,3.31,0,0,1,0-4.68"/><path class="cls-3" d="M90,144.67a3.31,3.31,0,1,1-1,4.59,3.31,3.31,0,0,1,1-4.59h0"/><path class="cls-3" d="M84.07,135a3.31,3.31,0,1,1-1.74,4.34h0A3.29,3.29,0,0,1,84.05,135h0"/><path class="cls-3" d="M80.13,124.81a3.31,3.31,0,1,1-2.47,4,3.31,3.31,0,0,1,2.47-4h0"/><path class="cls-3" d="M77.7,111.16a3.31,3.31,0,1,1-3.27,3.35,3.31,3.31,0,0,1,3.27-3.35h0"/><path class="cls-3" d="M78.21,97.83a3.31,3.31,0,1,1-3.9,2.6,3.31,3.31,0,0,1,3.9-2.6h0"/><path class="cls-3" d="M81.27,85.46a3.31,3.31,0,1,1-4.33,1.77h0a3.31,3.31,0,0,1,4.32-1.78h0"/><path class="cls-3" d="M86.81,73.79a3.31,3.31,0,1,1-4.6.87,3.31,3.31,0,0,1,4.6-.87"/><path class="cls-3" d="M94.84,63.21a3.31,3.31,0,1,1-4.68-.09h0a3.3,3.3,0,0,1,4.67.1h0"/><path class="cls-3" d="M103.61,55.44a3.31,3.31,0,1,1-4.58-1,3.31,3.31,0,0,1,4.58,1h0"/><path class="cls-3" d="M113.6,49.44a3.31,3.31,0,1,1-4.33-1.78,3.31,3.31,0,0,1,4.33,1.78v0"/><path class="cls-3" d="M125.42,45.1a3.31,3.31,0,1,1-3.9-2.59h0a3.3,3.3,0,0,1,3.89,2.59"/><path class="cls-3" d="M129.86,33.63a3.14,3.14,0,1,1-3.7-2.46,3.14,3.14,0,0,1,3.7,2.46h0"/><path class="cls-3" d="M145,32.77a3.15,3.15,0,1,1-3.13-3.17A3.15,3.15,0,0,1,145,32.77"/><path class="cls-3" d="M162.21,35.59a3.14,3.14,0,1,1-2.3-3.8,3.15,3.15,0,0,1,2.3,3.8"/><path class="cls-3" d="M174,40.09a3.14,3.14,0,1,1-1.7-4.1h0A3.14,3.14,0,0,1,174,40.09"/><path class="cls-3" d="M166.55,176.78a3.15,3.15,0,1,1,4.1,1.75h0a3.16,3.16,0,0,1-4.09-1.75"/><path class="cls-3" d="M153.05,180.2a3.14,3.14,0,1,1,3.69,2.48,3.14,3.14,0,0,1-3.69-2.48h0"/><path class="cls-3" d="M137.23,181a3.14,3.14,0,1,1,3.07,3.21,3.15,3.15,0,0,1-3.07-3.21v0"/><path class="cls-3" d="M123.07,178.72a3.14,3.14,0,1,1,2.4,3.74,3.15,3.15,0,0,1-2.4-3.74"/><path class="cls-3" d="M109.11,173.57a3.14,3.14,0,1,1,1.61,4.14,3.14,3.14,0,0,1-1.61-4.14l0,0"/><path class="cls-3" d="M95,164.54a3.14,3.14,0,1,1,.63,4.4,3.14,3.14,0,0,1-.63-4.4"/><path class="cls-3" d="M86.45,156.48a3.14,3.14,0,0,1,4.39,4.5h0a3.14,3.14,0,1,1-4.39-4.5"/><path class="cls-3" d="M78,145.08a3.14,3.14,0,1,1-.91,4.35,3.15,3.15,0,0,1,.91-4.35"/><path class="cls-3" d="M72.63,134.13A3.14,3.14,0,1,1,71,138.27a3.14,3.14,0,0,1,1.63-4.14"/><path class="cls-3" d="M68.61,119.94a3.14,3.14,0,1,1-2.4,3.74,3.15,3.15,0,0,1,2.4-3.74"/><path class="cls-3" d="M67.49,104.55a3.14,3.14,0,1,1-3.12,3.16,3.15,3.15,0,0,1,3.12-3.16"/><path class="cls-3" d="M69.51,89.54A3.14,3.14,0,1,1,65.81,92a3.14,3.14,0,0,1,3.7-2.46"/><path class="cls-3" d="M74.18,76a3.14,3.14,0,1,1-4.1,1.7h0A3.14,3.14,0,0,1,74.16,76h0"/><path class="cls-3" d="M81.46,63.5a3.14,3.14,0,1,1-4.35.88h0a3.14,3.14,0,0,1,4.35-.88"/><path class="cls-3" d="M92.49,51.31a3.14,3.14,0,1,1-4.44-.1,3.14,3.14,0,0,1,4.44.1"/><path class="cls-3" d="M103.07,43.51a3.14,3.14,0,1,1-4.35-.89h0a3.15,3.15,0,0,1,4.35.89"/><path class="cls-3" d="M115.91,37.29a3.14,3.14,0,1,1-4.1-1.7h0a3.15,3.15,0,0,1,4.1,1.7"/><path class="cls-3" d="M135.33,24.62a2,2,0,1,1-2-2,2,2,0,0,1,2,2"/><path class="cls-3" d="M143,15.71a1.61,1.61,0,1,1-1.61-1.62A1.61,1.61,0,0,1,143,15.71h0"/><path class="cls-3" d="M164.5,18.6a1.61,1.61,0,1,1-1.19-1.94h0a1.62,1.62,0,0,1,1.19,1.94"/><path class="cls-3" d="M181.05,24.64a1.61,1.61,0,1,1-.8-2.14,1.61,1.61,0,0,1,.8,2.14"/><path class="cls-3" d="M173.55,192.31a1.61,1.61,0,1,1,2.08.92h0a1.61,1.61,0,0,1-2.08-.92"/><path class="cls-3" d="M156.9,196.79A1.61,1.61,0,0,1,160,196l0,.18a1.61,1.61,0,1,1-3.13.77l0-.18"/><path class="cls-3" d="M138,198a1.61,1.61,0,1,1,3.22.09h0a1.61,1.61,0,0,1-1.64,1.56h0A1.62,1.62,0,0,1,138,198"/><path class="cls-3" d="M118.9,195.19a1.61,1.61,0,1,1,1.19,1.95,1.61,1.61,0,0,1-1.19-1.95h0"/><path class="cls-3" d="M102.05,189a1.61,1.61,0,1,1,.78,2.14,1.61,1.61,0,0,1-.78-2.14"/><path class="cls-3" d="M85.8,179a1.61,1.61,0,0,1,2.24-.34h0a1.61,1.61,0,1,1-2.25.33h0"/><path class="cls-3" d="M74,168a1.61,1.61,0,1,1-.09,2.28A1.61,1.61,0,0,1,74,168h0"/><path class="cls-3" d="M64.44,155.41a1.61,1.61,0,1,1-.47,2.23,1.62,1.62,0,0,1,.47-2.23h0"/><path class="cls-3" d="M57.86,142.87A1.61,1.61,0,1,1,57,145a1.61,1.61,0,0,1,.86-2.13"/><path class="cls-3" d="M52.61,126.56a1.61,1.61,0,1,1-1.19,1.94h0a1.61,1.61,0,0,1,1.19-1.94"/><path class="cls-3" d="M50.46,106.46A1.6,1.6,0,0,1,52.09,108v0a1.62,1.62,0,0,1-3.23.25,1,1,0,0,1,0-.25,1.6,1.6,0,0,1,1.58-1.62h0"/><path class="cls-3" d="M52.14,89.48a1.61,1.61,0,1,1-1.87,1.3,1.6,1.6,0,0,1,1.87-1.3h0"/><path class="cls-3" d="M57.7,71.28a1.61,1.61,0,1,1-2.1.88,1.61,1.61,0,0,1,2.1-.88h0"/><path class="cls-3" d="M66.75,54.88a1.61,1.61,0,1,1-2.24.43,1.61,1.61,0,0,1,2.24-.43"/><path class="cls-3" d="M79,40.65a1.61,1.61,0,1,1-2.28,0h0a1.58,1.58,0,0,1,2.25,0l0,0"/><path class="cls-3" d="M93,29.74a1.6,1.6,0,1,1-2.22-.48,1.61,1.61,0,0,1,2.22.48"/><path class="cls-3" d="M109.57,21.53a1.61,1.61,0,1,1-2.08-.92h0a1.61,1.61,0,0,1,2.08.92"/><path class="cls-3" d="M124.82,17.26a1.61,1.61,0,1,1-1.9-1.26,1.61,1.61,0,0,1,1.9,1.26"/><path class="cls-3" d="M153.87,25.29a2,2,0,1,1-1.51-2.41,2,2,0,0,1,1.51,2.41v0"/><path class="cls-3" d="M170.46,29.57a2,2,0,1,1-1-2.67,2,2,0,0,1,1,2.67v0"/><path class="cls-3" d="M183.35,35.69a2,2,0,1,1-.51-2.8,2,2,0,0,1,.51,2.8v0"/><path class="cls-3" d="M178.76,180.58a2,2,0,1,1,2.63,1.1,2,2,0,0,1-2.63-1.1v0"/><path class="cls-3" d="M163.85,186.35a2,2,0,1,1,2.37,1.58,2,2,0,0,1-2.37-1.58v0"/><path class="cls-3" d="M146.76,189.23a2,2,0,1,1,2,2,2,2,0,0,1-2-2"/><path class="cls-3" d="M128.74,188.38a2,2,0,0,1,3.91.93h0a2,2,0,0,1-3.91-.93"/><path class="cls-3" d="M114.29,184.73a2,2,0,1,1,1,2.65,2,2,0,0,1-1-2.65h0"/><path class="cls-3" d="M98,176.91a2,2,0,1,1,3.24,2.39h0A2,2,0,0,1,98,176.91"/><path class="cls-3" d="M85.47,167.31a2,2,0,1,1-.11,2.85,2,2,0,0,1,.11-2.85l0,0"/><path class="cls-3" d="M75.88,156.69a2,2,0,1,1-.61,2.79,2,2,0,0,1,.61-2.79l0,0"/><path class="cls-3" d="M68.43,144.92a2,2,0,1,1-1.06,2.64,2,2,0,0,1,1.06-2.64h0"/><path class="cls-3" d="M62.73,131a2,2,0,1,1-1.53,2.4A2,2,0,0,1,62.71,131h0"/><path class="cls-3" d="M59.39,113.26a2,2,0,1,1-2,2,2,2,0,0,1,2-2"/><path class="cls-3" d="M59.67,97.64a2,2,0,1,1-2.36,1.6,2,2,0,0,1,2.36-1.6h0"/><path class="cls-3" d="M63.15,81.5a2,2,0,1,1-2.63,1.09,2,2,0,0,1,2.63-1.09h0"/><path class="cls-3" d="M69.75,66.41A2,2,0,1,1,67,67a2,2,0,0,1,2.79-.56"/><path class="cls-3" d="M80,52a2,2,0,1,1-2.83,0h0A2,2,0,0,1,80,52"/><path class="cls-3" d="M92,41a2,2,0,1,1-2.78-.62A2,2,0,0,1,92,41l0,0"/><path class="cls-3" d="M105.15,32.89a2,2,0,0,1-1.11,2.6l0,0a2,2,0,1,1,1.11-2.62"/><path class="cls-3" d="M120.31,27.19a2,2,0,0,1-4,.74,2,2,0,0,1,1.58-2.35h0a2,2,0,0,1,2.34,1.58v0"/><path class="cls-4" d="M162.56,117.65c-5.09,6.81-11.65,10.42-20,10.42-10.75,0-21.08-6.81-21.08-21.9,0-13.78,8.86-21.58,20.42-21.58,10.83,0,15.34,6.48,16.17,7.71,3.36,4.76,4.1,11.9,4.18,16H131.88c1.15,6.48,5.16,10.17,11.65,10.17a12,12,0,0,0,10.66-5.66ZM151.4,101.08c-.9-6.4-4.84-8.61-9.19-8.61-5.25,0-8.86,3-10,8.61Z"/><path class="cls-4" d="M179.54,85.82v5.83c1.23-2.14,3.94-7,13.12-6.73V95c-2.13.08-5.82.16-8.85,2.46-4.19,3.2-4.27,7.38-4.27,14.19v15.18H170v-41Z"/><path class="cls-4" d="M223.84,100.34a9.57,9.57,0,0,0-9.27-7c-5.66,0-10.18,4.51-10.18,12.72,0,7.38,3.86,12.79,10.34,12.79,6.24,0,8.61-4.75,9.85-8l8.44,4.43a19.37,19.37,0,0,1-18.45,12.8c-11.41,0-20.35-8.78-20.35-21.74,0-12.55,9-21.74,20.68-21.74,10.33,0,15.58,6.89,17.71,11.65Z"/><polyline class="cls-4" points="12.76 219.99 12.76 223.45 19.86 223.45 19.86 225.82 12.76 225.82 12.76 229.77 21.05 229.77 21.05 232.25 10.05 232.25 10.05 217.52 20.53 217.52 20.53 219.99 12.76 219.99"/><path class="cls-4" d="M32.26,221.82v10.43H29.75v-1.06a4.62,4.62,0,0,1-3.38,1.31,3.41,3.41,0,0,1-2.9-1.21c-.71-.9-.71-1.88-.71-3.44v-6h2.53v6a3.72,3.72,0,0,0,.08,1,1.83,1.83,0,0,0,1.94,1.31,2.27,2.27,0,0,0,2-1.1,5.64,5.64,0,0,0,.42-2.81v-4.43h2.51"/><path class="cls-4" d="M37.39,221.82v1.48a3.25,3.25,0,0,1,3.34-1.71v2.57a3.8,3.8,0,0,0-2.25.63c-1.07.81-1.09,1.87-1.09,3.6v3.86H35V221.82h2.42"/><path class="cls-4" d="M46.77,232.56a5.28,5.28,0,0,1-5.44-5.1c0-.15,0-.31,0-.46a5.37,5.37,0,1,1,5.43,5.56m-.13-8.8c-1.56,0-2.69,1.25-2.69,3.17,0,2.15,1.32,3.34,2.82,3.34,1.81,0,2.73-1.58,2.67-3.32S48.39,223.76,46.64,223.76Z"/><path class="cls-4" d="M54.13,221.82h2.48v1a3.7,3.7,0,0,1,2.87-1.27c3.07,0,4.73,2.75,4.73,5.63,0,3.11-1.93,5.42-4.73,5.42a4.15,4.15,0,0,1-2.87-1.16v4.25H54.13V221.82m5,8.39c1.21,0,2.53-.84,2.53-3.19,0-2.61-1.82-3.11-2.57-3.11-1.15,0-2.46.83-2.5,3.06s1.15,3.24,2.55,3.24Z"/><path class="cls-4" d="M76.11,229.92A6.06,6.06,0,0,1,71,232.56a5.15,5.15,0,0,1-5.35-4.94,4.28,4.28,0,0,1,0-.62c0-3.51,2.25-5.49,5.19-5.49a4.71,4.71,0,0,1,4.11,2,7.7,7.7,0,0,1,1,4H68.3a2.83,2.83,0,0,0,3,2.58,3,3,0,0,0,2.7-1.43l2.13,1.23m-2.84-4.22A2.23,2.23,0,0,0,71,223.51H71a2.46,2.46,0,0,0-2.54,2.19Z"/><path class="cls-4" d="M77.7,224.89a3.43,3.43,0,0,1,.41-1.57c1-1.81,3.49-1.81,4.16-1.81a6.4,6.4,0,0,1,3.13.66c1.23.76,1.25,1.74,1.25,2.87v5.52a2.19,2.19,0,0,0,.46,1.69h-3c0-.25-.06-.67-.06-.81a4.89,4.89,0,0,1-3,1.06c-2.36,0-3.78-1.46-3.78-3.25a3.18,3.18,0,0,1,.33-1.42,4.25,4.25,0,0,1,3.36-2,23.85,23.85,0,0,0,3.24-.77c0-.53,0-1.59-1.78-1.59a2.21,2.21,0,0,0-1.85.67,1.26,1.26,0,0,0-.25.92l-2.57-.15m6.45,2.17a7.25,7.25,0,0,1-2.19.63c-.9.12-2.09.33-2.09,1.43,0,.82.69,1.23,1.69,1.23A2.58,2.58,0,0,0,84,229.14a2.1,2.1,0,0,0,.15-.93Z"/><path class="cls-4" d="M89.3,221.82h2.53v1.23a2.84,2.84,0,0,1,.81-.81,4.37,4.37,0,0,1,2.4-.73,3.41,3.41,0,0,1,2.74,1.25,5.52,5.52,0,0,1,.64,3.36v6.13H95.94v-5.32a7.58,7.58,0,0,0-.08-1.58,1.71,1.71,0,0,0-1.71-1.4,2.16,2.16,0,0,0-1.92,1.17,6,6,0,0,0-.4,2.61v4.52H89.3V221.82"/><path class="cls-4" d="M107.07,217.52h4.69c2,0,3.28,0,4.57,1.06a4.51,4.51,0,0,1,1.63,3.64,4,4,0,0,1-2.9,4.05l3.28,6h-3.16l-2.92-5.46H109.8v5.46h-2.73V217.52m2.73,2.38v4.61h2.81a2.3,2.3,0,0,0,2.57-2,2.64,2.64,0,0,0,0-.28,2.13,2.13,0,0,0-1.17-2,6.89,6.89,0,0,0-2.92-.31Z"/><path class="cls-4" d="M130,229.92a6.08,6.08,0,0,1-5.1,2.64,5.15,5.15,0,0,1-5.37-4.92,4.56,4.56,0,0,1,0-.64c0-3.51,2.25-5.49,5.19-5.49a4.72,4.72,0,0,1,4.12,2,7.84,7.84,0,0,1,1.06,4.07h-7.72a2.81,2.81,0,0,0,3,2.58,3.08,3.08,0,0,0,2.72-1.43L130,230m-2.84-4.22a2.24,2.24,0,0,0-2.29-2.19h0a2.48,2.48,0,0,0-2.55,2.19Z"/><path class="cls-4" d="M132.9,229.17a3.68,3.68,0,0,0,3,1.33c1.44,0,2.07-.71,2.07-1.23,0-.67-.75-.84-1.09-.9s-2.06-.4-2.44-.5c-2.48-.58-2.94-2-2.94-3,0-1.78,1.6-3.4,4.46-3.4a6,6,0,0,1,3.45,1,4.53,4.53,0,0,1,1.06.94l-1.77,1.65a2.9,2.9,0,0,0-2.84-1.59c-1.19,0-1.73.52-1.73,1.07,0,.75.77,1,2.1,1.18,2.18.4,2.78.51,3.45,1a2.84,2.84,0,0,1,1.06,2.21c0,1.62-1.46,3.56-4.69,3.56a7.16,7.16,0,0,1-5-1.85l1.85-1.54"/><path class="cls-4" d="M152.63,229.92a6.08,6.08,0,0,1-5.1,2.64,5.15,5.15,0,0,1-5.37-4.92,4.56,4.56,0,0,1,0-.64c0-3.51,2.26-5.49,5.2-5.49a4.71,4.71,0,0,1,4.11,2,7.84,7.84,0,0,1,1.07,4.07h-7.73a2.83,2.83,0,0,0,3,2.58,3.06,3.06,0,0,0,2.71-1.43l2.13,1.23m-2.84-4.22a2.23,2.23,0,0,0-2.27-2.19h-.07a2.48,2.48,0,0,0-2.55,2.19Z"/><path class="cls-4" d="M154.22,224.89a3.43,3.43,0,0,1,.41-1.57c1-1.81,3.49-1.81,4.16-1.81a6.4,6.4,0,0,1,3.13.66c1.23.76,1.25,1.74,1.25,2.87v5.52a2.19,2.19,0,0,0,.46,1.69h-3c0-.25-.07-.67-.07-.81a4.89,4.89,0,0,1-3.09,1.06c-2.35,0-3.77-1.46-3.77-3.25a3.18,3.18,0,0,1,.33-1.42,4.25,4.25,0,0,1,3.36-2,23.85,23.85,0,0,0,3.24-.77c0-.53,0-1.59-1.78-1.59a2.23,2.23,0,0,0-1.86.67,1.26,1.26,0,0,0-.25.92l-2.56-.15m6.45,2.17a7.39,7.39,0,0,1-2.2.63c-.89.12-2.08.33-2.08,1.43,0,.82.69,1.23,1.69,1.23a2.6,2.6,0,0,0,2.44-1.21,2.1,2.1,0,0,0,.15-.93Z"/><path class="cls-4" d="M168.26,221.82v1.48a3.25,3.25,0,0,1,3.34-1.71v2.57a3.8,3.8,0,0,0-2.25.63c-1.07.81-1.09,1.87-1.09,3.6v3.86h-2.42V221.82h2.42"/><path class="cls-4" d="M179.52,225.51a2.43,2.43,0,0,0-2.36-1.77c-1.44,0-2.59,1.15-2.59,3.23,0,1.88,1,3.26,2.63,3.26a2.65,2.65,0,0,0,2.5-2l2.15,1.13a4.93,4.93,0,0,1-4.69,3.25,5.2,5.2,0,0,1-5.18-5.2c0-.14,0-.27,0-.41a5.27,5.27,0,0,1,5-5.52h.24a4.81,4.81,0,0,1,4.51,3l-2.23,1"/><path class="cls-4" d="M185.31,217.52v5.36a4.54,4.54,0,0,1,3.31-1.37,3.86,3.86,0,0,1,2.86,1.12,4.23,4.23,0,0,1,.88,3.18v6.44h-2.47v-5.73a4.61,4.61,0,0,0-.16-1.48,1.75,1.75,0,0,0-1.82-1.15,2.63,2.63,0,0,0-2.52,1.9,6.67,6.67,0,0,0-.08,1.67v4.79H182.8V217.52h2.51"/><path class="cls-4" d="M213.36,228.14a7.64,7.64,0,0,1-1.28,2.21,6.51,6.51,0,0,1-5.09,2.28c-3.91,0-6.89-2.86-6.89-7.78s3.24-7.7,7-7.7a5.89,5.89,0,0,1,6,4.55l-2.75.73a3.9,3.9,0,0,0-.54-1.47,3.11,3.11,0,0,0-2.65-1.29c-2.4,0-4.08,2-4.08,5.13,0,3.37,1.78,5.22,4.1,5.22a3.35,3.35,0,0,0,2.81-1.44,4.87,4.87,0,0,0,.78-1.52l2.59,1.08"/><path class="cls-4" d="M219.84,232.56a5.27,5.27,0,0,1-5.43-5.11c0-.15,0-.3,0-.45a5.37,5.37,0,1,1,5.42,5.56m-.12-8.8c-1.56,0-2.69,1.25-2.69,3.17,0,2.15,1.31,3.34,2.81,3.34,1.82,0,2.74-1.58,2.68-3.32S221.47,223.76,219.72,223.76Z"/><path class="cls-4" d="M236.65,221.82v10.43h-2.5v-1.06a4.66,4.66,0,0,1-3.39,1.31,3.41,3.41,0,0,1-2.9-1.21c-.71-.9-.71-1.88-.71-3.44v-6h2.53v6a3.72,3.72,0,0,0,.08,1,1.84,1.84,0,0,0,2,1.31,2.33,2.33,0,0,0,2-1.1,5.87,5.87,0,0,0,.42-2.81v-4.43h2.5"/><path class="cls-4" d="M239.34,221.82h2.53v1.23a2.84,2.84,0,0,1,.81-.81,4.37,4.37,0,0,1,2.4-.73,3.41,3.41,0,0,1,2.74,1.25,5.52,5.52,0,0,1,.64,3.36v6.13H246v-5.32a7,7,0,0,0-.09-1.58,1.7,1.7,0,0,0-1.71-1.4,2.21,2.21,0,0,0-1.92,1.17,6.11,6.11,0,0,0-.39,2.61v4.52h-2.53V221.82"/><path class="cls-4" d="M257.79,225.51a2.43,2.43,0,0,0-2.36-1.77c-1.44,0-2.59,1.15-2.59,3.23,0,1.88,1,3.26,2.64,3.26a2.65,2.65,0,0,0,2.5-2l2.15,1.13a4.93,4.93,0,0,1-4.7,3.25,5.18,5.18,0,0,1-5.18-5.18c0-.11,0-.23,0-.34a5.27,5.27,0,0,1,5-5.52h.26a4.81,4.81,0,0,1,4.5,3l-2.23,1"/><path class="cls-4" d="M264,217.67v2.52h-2.48v-2.52H264m-2.48,4.15H264v10.43h-2.48Z"/><rect class="cls-4" x="266.77" y="217.52" width="2.53" height="14.73"/><path class="cls-4" d="M10.15,261.5V251.3h6.33v1H11.24v3.59h4.47v1H11.24v3.68h5.24v1Z"/><path class="cls-4" d="M20.77,261.58a3.89,3.89,0,0,1-2.89-1l.69-.69a2.88,2.88,0,0,0,2.19.82c1.16,0,1.87-.42,1.87-1.25,0-.62-.36-1-1.17-1l-1.16-.1c-1.38-.12-2.11-.73-2.11-1.89s1.09-2.06,2.6-2.06a4,4,0,0,1,2.53.76l-.67.67a3,3,0,0,0-1.88-.56c-1,0-1.57.44-1.57,1.16s.34,1,1.23,1l1.13.1c1.23.12,2.07.59,2.07,1.9S22.47,261.58,20.77,261.58Z"/><path class="cls-4" d="M27.48,261.5a1.75,1.75,0,0,1-1.81-1.65,1.93,1.93,0,0,1,0-.24v-4.33h-.89v-.78h.89v-2.21h1v2.21h1.5v.78h-1.5v4.3a.88.88,0,0,0,1,1h.54v.89Z"/><path class="cls-4" d="M34.13,261.5v-.68a2.42,2.42,0,0,1-2,.76,2.52,2.52,0,0,1-2-.64,2,2,0,0,1-.53-1.43c0-1.23.86-2,2.44-2h2.11v-.67c0-1-.51-1.55-1.8-1.55a1.83,1.83,0,0,0-1.77.81l-.71-.65a2.73,2.73,0,0,1,2.5-1c1.89,0,2.82.81,2.82,2.35v4.78Zm0-3.25h-2c-1.06,0-1.58.43-1.58,1.24s.51,1.21,1.62,1.21a2.11,2.11,0,0,0,1.58-.48A1.65,1.65,0,0,0,34.1,259Z"/><path class="cls-4" d="M42.41,261a2.52,2.52,0,0,1-1.72.61,2.25,2.25,0,0,1-2-.93v.85h-1V251.3h1v4a2.24,2.24,0,0,1,2-.9,2.52,2.52,0,0,1,1.72.61,5.69,5.69,0,0,1,0,6Zm-1.94-5.69c-1.53,0-1.77,1.32-1.77,2.7s.24,2.69,1.77,2.69,1.76-1.32,1.76-2.69-.23-2.73-1.76-2.73Z"/><path class="cls-4" d="M47.23,261.5a1.68,1.68,0,0,1-1.8-1.53,1.37,1.37,0,0,1,0-.35V251.3h1v8.28c0,.69.23,1,.94,1H48v.89Z"/><path class="cls-4" d="M49.66,252.45v-1.16h1.16v1.16Zm.05,9.05v-7.05h1v7.05Z"/><path class="cls-4" d="M55.55,261.58a3.89,3.89,0,0,1-2.89-1l.69-.69a2.88,2.88,0,0,0,2.19.82c1.16,0,1.87-.42,1.87-1.25,0-.62-.35-1-1.17-1l-1.16-.1c-1.37-.12-2.1-.73-2.1-1.89s1.08-2.06,2.59-2.06a4,4,0,0,1,2.53.76l-.67.67a3,3,0,0,0-1.88-.56c-1,0-1.57.44-1.57,1.16s.34,1,1.23,1l1.13.1c1.23.12,2.08.59,2.08,1.9S57.26,261.58,55.55,261.58Z"/><path class="cls-4" d="M64.94,261.5v-4.35a1.64,1.64,0,0,0-1.37-1.86,2,2,0,0,0-.35,0,1.67,1.67,0,0,0-1.77,1.56,1.58,1.58,0,0,0,0,.31v4.35h-1V251.3h1v3.93a2.54,2.54,0,0,1,2-.86A2.37,2.37,0,0,1,66,256.55a2.26,2.26,0,0,1,0,.45v4.53Z"/><path class="cls-4" d="M69.12,258.25c0,1.54.73,2.43,2.07,2.43a2.29,2.29,0,0,0,1.85-.8l.7.61a3.21,3.21,0,0,1-2.58,1.09c-1.86,0-3.07-1.11-3.07-3.6,0-2.28,1.1-3.61,2.89-3.61s2.89,1.31,2.89,3.41v.47Zm3.5-1.95a1.81,1.81,0,0,0-2.4-.89,1.83,1.83,0,0,0-.89.89,2.92,2.92,0,0,0-.21,1.17h3.72A2.93,2.93,0,0,0,72.62,256.3Z"/><path class="cls-4" d="M80.26,261.5v-.85a2.25,2.25,0,0,1-2,.93,2.46,2.46,0,0,1-1.72-.61,5.65,5.65,0,0,1,0-6,2.46,2.46,0,0,1,1.72-.61,2.24,2.24,0,0,1,2,.9v-4h1v10.2Zm-1.77-6.22c-1.53,0-1.78,1.32-1.78,2.7s.25,2.69,1.78,2.69,1.76-1.32,1.76-2.69S80,255.28,78.49,255.28Z"/><path class="cls-4" d="M92.15,261a2.48,2.48,0,0,1-1.71.61,2.25,2.25,0,0,1-2-.93v.85h-1V251.3h1v4a2.24,2.24,0,0,1,2-.9,2.48,2.48,0,0,1,1.71.61,5.65,5.65,0,0,1,0,6Zm-1.93-5.69c-1.53,0-1.77,1.32-1.77,2.7s.24,2.69,1.77,2.69S92,259.35,92,258s-.25-2.72-1.78-2.72Z"/><path class="cls-4" d="M97,263.2a2.08,2.08,0,0,1-.5.83,1.92,1.92,0,0,1-1.37.49h-.45v-.92H95c.71,0,.93-.23,1.16-.87l.5-1.38-2.54-6.9H95.2l1.93,5.66,1.92-5.66h1.12Z"/><path class="cls-4" d="M107.15,261.5a1.73,1.73,0,0,1-1.81-1.66.89.89,0,0,1,0-.23v-4.33h-.88v-.78h.88v-2.21h1v2.21h1.5v.78h-1.5v4.3a.88.88,0,0,0,1,1h.55v.89Z"/><path class="cls-4" d="M114.43,261.5v-4.35a1.64,1.64,0,0,0-1.37-1.86,2,2,0,0,0-.35,0,1.67,1.67,0,0,0-1.77,1.56,1.58,1.58,0,0,0,0,.31v4.35h-1V251.3h1v3.93a2.54,2.54,0,0,1,2-.86,2.38,2.38,0,0,1,2.54,2.19,2.81,2.81,0,0,1,0,.41v4.53Z"/><path class="cls-4" d="M118.61,258.25c0,1.54.73,2.43,2.07,2.43a2.29,2.29,0,0,0,1.85-.8l.7.61a3.18,3.18,0,0,1-2.57,1.09c-1.87,0-3.08-1.11-3.08-3.6,0-2.28,1.1-3.61,2.89-3.61s2.89,1.31,2.89,3.41v.47Zm3.5-1.95a1.81,1.81,0,0,0-2.4-.89,1.83,1.83,0,0,0-.89.89,3.11,3.11,0,0,0-.21,1.17h3.72A2.93,2.93,0,0,0,122.11,256.3Z"/><path class="cls-4" d="M129.3,261.5V251.3h6.32v1h-5.24v3.59h4.47v1h-4.47v3.68h5.24v1Z"/><path class="cls-4" d="M142.15,261.5v-.79a2.59,2.59,0,0,1-2,.87,2.53,2.53,0,0,1-1.82-.66,2.59,2.59,0,0,1-.72-2v-4.5h1v4.34c0,1.25.66,1.88,1.72,1.88a1.67,1.67,0,0,0,1.77-1.56,1.71,1.71,0,0,0,0-.32v-4.34h1v7.05Z"/><path class="cls-4" d="M149.67,255.8a1.45,1.45,0,0,0-1.21-.52,1.72,1.72,0,0,0-1.7,1.74c0,.05,0,.1,0,.15v4.33h-1v-7.05h1v.86a2.37,2.37,0,0,1,2-.94,2.15,2.15,0,0,1,1.69.66Z"/><path class="cls-4" d="M155.79,260.78a2.93,2.93,0,0,1-4,0,5,5,0,0,1,0-5.61,2.93,2.93,0,0,1,4,0A5,5,0,0,1,155.79,260.78Zm-.73-5a1.84,1.84,0,0,0-2.56,0,4.43,4.43,0,0,0,0,4.35,1.84,1.84,0,0,0,2.56,0A4.49,4.49,0,0,0,155.06,255.78Z"/><path class="cls-4" d="M163.59,261a2.46,2.46,0,0,1-1.72.61,2.26,2.26,0,0,1-2-.91v4h-1V254.5h1v.83a2.24,2.24,0,0,1,2-.91,2.46,2.46,0,0,1,1.72.61,5.65,5.65,0,0,1,0,6Zm-1.93-5.69c-1.53,0-1.77,1.32-1.77,2.7s.24,2.69,1.77,2.69,1.76-1.32,1.76-2.69-.23-2.73-1.76-2.73Z"/><path class="cls-4" d="M167.3,258.25c0,1.54.73,2.43,2.07,2.43a2.29,2.29,0,0,0,1.85-.8l.7.61a3.21,3.21,0,0,1-2.58,1.09c-1.86,0-3.07-1.11-3.07-3.6,0-2.28,1.1-3.61,2.89-3.61s2.89,1.31,2.89,3.41v.47Zm3.5-1.95a1.81,1.81,0,0,0-2.4-.89,1.83,1.83,0,0,0-.89.89,2.76,2.76,0,0,0-.21,1.17H171A2.92,2.92,0,0,0,170.8,256.3Z"/><path class="cls-4" d="M178.23,261.5v-.68a2.42,2.42,0,0,1-2,.76,2.49,2.49,0,0,1-2-.64,2,2,0,0,1-.53-1.43c0-1.23.86-2,2.43-2h2.12v-.67c0-1-.52-1.55-1.8-1.55a1.85,1.85,0,0,0-1.78.81l-.7-.65a2.71,2.71,0,0,1,2.49-1c1.89,0,2.82.81,2.82,2.35v4.78Zm0-3.25h-2c-1,0-1.57.43-1.57,1.24s.5,1.21,1.62,1.21a2,2,0,0,0,1.57-.48,1.61,1.61,0,0,0,.36-1.21Z"/><path class="cls-4" d="M186.27,261.5v-4.34a1.65,1.65,0,0,0-1.38-1.87,2,2,0,0,0-.35,0,1.66,1.66,0,0,0-1.76,1.55,1.82,1.82,0,0,0,0,.33v4.34h-1v-7.05h1v.78a2.54,2.54,0,0,1,2-.86,2.5,2.5,0,0,1,1.8.66,2.6,2.6,0,0,1,.73,2v4.51Z"/><path class="cls-4" d="M196.73,261.58a3.63,3.63,0,0,1-2.61-1.06c-1-1-1-2-1-4.12s0-3.16,1-4.12a3.63,3.63,0,0,1,2.61-1.06,3.43,3.43,0,0,1,3.53,3h-1.11a2.47,2.47,0,0,0-4.18-1.34c-.65.66-.72,1.36-.72,3.49s.07,2.83.72,3.49a2.48,2.48,0,0,0,3.52,0,2.52,2.52,0,0,0,.69-1.33h1.08A3.42,3.42,0,0,1,196.73,261.58Z"/><path class="cls-4" d="M207,260.78a2.93,2.93,0,0,1-4,0,5,5,0,0,1,0-5.61,2.93,2.93,0,0,1,4,0A5,5,0,0,1,207,260.78Zm-.73-5a1.84,1.84,0,0,0-2.56,0,4.43,4.43,0,0,0,0,4.35,1.84,1.84,0,0,0,2.56,0A4.49,4.49,0,0,0,206.27,255.78Z"/><path class="cls-4" d="M219.11,261.5v-4.34a1.75,1.75,0,1,0-3.48-.36,1.93,1.93,0,0,0,0,.24v4.46h-1v-4.34a1.66,1.66,0,0,0-1.4-1.87,1.93,1.93,0,0,0-.34,0,1.67,1.67,0,0,0-1.77,1.56,1.71,1.71,0,0,0,0,.32v4.34h-1v-7.05h1v.78a2.59,2.59,0,0,1,2-.86,2.34,2.34,0,0,1,2.17,1.17,2.69,2.69,0,0,1,2.31-1.17,2.55,2.55,0,0,1,1.82.66,2.63,2.63,0,0,1,.76,2v4.51Z"/><path class="cls-4" d="M231.69,261.5v-4.34a1.75,1.75,0,0,0-3.5-.12h0v4.46h-1v-4.34a1.65,1.65,0,0,0-1.38-1.87,2,2,0,0,0-.35,0,1.67,1.67,0,0,0-1.77,1.56,1.71,1.71,0,0,0,0,.32v4.34h-1v-7.05h1v.78a2.54,2.54,0,0,1,2-.86,2.34,2.34,0,0,1,2.16,1.17,2.71,2.71,0,0,1,2.32-1.17A2.52,2.52,0,0,1,232,255a2.63,2.63,0,0,1,.76,2v4.51Z"/><path class="cls-4" d="M235.16,252.45v-1.16h1.16v1.16Zm.05,9.05v-7.05h1v7.05Z"/><path class="cls-4" d="M241.05,261.58a3.93,3.93,0,0,1-2.89-1l.69-.69a2.88,2.88,0,0,0,2.19.82c1.16,0,1.88-.42,1.88-1.25,0-.62-.36-1-1.18-1l-1.16-.1c-1.37-.12-2.1-.73-2.1-1.89s1.09-2.06,2.59-2.06a4,4,0,0,1,2.53.76l-.67.67a3,3,0,0,0-1.88-.56c-1,0-1.57.44-1.57,1.16s.34,1,1.23,1l1.13.1c1.23.12,2.08.59,2.08,1.9S242.76,261.58,241.05,261.58Z"/><path class="cls-4" d="M247.92,261.58a3.89,3.89,0,0,1-2.89-1l.69-.69a2.88,2.88,0,0,0,2.19.82c1.16,0,1.87-.42,1.87-1.25,0-.62-.36-1-1.17-1l-1.16-.1c-1.38-.12-2.11-.73-2.11-1.89s1.09-2.06,2.6-2.06a4,4,0,0,1,2.53.76l-.67.67a3,3,0,0,0-1.88-.56c-1,0-1.57.44-1.57,1.16s.34,1,1.23,1l1.13.1c1.23.12,2.07.59,2.07,1.9S249.62,261.58,247.92,261.58Z"/><path class="cls-4" d="M252.74,252.45v-1.16h1.16v1.16Zm.06,9.05v-7.05h1v7.05Z"/><path class="cls-4" d="M260.94,260.78a2.93,2.93,0,0,1-4,0,5,5,0,0,1,0-5.61,2.93,2.93,0,0,1,4,0A5,5,0,0,1,260.94,260.78Zm-.73-5a1.84,1.84,0,0,0-2.56,0,4.43,4.43,0,0,0,0,4.35,1.84,1.84,0,0,0,2.56,0A4.49,4.49,0,0,0,260.21,255.78Z"/><path class="cls-4" d="M268.51,261.5v-4.34a1.65,1.65,0,0,0-1.38-1.87,2,2,0,0,0-.35,0,1.66,1.66,0,0,0-1.76,1.55,1.82,1.82,0,0,0,0,.33v4.34h-1v-7.05h1v.78a2.54,2.54,0,0,1,2-.86,2.5,2.5,0,0,1,1.8.66,2.6,2.6,0,0,1,.73,2v4.51Z"/></g></svg>