<svg id="Layer_1" data-name="Layer 1" xmlns="http://www.w3.org/2000/svg" viewBox="0 0 113.4 113.4"><defs><style>.cls-1{fill:#fff;stroke:#fff;stroke-miterlimit:10;}.cls-2{fill:#003b49;}</style></defs><rect class="cls-1" width="113.4" height="113.4"/><path class="cls-2" d="M16.6,78.6c0,1.1,0,2.4-1.4,3.2a4.08,4.08,0,0,1-2.1.5,3.53,3.53,0,0,1-2.7-1,3.47,3.47,0,0,1-.8-2.6V72.1h1.9v6.5a2.54,2.54,0,0,0,.4,1.6,2.17,2.17,0,0,0,1.4.5,1.89,1.89,0,0,0,1.5-.6,2.7,2.7,0,0,0,.3-1.5V72.1h1.5Zm11.5,3.6H26.4l-3.9-6.4c-.1-.2-.5-.9-.6-1.1v7.6H20.4V72.1h2L25.9,78c0,.1.3.5.6,1.2V72.1H28V82.2Z"/><path class="cls-2" d="M32.6,72.1h1.8V82.2H32.6Zm8.3,10.1L37.8,72.1h2l2.3,7.8,2.3-7.8h1.5L42.8,82.2Zm8.4,0V72.1h6.5v1.5H51.1v2.8h3.8v1.4H51.1v2.9h4.8v1.5Z"/><path class="cls-2" d="M65.6,82.2,64,78.1H61.4v4.1H59.6V72.1H64a3.26,3.26,0,0,1,2.6.8,3,3,0,0,1-.9,4.9l1.8,4.4Zm-4.1-5.6h2.3c.9,0,1.9-.3,1.9-1.6,0-.8-.5-1.5-1.8-1.5H61.5ZM72,79.4a1.66,1.66,0,0,0,1.2,1.3,3.18,3.18,0,0,0,1.3.2c1.7,0,2-.9,2-1.3a1.3,1.3,0,0,0-1.2-1.3L73,77.7A2.65,2.65,0,0,1,70.8,75c0-1.9,1.5-3,3.6-3a4.68,4.68,0,0,1,2.8.9,1.89,1.89,0,0,1,.8,1.3l-1.7.4c-.1-.3-.4-1.1-1.9-1.1s-1.7.7-1.7,1.3c0,.8.9,1.1,1.4,1.2l1.7.4a2.84,2.84,0,0,1,2.6,2.9c0,2-1.7,3.2-4,3.2a4.62,4.62,0,0,1-3.1-1,2.63,2.63,0,0,1-1-1.6Z"/><path class="cls-2" d="M82.1,72.1h1.8V82.2H82.1ZM90,82.2V73.7H87.3V72.1h7.3v1.6H92v8.5Zm10.5,0V78l-3.4-5.9h2.2l2.4,4.2,2.3-4.2h1.7L102.5,78v4.2ZM18,98.9c-3.2,0-4.2-2.9-4.2-5.2,0-2.7,1.5-5.2,4.3-5.2s4.2,2.5,4.2,5.2c0,3-1.6,5.2-4.3,5.2M19.9,91a1.93,1.93,0,0,0-1.8-1.1c-1.9,0-2.3,1.9-2.3,3.7,0,1.2.2,3.7,2.3,3.7A2.18,2.18,0,0,0,20,96.1a5.71,5.71,0,0,0,.5-2.6,9.32,9.32,0,0,0-.6-2.5m5.5,7.7V88.6h6.3v1.6H27.2v2.7h3.6v1.6H27.2v4.2Z"/><path class="cls-2" d="M40.1,95.9a1.66,1.66,0,0,0,1.2,1.3,3.18,3.18,0,0,0,1.3.2c1.7,0,2-.9,2-1.3a1.3,1.3,0,0,0-1.2-1.3l-2.3-.6a2.65,2.65,0,0,1-2.2-2.7c0-1.9,1.5-3,3.6-3a4.68,4.68,0,0,1,2.8.9,1.89,1.89,0,0,1,.8,1.3l-1.7.4c-.1-.3-.4-1.1-1.9-1.1s-1.7.7-1.7,1.3c0,.8.9,1.1,1.4,1.2l1.7.4a2.84,2.84,0,0,1,2.6,2.9c0,2-1.7,3.2-4,3.2a4.62,4.62,0,0,1-3.1-1,2.63,2.63,0,0,1-1-1.6Zm16.7-.8c0,1.1,0,2.4-1.4,3.2a4.08,4.08,0,0,1-2.1.5,3.53,3.53,0,0,1-2.7-1,3.47,3.47,0,0,1-.8-2.6V88.6h1.9v6.5a2.54,2.54,0,0,0,.4,1.6,2.17,2.17,0,0,0,1.4.5,1.89,1.89,0,0,0,1.5-.6,2.7,2.7,0,0,0,.3-1.5V88.6h1.5Zm4.3.8a1.66,1.66,0,0,0,1.2,1.3,3.18,3.18,0,0,0,1.3.2c1.7,0,2-.9,2-1.3a1.3,1.3,0,0,0-1.2-1.3L62,94.2a2.65,2.65,0,0,1-2.2-2.7c0-1.9,1.5-3,3.6-3a4.68,4.68,0,0,1,2.8.9,1.89,1.89,0,0,1,.8,1.3l-1.7.4c-.1-.3-.4-1.1-1.9-1.1s-1.7.7-1.7,1.3c0,.8.9,1.1,1.4,1.2l1.7.4a2.84,2.84,0,0,1,2.6,2.9c0,2-1.7,3.2-4,3.2a4.62,4.62,0,0,1-3.1-1,2.63,2.63,0,0,1-1-1.6Zm10.3,0a1.66,1.66,0,0,0,1.2,1.3,3.18,3.18,0,0,0,1.3.2c1.7,0,2-.9,2-1.3a1.3,1.3,0,0,0-1.2-1.3l-2.3-.6a2.65,2.65,0,0,1-2.2-2.7c0-1.9,1.5-3,3.6-3a4.68,4.68,0,0,1,2.8.9,1.89,1.89,0,0,1,.8,1.3l-1.7.4c-.1-.3-.4-1.1-1.9-1.1s-1.7.7-1.7,1.3c0,.8.9,1.1,1.4,1.2l1.7.4a2.84,2.84,0,0,1,2.6,2.9c0,2-1.7,3.2-4,3.2a4.62,4.62,0,0,1-3.1-1,2.63,2.63,0,0,1-1-1.6Z"/><path class="cls-2" d="M81,98.7V88.6h6.5v1.5H82.8v2.8h3.8v1.4H82.8v2.8h4.8v1.6Zm15.7,0-2.3-4-2.3,4H90.4l3.2-5.3-2.8-4.8h2.1L94.8,92l2-3.4h1.7l-2.8,4.6,3.1,5.5ZM22.5,41.8c0,10.7,4.7,16.7,15,16.7,7.4,0,13.2-4.3,15.9-11a.1.1,0,0,1,.1-.1v.1c3.5,6.8,10.8,11,20.9,11,10.7,0,19.2-5.5,19.2-13.7,0-5.9-3.7-9.5-11.2-12.9-1.1-.5-3.4-1.6-4.4-2.1-3.9-1.9-6.2-3.6-6.2-7.1,0-3.7,3.3-6.2,7.7-6.2,6.9,0,9.6,5.1,11.5,10.7h1.7L91.8,15H90.5l-.2.2c-.9,1.1-2,1.1-3.8.5a22.53,22.53,0,0,0-7.2-1.3c-8.3,0-14.5,5.2-14.5,11.8,0,5.6,3.3,9.2,9.8,12.1.9.4,3.1,1.5,4.3,2,3.8,1.8,6.9,3.6,6.9,7.7,0,5.3-5.4,8.2-11.3,8.2-9.4,0-14.7-6.1-14.7-16.5V15.6H43.4v1.7h.5c6.3.6,7.1,1.7,7.1,8.2V39.6c0,10-4.1,15.9-10.9,15.9-6.2,0-8.5-4.8-8.5-13.1V15.6H15.4v1.7h.4c5.9.6,6.8,1.3,6.8,8V41.8Z"/></svg>